<?xml version="1.0" encoding="utf-8"?>
<!-- Generator: Adobe Illustrator 17.0.1, SVG Export Plug-In . SVG Version: 6.00 Build 0)  -->
<!DOCTYPE svg PUBLIC "-//W3C//DTD SVG 1.1//EN" "http://www.w3.org/Graphics/SVG/1.1/DTD/svg11.dtd">
<svg version="1.1" id="Capa_1" xmlns="http://www.w3.org/2000/svg" xmlns:xlink="http://www.w3.org/1999/xlink" x="0px" y="0px"
	 width="131px" height="198.023px" viewBox="0 0 131 198.023" enable-background="new 0 0 131 198.023" xml:space="preserve">
<path fill="#E2BF22" d="M10.377,196.023l-3.253-41.487l3.008-3.204c17.047-18.123,29.279-31.98,36.356-41.181
	c6.734-8.755,11.273-15.922,13.489-21.3c2.049-4.974,3.088-9.558,3.088-13.619c0-2.743-0.5-4.808-1.407-5.81
	c-0.532-0.586-1.163-1.121-2.92-1.121c-3.261,0-6.4,0.424-9.33,1.263l-0.198,0.056l-0.2,0.048c-3.196,0.771-9.848,3-23.392,9.233
	l-11.342,5.22L1.485,22.168l6.528-3.499C27.11,8.432,46.528,3.241,65.725,3.241c20.228,0,36.071,5.471,47.089,16.261
	c11.07,10.853,16.681,26.006,16.681,45.042c0,17.971-3.321,33.122-9.87,44.974c-4.188,7.578-10.502,17.505-19.135,27.505H130v59
	H10.377z"/>
<path opacity="0.2" fill="#393744" d="M16.821,24.437c17.718-9.497,35.393-14.25,53.025-14.25c17.628,0,31.008,4.479,40.145,13.427
	c9.133,8.953,13.702,21.606,13.702,37.953c0,16.352-2.877,29.732-8.632,40.146c-5.755,10.413-16.305,24.483-31.65,42.2h40.83v39.186
	H23.672L21.48,155.15c17.354-18.45,29.685-32.426,36.994-41.927c7.305-9.497,12.237-17.354,14.798-23.567
	c2.556-6.208,3.836-12.01,3.836-17.401c0-5.386-1.327-9.544-3.974-12.468c-2.65-2.92-6.076-4.385-10.276-4.385
	c-4.205,0-8.221,0.548-12.057,1.644c-5.301,1.28-13.702,4.569-25.211,9.865L16.821,24.437z"/>
<path fill="#FFFFFF" d="M12.701,27.414c17.718-9.497,35.393-14.25,53.025-14.25c17.628,0,31.008,4.479,40.145,13.427
	c9.133,8.953,13.702,21.606,13.702,37.953c0,16.352-2.877,29.732-8.632,40.146c-5.755,10.413-16.305,24.483-31.65,42.2h40.83v39.186
	H19.551l-2.192-27.951c17.354-18.45,29.685-32.426,36.994-41.927c7.305-9.497,12.237-17.354,14.798-23.567
	c2.556-6.208,3.836-12.01,3.836-17.401c0-5.386-1.327-9.544-3.974-12.468c-2.65-2.92-6.076-4.385-10.276-4.385
	c-4.205,0-8.221,0.548-12.057,1.644c-5.301,1.28-13.702,4.569-25.211,9.865L12.701,27.414z"/>
</svg>
