<?xml version="1.0" encoding="utf-8"?>
<!-- Generator: Adobe Illustrator 17.0.1, SVG Export Plug-In . SVG Version: 6.00 Build 0)  -->
<!DOCTYPE svg PUBLIC "-//W3C//DTD SVG 1.1//EN" "http://www.w3.org/Graphics/SVG/1.1/DTD/svg11.dtd">
<svg version="1.1" id="Capa_1" xmlns="http://www.w3.org/2000/svg" xmlns:xlink="http://www.w3.org/1999/xlink" x="0px" y="0px"
	 width="131px" height="198.023px" viewBox="0 0 131 198.023" enable-background="new 0 0 131 198.023" xml:space="preserve">
<g>
	<path fill="#E2BF22" d="M64.832,196.388c-9.69,0-18.179-0.88-25.232-2.614c-6.875-1.69-15.296-4.677-25.744-9.129l-7.851-3.346
		l14.331-57.324l10.415,3.765c18.323,6.623,25.447,7.612,28.063,7.612c1.412,0,2.06-0.225,2.248-0.306
		c0.133-0.239,0.61-1.178,0.61-3.812c0-3.431,0-5.211-7.235-5.211H27V71.756l-9.971,4.13L1.172,20.589l7.104-3.844
		C18.95,10.922,28.742,6.805,37.322,4.51c8.659-2.313,18.47-3.486,29.136-3.486c19.539,0,34.729,4.574,45.132,13.595
		c10.821,9.382,16.311,23.177,16.311,40.999c0,10.636-2.087,19.741-6.207,27.063c-2.096,3.728-4.843,7.263-8.22,10.58
		c4.174,3.396,7.542,7.285,10.071,11.644c4.527,7.813,6.822,17.737,6.822,29.504c0,19.36-5.83,34.729-17.33,45.68
		C101.675,190.904,85.456,196.388,64.832,196.388z M54.709,70.023c2.002,0,3.068-0.274,3.53-0.422c0.145-0.391,0.422-1.39,0.422-3.3
		c0-1.586-0.23-2.483-0.372-2.823c-0.314-0.122-1.105-0.291-2.486-0.291c-1.952,0-8.024,0.836-23.81,6.836H54.709z"/>
	<path opacity="0.2" fill="#393744" d="M70.756,6.861c34.287,0,51.433,14.868,51.433,44.594c0,8.938-1.641,16.325-4.924,22.16
		c-3.283,5.839-8.665,11.127-16.141,15.867v1.095c8.387,3.83,14.406,8.892,18.056,15.184c3.646,6.292,5.472,14.457,5.472,24.485
		c0,16.599-4.745,29.409-14.226,38.438c-9.485,9.028-23.254,13.542-41.311,13.542c-8.938,0-16.551-0.777-22.844-2.325
		c-6.292-1.547-14.363-4.42-24.212-8.617l9.575-38.302c15.137,5.472,25.623,8.208,31.462,8.208c8.571,0,12.858-4.741,12.858-14.227
		c0-10.212-5.745-15.32-17.235-15.32H41.757V75.804h17.235c5.104,0,8.708-1.137,10.807-3.42c2.095-2.278,3.146-5.698,3.146-10.259
		c0-8.755-4.288-13.132-12.858-13.132c-6.019,0-16.688,3.104-32.009,9.302l-10.67-36.934c10.029-5.472,18.967-9.255,26.811-11.354
		C52.059,7.913,60.907,6.861,70.756,6.861z"/>
	<path fill="#FFFFFF" d="M66.474,11.023c34.287,0,51.433,14.868,51.433,44.594c0,8.938-1.641,16.325-4.924,22.16
		c-3.283,5.839-8.665,11.127-16.141,15.867v1.095c8.387,3.83,14.406,8.892,18.056,15.184c3.646,6.292,5.472,14.457,5.472,24.485
		c0,16.599-4.745,29.409-14.226,38.438c-9.485,9.028-23.254,13.542-41.311,13.542c-8.938,0-16.551-0.777-22.844-2.325
		c-6.292-1.547-14.363-4.42-24.212-8.617l9.575-38.302c15.137,5.472,25.623,8.208,31.462,8.208c8.571,0,12.858-4.741,12.858-14.227
		c0-10.212-5.745-15.32-17.235-15.32H37.474V79.966h17.235c5.104,0,8.708-1.137,10.807-3.42c2.095-2.278,3.146-5.698,3.146-10.259
		c0-8.755-4.288-13.132-12.858-13.132c-6.019,0-16.688,3.104-32.009,9.302l-10.67-36.934c10.029-5.472,18.967-9.255,26.811-11.354
		C47.776,12.075,56.625,11.023,66.474,11.023z"/>
</g>
</svg>
