<?xml version="1.0" encoding="utf-8"?>
<!-- Generator: Adobe Illustrator 17.0.1, SVG Export Plug-In . SVG Version: 6.00 Build 0)  -->
<!DOCTYPE svg PUBLIC "-//W3C//DTD SVG 1.1//EN" "http://www.w3.org/Graphics/SVG/1.1/DTD/svg11.dtd">
<svg version="1.1" id="Capa_1" xmlns="http://www.w3.org/2000/svg" xmlns:xlink="http://www.w3.org/1999/xlink" x="0px" y="0px"
	 width="306.082px" height="754.39px" viewBox="0 -17.39 306.082 754.39" enable-background="new 0 -17.39 306.082 754.39"
	 xml:space="preserve">
<polygon opacity="0.3" fill="#211915" points="301.822,602 157.906,-10.268 16.771,602 150,602 150,737 159,737 159,602 "/>
<g>
	<polygon fill="#528D4B" points="285.822,612 0.771,612 141.906,-0.268 	"/>
	<g>
		<rect x="134" y="249" fill="#B79D26" width="9" height="488"/>
	</g>
	<g>
		
			<rect x="151.442" y="288.684" transform="matrix(-0.8438 -0.5367 0.5367 -0.8438 115.7383 671.91)" fill="#B79D26" width="8.433" height="60.853"/>
	</g>
	<g>
		
			<rect x="151.445" y="411.817" transform="matrix(-0.8438 -0.5367 0.5367 -0.8438 49.6598 898.9425)" fill="#B79D26" width="8.433" height="60.853"/>
	</g>
	<g>
		
			<rect x="151.448" y="534.951" transform="matrix(-0.8438 -0.5367 0.5367 -0.8438 -16.4201 1125.9761)" fill="#B79D26" width="8.433" height="60.853"/>
	</g>
	<g>
		
			<rect x="91.47" y="384.026" transform="matrix(-0.5365 -0.8439 0.8439 -0.5365 -140.3449 699.4017)" fill="#B79D26" width="60.852" height="8.433"/>
	</g>
	<g>
		
			<rect x="91.466" y="507.148" transform="matrix(-0.5365 -0.8439 0.8439 -0.5365 -244.2532 888.5773)" fill="#B79D26" width="60.852" height="8.433"/>
	</g>
</g>
</svg>
