<?xml version="1.0" encoding="utf-8"?>
<!-- Generator: Adobe Illustrator 17.0.1, SVG Export Plug-In . SVG Version: 6.00 Build 0)  -->
<!DOCTYPE svg PUBLIC "-//W3C//DTD SVG 1.1//EN" "http://www.w3.org/Graphics/SVG/1.1/DTD/svg11.dtd">
<svg version="1.1" id="Capa_1" xmlns="http://www.w3.org/2000/svg" xmlns:xlink="http://www.w3.org/1999/xlink" x="0px" y="0px"
	 width="304.5px" height="568.5px" viewBox="0 -14.5 304.5 568.5" enable-background="new 0 -14.5 304.5 568.5"
	 xml:space="preserve">
<polygon opacity="0.3" fill="#211915" points="301.13,448 157.164,-8.238 15.981,448 148,448 148,554 157,554 157,448 "/>
<g>
	<polygon fill="#5A9A68" points="286.13,458 0.981,458 142.164,1.762 	"/>
	<polygon fill="#B79D26" points="143.797,341.247 171.019,298.899 162.357,293.669 142,324.991 142,291.708 142.318,291.506 
		142,291.007 142,238.937 143.797,239.706 171.019,197.357 162.357,192.128 142,223.449 142,159 133,159 133,276.695 
		116.028,249.158 107.538,254.387 133,294.852 133,378.235 116.028,350.699 107.538,355.929 133,396.393 133,554 142,554 
		142,442.018 143.797,442.786 171.019,400.438 162.357,395.209 142,426.53 142,393.249 142.318,393.047 142,392.547 142,340.478 	
		"/>
</g>
</svg>
