<?xml version="1.0" encoding="utf-8"?>
<!-- Generator: Adobe Illustrator 17.0.1, SVG Export Plug-In . SVG Version: 6.00 Build 0)  -->
<!DOCTYPE svg PUBLIC "-//W3C//DTD SVG 1.1//EN" "http://www.w3.org/Graphics/SVG/1.1/DTD/svg11.dtd">
<svg version="1.1" id="Capa_1" xmlns="http://www.w3.org/2000/svg" xmlns:xlink="http://www.w3.org/1999/xlink" x="0px" y="0px"
	 width="771px" height="1751px" viewBox="0 0 771 1751" enable-background="new 0 0 771 1751" xml:space="preserve">
<polygon opacity="0.2" fill="#393744" points="763.787,1107 504.154,2.429 249.537,1107 490,1107 490,1539 507,1539 507,1107 "/>
<g>
	<polygon fill="#528D4B" points="733.358,1141 219.108,1141 473.725,36.429 	"/>
	<g>
		<rect x="465" y="489" fill="#B79D26" width="17" height="1050"/>
	</g>
	<g>
		<polygon fill="#B79D26" points="475.478,659.391 462.641,651.225 521.544,558.583 534.381,566.749 		"/>
	</g>
	<g>
		<polygon fill="#B79D26" points="475.478,881.522 462.641,873.356 521.544,780.714 534.381,788.88 		"/>
	</g>
	<g>
		<polygon fill="#B79D26" points="475.478,1103.654 462.641,1095.488 521.544,1002.846 534.381,1011.012 		"/>
	</g>
	<g>
		<polygon fill="#B79D26" points="460.686,784.149 401.783,691.508 414.62,683.342 473.523,775.984 		"/>
	</g>
	<g>
		<polygon fill="#B79D26" points="460.686,1006.281 401.783,913.639 414.62,905.473 473.523,998.115 		"/>
	</g>
</g>
<polygon opacity="0.2" fill="#393744" points="427.733,1260 235.184,649.798 46.356,1260 227,1260 227,1751 236,1751 236,1260 "/>
<g>
	<polygon fill="#5A9A68" points="391.218,1285 9.841,1285 198.669,674.798 	"/>
	<polygon fill="#B79D26" points="202.628,1127.086 238.149,1070.447 227.896,1063.453 202,1105.344 202,1060.829 202.425,1060.559 
		202,1059.891 202,990.25 202.628,991.278 238.149,934.638 227.896,927.644 202,969.535 202,887 185,887 185,1040.75 
		163.006,1003.92 151.299,1010.914 185,1065.034 185,1176.557 163.006,1139.728 151.299,1146.722 185,1200.842 185,1751 202,1751 
		202,1261.863 202.628,1262.892 238.149,1206.253 227.896,1199.258 202,1241.149 202,1196.637 202.425,1196.367 202,1195.698 
		202,1126.058 	"/>
</g>
</svg>
