<?xml version="1.0" encoding="utf-8"?>
<!-- Generator: Adobe Illustrator 17.0.1, SVG Export Plug-In . SVG Version: 6.00 Build 0)  -->
<!DOCTYPE svg PUBLIC "-//W3C//DTD SVG 1.1//EN" "http://www.w3.org/Graphics/SVG/1.1/DTD/svg11.dtd">
<svg version="1.1" id="Capa_1" xmlns="http://www.w3.org/2000/svg" xmlns:xlink="http://www.w3.org/1999/xlink" x="0px" y="0px"
	 width="394px" height="355px" viewBox="0 0 394 355" enable-background="new 0 0 394 355" xml:space="preserve">
<path fill="#FFFFFF" d="M387.738,118.155c-6.736-7.433-15.783-9.516-28.634,1.121c-6.206,4.846-12.161-3.193-7.992-7.362
	s14.113-13.493,14.113-13.493c2.11-1.912,2.27-5.173,0.358-7.283c-1.912-2.11-5.173-2.27-7.283-0.358l-19.214,17.043
	C311.994,45.591,249.963,2.075,177.758,2.075c-97.136,0-175.88,78.744-175.88,175.88c0,34.626,10.013,66.911,27.291,94.129
	c-7.621,13.079-6.308,30.104,4.399,41.918c11.119,12.269,28.824,15.007,42.859,7.72c28.645,20.227,63.598,32.113,101.331,32.113
	c97.136,0,175.88-78.744,175.88-175.88c0-1.449-0.02-2.893-0.055-4.334l32.893-29.81
	C393.91,137.074,394.475,125.588,387.738,118.155z"/>
</svg>
