<?xml version="1.0" encoding="utf-8"?>
<!-- Generator: Adobe Illustrator 17.0.1, SVG Export Plug-In . SVG Version: 6.00 Build 0)  -->
<!DOCTYPE svg PUBLIC "-//W3C//DTD SVG 1.1//EN" "http://www.w3.org/Graphics/SVG/1.1/DTD/svg11.dtd">
<svg version="1.1" id="Capa_1" xmlns="http://www.w3.org/2000/svg" xmlns:xlink="http://www.w3.org/1999/xlink" x="0px" y="0px"
	 width="394px" height="329px" viewBox="0 0 394 329" enable-background="new 0 0 394 329" xml:space="preserve">
<path fill="#FFFFFF" d="M389.385,109.741c-7.405-8.17-17.348-10.46-31.474,1.232c-6.822,5.327-13.368-3.51-8.785-8.092
	c4.582-4.582,15.513-14.831,15.513-14.831c2.319-2.102,2.496-5.686,0.394-8.006c-2.102-2.319-5.686-2.496-8.006-0.394l-18.51,16.419
	C312.74,39.358,255.6-0.078,189.246-0.078c-90.511,0-163.884,73.374-163.884,163.884c0,30.412,8.294,58.883,22.728,83.292
	l-7.073,6.41c-16.049,14.545-17.268,39.346-2.723,55.395s39.346,17.268,55.395,2.723l9.32-8.446
	c25.051,15.533,54.594,24.511,86.237,24.511c88.555,0,160.692-70.239,163.77-158.044l34.983-31.705
	C396.169,130.537,396.79,117.911,389.385,109.741z"/>
<path fill="#E2BF22" d="M34.588,93.08c4.465-4.046,11.365-3.707,15.411,0.758l0,0c4.046,4.465,3.707,11.365-0.758,15.411
	l-31.41,28.466c-4.465,4.046-11.365,3.707-15.411-0.758l0,0c-4.046-4.465-3.707-11.365,0.758-15.411L34.588,93.08z"/>
<path fill="#FFFFFF" d="M42.405,72.228c3.479-3.153,8.855-2.889,12.009,0.59l0,0c3.153,3.479,2.889,8.855-0.59,12.009
	l-24.475,22.181c-3.479,3.153-8.855,2.889-12.009-0.59l0,0c-3.153-3.479-2.889-8.855,0.59-12.009L42.405,72.228z"/>
</svg>
