<?xml version="1.0" encoding="utf-8"?>
<!-- Generator: Adobe Illustrator 17.0.1, SVG Export Plug-In . SVG Version: 6.00 Build 0)  -->
<!DOCTYPE svg PUBLIC "-//W3C//DTD SVG 1.1//EN" "http://www.w3.org/Graphics/SVG/1.1/DTD/svg11.dtd">
<svg version="1.1" id="Capa_1" xmlns="http://www.w3.org/2000/svg" xmlns:xlink="http://www.w3.org/1999/xlink" x="0px" y="0px"
	 width="521px" height="525.5px" viewBox="0 -13.5 521 525.5" enable-background="new 0 -13.5 521 525.5" xml:space="preserve">
<path opacity="0.3" fill="#211915" d="M344.772,244.01L501.088,87.694c22.117-22.121,22.117-57.979,0-80.097
	c-22.118-22.118-57.978-22.118-80.096,0L264.675,163.913L108.358,7.597c-22.118-22.118-57.978-22.118-80.096,0
	c-22.117,22.118-22.117,57.976,0,80.097L184.579,244.01L28.262,400.325c-22.117,22.118-22.117,57.979,0,80.097
	c22.118,22.118,57.978,22.118,80.096,0l156.317-156.315l156.317,156.315c22.118,22.118,57.978,22.118,80.096,0
	c22.117-22.118,22.117-57.979,0-80.097L344.772,244.01z"/>
<path fill="#FFFFFF" d="M332.772,253.01L489.088,96.694c22.117-22.121,22.117-57.979,0-80.097
	c-22.118-22.118-57.978-22.118-80.096,0L252.675,172.913L96.358,16.597c-22.118-22.118-57.978-22.118-80.096,0
	c-22.117,22.118-22.117,57.976,0,80.097L172.579,253.01L16.262,409.325c-22.117,22.118-22.117,57.979,0,80.097
	c22.118,22.118,57.978,22.118,80.096,0l156.317-156.315l156.317,156.315c22.118,22.118,57.978,22.118,80.096,0
	c22.117-22.118,22.117-57.979,0-80.097L332.772,253.01z"/>
</svg>
