<?xml version="1.0" encoding="utf-8"?>
<!-- Generator: Adobe Illustrator 17.0.1, SVG Export Plug-In . SVG Version: 6.00 Build 0)  -->
<!DOCTYPE svg PUBLIC "-//W3C//DTD SVG 1.1//EN" "http://www.w3.org/Graphics/SVG/1.1/DTD/svg11.dtd">
<svg version="1.1" id="Capa_1" xmlns="http://www.w3.org/2000/svg" xmlns:xlink="http://www.w3.org/1999/xlink" x="0px" y="0px"
	 width="394px" height="144px" viewBox="0 0 394 144" enable-background="new 0 0 394 144" xml:space="preserve">
<g>
	<path fill="#E2BF22" d="M1.253,142l2.755-85h1.48c-3.111-3-4.686-8.061-4.686-14.041c0-12.114,7.917-19.307,21.178-19.307
		s21.178,7.298,21.178,19.62c0,5.776-1.575,10.728-4.684,13.728h2.355l2.165,85H1.253z"/>
	<path opacity="0.2" fill="#393744" d="M39.63,40.395c0,4.441-1.166,7.742-3.496,9.907c-2.331,2.165-6.051,3.247-11.155,3.247
		c-5.107,0-8.825-1.082-11.155-3.247c-2.331-2.164-3.496-5.578-3.496-10.239c0-8.546,4.883-12.82,14.652-12.82
		C34.744,27.242,39.63,31.628,39.63,40.395z M37.465,60.708l1.832,71.761H10.992l2.331-71.761H37.465z"/>
	<path fill="#E2BF22" d="M49,120V3h41.242c17.296,0,29.946,5.018,37.6,15.197c7.222,9.61,10.883,23.63,10.883,40.983
		c0,49.981-26.728,60.82-49.149,60.82H49z M90,82.103c3-0.213,4.125-1.524,4.398-2.183c0.95-2.301,2.112-7.378,2.112-18.484
		c0-11.611-1.408-16.41-2.222-18.238C94.018,42.594,93,41.274,90,40.969V82.103z"/>
	<path opacity="0.2" fill="#393744" d="M135.198,55.713c0,35.964-14.21,53.946-42.623,53.946H58.276V6.263h34.965
		c15.206,0,26,4.246,32.384,12.737C132.006,27.492,135.198,39.729,135.198,55.713z M103.48,79.439
		c1.719-4.162,2.581-11.155,2.581-20.979c0-9.823-0.916-16.787-2.747-20.895c-1.832-4.105-5.744-6.161-11.738-6.161h-4.995v54.278
		h5.494C97.957,85.682,101.758,83.602,103.48,79.439z"/>
	<polygon fill="#E2BF22" points="183.924,120 180.761,103 171.878,103 168.715,120 129.026,120 150.403,3 203.568,3 224.945,120 	
		"/>
	<path opacity="0.2" fill="#393744" d="M220.11,109.658h-27.805l-3.163-16.317h-19.647l-3.163,16.317h-26.473L158.838,6.263h42.29
		L220.11,109.658z M185.978,73.861l-5.827-36.963h-1.166l-5.827,36.963H185.978z"/>
	<polygon fill="#E2BF22" points="219,120 219,3 261,3 261,84 287.058,84 284.454,120 	"/>
	<path opacity="0.2" fill="#393744" d="M281.379,109.658h-52.613V6.263h28.471v80.252h25.807L281.379,109.658z"/>
	<polygon fill="#E2BF22" points="279,120 279,3 350.614,3 348.096,42 321,42 321,43 345,43 345,78 321,78 321,83 350.657,83 
		348.059,120 	"/>
	<path opacity="0.2" fill="#393744" d="M344.981,109.658h-55.943V6.263h57.609l-1.665,25.474h-27.472v15.484h23.809v21.978h-23.809
		v17.149h29.137L344.981,109.658z"/>
	<path fill="#E2BF22" d="M373.616,120.991c-13.261,0-21.178-7.119-21.178-19.442c0-5.776,1.575-10.549,4.684-13.549h-2.355
		l-2.165-85h41.74l-2.755,85h-1.481c3.111,3,4.687,7.904,4.687,13.883C394.794,113.997,386.877,120.991,373.616,120.991z"/>
	<path opacity="0.2" fill="#393744" d="M361.963,98.336c0-4.438,1.165-7.742,3.496-9.907c2.331-2.164,6.048-3.246,11.155-3.246
		c5.104,0,8.824,1.082,11.155,3.246c2.331,2.165,3.496,5.578,3.496,10.24c0,8.549-4.886,12.82-14.652,12.82
		C366.846,111.49,361.963,107.106,361.963,98.336z M364.127,78.023l-1.832-71.76H390.6l-2.331,71.76H364.127z"/>
	<path fill="#FFFFFF" d="M36.632,43.37c0,4.441-1.166,7.742-3.496,9.907c-2.331,2.165-6.051,3.247-11.155,3.247
		c-5.107,0-8.825-1.082-11.155-3.247c-2.331-2.164-3.496-5.578-3.496-10.239c0-8.546,4.883-12.82,14.652-12.82
		C31.746,30.217,36.632,34.603,36.632,43.37z M34.467,63.683l1.832,71.761H7.994l2.331-71.761H34.467z"/>
	<path fill="#FFFFFF" d="M132.2,58.688c0,35.964-14.21,53.946-42.623,53.946H55.278V9.238h34.965c15.206,0,26,4.246,32.384,12.737
		C129.008,30.467,132.2,42.704,132.2,58.688z M100.482,82.414c1.719-4.162,2.581-11.155,2.581-20.979
		c0-9.823-0.916-16.787-2.747-20.895c-1.832-4.105-5.744-6.161-11.738-6.161h-4.995v54.278h5.494
		C94.959,88.658,98.76,86.577,100.482,82.414z"/>
	<path fill="#FFFFFF" d="M217.112,112.634h-27.805l-3.163-16.317h-19.647l-3.163,16.317h-26.473L155.84,9.238h42.29L217.112,112.634
		z M182.98,76.837l-5.827-36.963h-1.166l-5.827,36.963H182.98z"/>
	<path fill="#FFFFFF" d="M278.381,112.634h-52.613V9.238h28.471v80.252h25.807L278.381,112.634z"/>
	<path fill="#FFFFFF" d="M341.983,112.634h-55.943V9.238h57.609l-1.665,25.474h-27.472v15.484h23.809v21.978h-23.809v17.149h29.137
		L341.983,112.634z"/>
	<path fill="#FFFFFF" d="M358.965,101.312c0-4.438,1.165-7.742,3.496-9.907c2.331-2.164,6.048-3.246,11.155-3.246
		c5.104,0,8.824,1.082,11.155,3.246c2.331,2.165,3.496,5.578,3.496,10.24c0,8.549-4.886,12.82-14.652,12.82
		C363.847,114.465,358.965,110.081,358.965,101.312z M361.129,80.999l-1.832-71.76h28.305l-2.331,71.76H361.129z"/>
</g>
</svg>
