<?xml version="1.0" encoding="utf-8"?>
<!-- Generator: Adobe Illustrator 16.0.0, SVG Export Plug-In . SVG Version: 6.00 Build 0)  -->
<!DOCTYPE svg PUBLIC "-//W3C//DTD SVG 1.1//EN" "http://www.w3.org/Graphics/SVG/1.1/DTD/svg11.dtd">
<svg version="1.1" id="Capa_1" xmlns="http://www.w3.org/2000/svg" xmlns:xlink="http://www.w3.org/1999/xlink" x="0px" y="0px"
	 width="254.098px" height="246.356px" viewBox="0 0 254.098 246.356" enable-background="new 0 0 254.098 246.356"
	 xml:space="preserve">
<path fill="#EDC600" d="M182.646,75.411c16.081-14.574,40.933-13.353,55.508,2.729l0,0c14.574,16.082,13.353,40.934-2.729,55.508
	l-113.132,102.53c-16.082,14.574-40.934,13.353-55.508-2.729l0,0c-14.575-16.082-13.354-40.934,2.729-55.508L182.646,75.411z"/>
<g>
	<defs>
		<path id="SVGID_1_" d="M115.646,8.411C131.727-6.163,223.578,62.059,238.153,78.14l0,0c14.574,16.082,13.353,40.934-2.729,55.508
			l-113.132,102.53c-16.082,14.574-40.934,13.353-55.508-2.729l0,0C52.21,217.367-13.568,125.516,2.514,110.941L115.646,8.411z"/>
	</defs>
	<clipPath id="SVGID_2_">
		<use xlink:href="#SVGID_1_"  overflow="visible"/>
	</clipPath>
	<path opacity="0.2" clip-path="url(#SVGID_2_)" fill="#393745" d="M131.154,211h7v-47h-7V211z M212.154,91v-8h-32v8h-2V70h-6v-6h-6
		v14h-7v-2h6V50h-11v-8h-16v7h8v1h-12v7h4v1h-12v12h-7v6h-6v7h-6v21h-2V83h-20V69h-6V59h-13v37h7v8h27v29h5v7h8v8h13v13h20v-7h5v7
		h21v-21h6v-7h7v-29h15v14h6v8h13V91H212.154z M119.154,104h-2v-5h2V104z M146.154,58v-1h13v13h-1V58H146.154z M113.154,225h25v-12
		h-25V225z M170.154,164h-5v27h20v19h15v-26h-30V164z"/>
	<g clip-path="url(#SVGID_2_)">
		<rect x="148.154" y="74" fill="#FFFFFF" width="6" height="7"/>
		<rect x="128.154" y="74" fill="#FFFFFF" width="7" height="7"/>
		<rect x="135.154" y="74" fill="#FFFFFF" width="5" height="7"/>
		<rect x="140.154" y="74" fill="#FFFFFF" width="8" height="7"/>
		<rect x="108.154" y="74" fill="#FFFFFF" width="16" height="15"/>
		<rect x="115.154" y="74" fill="#FFFFFF" width="5" height="7"/>
		<rect x="123.154" y="74" fill="#FFFFFF" width="5" height="7"/>
		<rect x="148.154" y="74" fill="#FFFFFF" width="6" height="7"/>
		<rect x="155.154" y="74" fill="#F7AC9F" width="6" height="7"/>
		<rect x="158.154" y="74" fill="#F7AC9F" width="9" height="8"/>
		<rect x="127.154" y="63" fill="#F7AC9F" width="8" height="11"/>
		<rect x="115.154" y="69" width="5" height="5"/>
		<rect x="148.154" y="62" fill="#F7AC9F" width="6" height="12"/>
		<rect x="155.154" y="69" fill="#F7AC9F" width="6" height="10"/>
		<rect x="127.154" y="61" fill="#F7AC9F" width="8" height="6"/>
		<rect x="115.154" y="62" width="12" height="12"/>
		<rect x="135.154" y="62" width="12" height="12"/>
		<rect x="148.154" y="61" fill="#FFFFFF" width="6" height="6"/>
		<rect x="128.154" y="54" fill="#F7AC9F" width="7" height="7"/>
		<rect x="135.154" y="54" fill="#F7AC9F" width="5" height="7"/>
		<rect x="140.154" y="54" fill="#F7AC9F" width="8" height="7"/>
		<rect x="123.154" y="54" fill="#F7AC9F" width="5" height="7"/>
		<rect x="148.154" y="54" fill="#F7AC9F" width="6" height="7"/>
		<rect x="148.154" y="61" fill="#F7AC9F" width="6" height="6"/>
		<rect x="127.154" y="47" fill="#FFFFFF" width="8" height="6"/>
		<rect x="135.154" y="47" fill="#F7AC9F" width="8" height="7"/>
		<rect x="127.154" y="108" fill="#F7AC9F" width="8" height="8"/>
		<rect x="135.154" y="108" fill="#F7AC9F" width="5" height="8"/>
		<rect x="140.154" y="108" fill="#F7AC9F" width="8" height="8"/>
		<rect x="106.154" y="108" fill="#F7AC9F" width="7" height="8"/>
		<rect x="115.154" y="108" fill="#F7AC9F" width="5" height="8"/>
		<rect x="94.154" y="108" fill="#F7AC9F" width="7" height="8"/>
		<rect x="102.154" y="108" fill="#F7AC9F" width="4" height="8"/>
		<rect x="120.154" y="108" fill="#F7AC9F" width="7" height="8"/>
		<rect x="148.154" y="108" fill="#F7AC9F" width="6" height="8"/>
		<rect x="155.154" y="108" fill="#F7AC9F" width="6" height="8"/>
		<rect x="161.154" y="108" fill="#F7AC9F" width="6" height="8"/>
		<rect x="140.154" y="103" fill="#F7AC9F" width="34" height="5"/>
		<rect x="108.154" y="97" fill="#FFFFFF" width="32" height="11"/>
		<rect x="96.154" y="103" fill="#F7AC9F" width="10" height="5"/>
		<rect x="148.154" y="103" fill="#F7AC9F" width="6" height="5"/>
		<rect x="155.154" y="103" fill="#F7AC9F" width="6" height="5"/>
		<rect x="161.154" y="103" fill="#F7AC9F" width="6" height="5"/>
		<rect x="169.154" y="103" fill="#F7AC9F" width="5" height="5"/>
		<rect x="128.154" y="95" fill="#FFFFFF" width="7" height="8"/>
		<rect x="135.154" y="95" fill="#FFFFFF" width="5" height="8"/>
		<rect x="140.154" y="95" fill="#FFFFFF" width="8" height="8"/>
		<rect x="108.154" y="95" fill="#FFFFFF" width="7" height="8"/>
		<rect x="115.154" y="95" fill="#FFFFFF" width="5" height="8"/>
		<rect x="96.154" y="95" fill="#F7A693" width="6" height="8"/>
		<rect x="102.154" y="88" fill="#FFFFFF" width="45" height="15"/>
		<rect x="123.154" y="95" fill="#FFFFFF" width="5" height="8"/>
		<rect x="148.154" y="82" fill="#F7AC9F" width="19" height="25"/>
		<rect x="155.154" y="95" fill="#F7AC9F" width="6" height="8"/>
		<rect x="161.154" y="95" fill="#F7AC9F" width="6" height="8"/>
		<rect x="166.154" y="95" fill="#F7AC9F" width="8" height="10"/>
		<rect x="128.154" y="89" fill="#FFFFFF" width="7" height="6"/>
		<rect x="135.154" y="89" fill="#FFFFFF" width="5" height="6"/>
		<rect x="140.154" y="89" fill="#FFFFFF" width="8" height="6"/>
		<rect x="108.154" y="89" fill="#FFFFFF" width="7" height="6"/>
		<rect x="115.154" y="89" fill="#FFFFFF" width="5" height="6"/>
		<rect x="96.154" y="88" fill="#F7A693" width="6" height="7"/>
		<rect x="102.154" y="89" fill="#FFFFFF" width="6" height="6"/>
		<rect x="123.154" y="89" fill="#FFFFFF" width="5" height="6"/>
		<rect x="155.154" y="89" fill="#F7AC9F" width="6" height="6"/>
		<rect x="161.154" y="89" fill="#F7AC9F" width="6" height="6"/>
		<rect x="169.154" y="88" fill="#CE9189" width="30" height="7"/>
		<rect x="128.154" y="81" fill="#FFFFFF" width="7" height="8"/>
		<rect x="135.154" y="81" fill="#FFFFFF" width="5" height="8"/>
		<rect x="140.154" y="81" fill="#FFFFFF" width="8" height="8"/>
		<rect x="108.154" y="81" fill="#FFFFFF" width="7" height="8"/>
		<rect x="115.154" y="81" fill="#FFFFFF" width="5" height="8"/>
		<rect x="102.154" y="81" fill="#FFFFFF" width="6" height="8"/>
		<rect x="123.154" y="81" fill="#FFFFFF" width="5" height="8"/>
		<rect x="155.154" y="81" fill="#F7AC9F" width="6" height="8"/>
		<rect x="161.154" y="81" fill="#F7AC9F" width="6" height="8"/>
		<rect x="127.154" y="145" fill="#F7AC9F" width="8" height="8"/>
		<rect x="135.154" y="145" fill="#F7AC9F" width="5" height="8"/>
		<rect x="140.154" y="145" fill="#F7AC9F" width="8" height="8"/>
		<rect x="115.154" y="145" fill="#F7AC9F" width="5" height="8"/>
		<rect x="120.154" y="145" fill="#F7AC9F" width="7" height="8"/>
		<rect x="148.154" y="145" fill="#F7AC9F" width="6" height="8"/>
		<rect x="102.154" y="108" fill="#F7AC9F" width="59" height="45"/>
		<rect x="189.154" y="116" fill="#CE9189" width="6" height="7"/>
		<rect x="127.154" y="138" fill="#F7AC9F" width="8" height="7"/>
		<rect x="135.154" y="138" fill="#F7AC9F" width="5" height="7"/>
		<rect x="140.154" y="138" fill="#F7AC9F" width="8" height="7"/>
		<rect x="106.154" y="138" fill="#F7AC9F" width="7" height="7"/>
		<rect x="115.154" y="138" fill="#F7AC9F" width="5" height="7"/>
		<rect x="94.154" y="138" fill="#F7AC9F" width="71" height="7"/>
		<rect x="102.154" y="138" fill="#F7AC9F" width="4" height="7"/>
		<rect x="106.154" y="145" fill="#F7AC9F" width="7" height="8"/>
		<rect x="102.154" y="145" fill="#F7AC9F" width="4" height="8"/>
		<rect x="120.154" y="138" fill="#F7AC9F" width="7" height="7"/>
		<rect x="148.154" y="138" fill="#F7AC9F" width="6" height="7"/>
		<rect x="155.154" y="138" fill="#F7AC9F" width="6" height="7"/>
		<rect x="189.154" y="108" fill="#CE9189" width="19" height="15"/>
		<rect x="127.154" y="132" fill="#F7AC9F" width="8" height="5"/>
		<rect x="135.154" y="132" fill="#F7AC9F" width="5" height="5"/>
		<rect x="140.154" y="132" fill="#F7AC9F" width="8" height="5"/>
		<rect x="106.154" y="132" fill="#F7AC9F" width="7" height="5"/>
		<rect x="115.154" y="132" fill="#F7AC9F" width="5" height="5"/>
		<rect x="94.154" y="132" fill="#F7AC9F" width="7" height="5"/>
		<rect x="102.154" y="132" fill="#F7AC9F" width="4" height="5"/>
		<rect x="120.154" y="132" fill="#F7AC9F" width="7" height="5"/>
		<rect x="148.154" y="132" fill="#F7AC9F" width="6" height="5"/>
		<rect x="155.154" y="132" fill="#F7AC9F" width="6" height="5"/>
		<rect x="161.154" y="132" fill="#F7AC9F" width="6" height="5"/>
		<rect x="161.154" y="138" fill="#F7AC9F" width="6" height="7"/>
		<rect x="94.154" y="135" fill="#F7AC9F" width="71" height="7"/>
		<rect x="161.154" y="135" fill="#F7AC9F" width="6" height="7"/>
		<rect x="189.154" y="103" fill="#CE9189" width="6" height="5"/>
		<rect x="127.154" y="124" fill="#F7AC9F" width="8" height="6"/>
		<rect x="135.154" y="124" fill="#F7AC9F" width="5" height="6"/>
		<rect x="140.154" y="124" fill="#F7AC9F" width="8" height="6"/>
		<rect x="106.154" y="124" fill="#F7AC9F" width="7" height="6"/>
		<rect x="115.154" y="124" fill="#F7AC9F" width="5" height="6"/>
		<rect x="94.154" y="124" fill="#F7AC9F" width="7" height="6"/>
		<rect x="102.154" y="124" fill="#F7AC9F" width="4" height="6"/>
		<rect x="120.154" y="124" fill="#F7AC9F" width="7" height="6"/>
		<rect x="148.154" y="124" fill="#F7AC9F" width="6" height="6"/>
		<rect x="155.154" y="124" fill="#F7AC9F" width="6" height="6"/>
		<rect x="161.154" y="124" fill="#F7AC9F" width="6" height="6"/>
		<rect x="189.154" y="95" fill="#CE9189" width="6" height="8"/>
		<rect x="127.154" y="116" fill="#F7AC9F" width="8" height="8"/>
		<rect x="135.154" y="116" fill="#F7AC9F" width="5" height="8"/>
		<rect x="140.154" y="116" fill="#F7AC9F" width="8" height="8"/>
		<rect x="106.154" y="116" fill="#F7AC9F" width="7" height="8"/>
		<rect x="115.154" y="116" fill="#F7AC9F" width="5" height="8"/>
		<rect x="94.154" y="116" fill="#F7AC9F" width="7" height="8"/>
		<rect x="102.154" y="116" fill="#F7AC9F" width="4" height="8"/>
		<rect x="120.154" y="116" fill="#F7AC9F" width="7" height="8"/>
		<rect x="148.154" y="116" fill="#F7AC9F" width="6" height="8"/>
		<rect x="155.154" y="116" fill="#F7AC9F" width="6" height="8"/>
		<rect x="161.154" y="116" fill="#F7AC9F" width="6" height="8"/>
		<rect x="169.154" y="108" fill="#F7AC9F" width="5" height="8"/>
		<rect x="169.154" y="132" fill="#F7AC9F" width="5" height="5"/>
		<rect x="169.154" y="124" fill="#F7AC9F" width="5" height="6"/>
		<rect x="169.154" y="116" fill="#F7AC9F" width="5" height="8"/>
		<rect x="189.154" y="88" fill="#CE9189" width="6" height="7"/>
		<rect x="120.154" y="181" fill="#F7AC9F" width="7" height="7"/>
		<rect x="154.154" y="181" fill="#F7AC9F" width="5" height="7"/>
		<rect x="120.154" y="173" fill="#F7AC9F" width="7" height="8"/>
		<rect x="154.154" y="173" fill="#F7AC9F" width="5" height="8"/>
		<rect x="120.154" y="168" fill="#F7AC9F" width="7" height="5"/>
		<rect x="154.154" y="168" fill="#F7AC9F" width="5" height="26"/>
		<rect x="127.154" y="160" fill="#EB3D40" width="8" height="6"/>
		<rect x="140.154" y="153" fill="#EB3D40" width="21" height="13"/>
		<rect x="120.154" y="160" fill="#EB3D40" width="7" height="6"/>
		<rect x="148.154" y="160" fill="#EB3D40" width="6" height="6"/>
		<rect x="155.154" y="160" fill="#EB3D40" width="6" height="6"/>
		<rect x="127.154" y="153" fill="#EB3D40" width="8" height="5"/>
		<rect x="135.154" y="153" fill="#EB3D40" width="5" height="5"/>
		<rect x="140.154" y="153" fill="#EB3D40" width="8" height="5"/>
		<rect x="120.154" y="153" fill="#EB3D40" width="7" height="5"/>
		<rect x="115.154" y="160" fill="#EB3D40" width="5" height="6"/>
		<rect x="115.154" y="153" fill="#EB3D40" width="20" height="13"/>
		<rect x="148.154" y="153" fill="#EB3D40" width="6" height="5"/>
		<rect x="155.154" y="153" fill="#EB3D40" width="6" height="5"/>
		<rect x="174.154" y="103" fill="#CE9189" width="7" height="5"/>
		<rect x="181.154" y="103" fill="#CE9189" width="8" height="5"/>
		<rect x="174.154" y="90" fill="#CE9189" width="27" height="13"/>
		<rect x="181.154" y="95" fill="#CE9189" width="8" height="8"/>
		<rect x="174.154" y="88" fill="#CE9189" width="7" height="7"/>
		<rect x="181.154" y="88" fill="#CE9189" width="8" height="7"/>
		<rect x="195.154" y="116" fill="#CE9189" width="6" height="7"/>
		<rect x="203.154" y="116" fill="#CE9189" width="5" height="7"/>
		<rect x="195.154" y="108" fill="#CE9189" width="6" height="8"/>
		<rect x="203.154" y="108" fill="#CE9189" width="5" height="8"/>
		<rect x="195.154" y="103" fill="#CE9189" width="6" height="5"/>
		<rect x="203.154" y="103" fill="#CE9189" width="5" height="5"/>
		<rect x="195.154" y="95" fill="#CE9189" width="6" height="8"/>
		<rect x="174.154" y="95" fill="#CE9189" width="34" height="13"/>
		<rect x="195.154" y="88" fill="#CE9189" width="6" height="7"/>
		<rect x="89.154" y="132" fill="#F7AC9F" width="85" height="5"/>
		<rect x="89.154" y="127" fill="#F7AC9F" width="85" height="7"/>
		<rect x="89.154" y="113" fill="#F7AC9F" width="85" height="6"/>
		<rect x="89.154" y="124" fill="#F7AC9F" width="5" height="6"/>
		<rect x="89.154" y="108" fill="#F7AC9F" width="84" height="21"/>
		<rect x="89.154" y="108" fill="#F7AC9F" width="5" height="8"/>
		<rect x="195.154" y="119" fill="#CE9189" width="13" height="11"/>
		<rect x="203.154" y="124" fill="#CE9189" width="5" height="6"/>
		<rect x="89.154" y="88" fill="#CE9189" width="5" height="7"/>
		<rect x="89.154" y="95" fill="#CE9189" width="5" height="6"/>
		<rect x="64.154" y="73" fill="#CE9189" width="10" height="8"/>
		<rect x="64.154" y="81" fill="#CE9189" width="10" height="9"/>
		<rect x="68.154" y="88" fill="#CE9189" width="6" height="7"/>
		<rect x="68.154" y="95" fill="#CE9189" width="6" height="6"/>
		<rect x="82.154" y="88" fill="#CE9189" width="7" height="7"/>
		<rect x="74.154" y="88" fill="#CE9189" width="8" height="7"/>
		<rect x="82.154" y="95" fill="#CE9189" width="7" height="6"/>
		<rect x="74.154" y="95" fill="#CE9189" width="8" height="6"/>
		<rect x="62.154" y="73" fill="#CE9189" width="6" height="6"/>
		<rect x="55.154" y="73" fill="#CE9189" width="5" height="6"/>
		<rect x="62.154" y="79" fill="#CE9189" width="6" height="9"/>
		<rect x="55.154" y="79" fill="#CE9189" width="5" height="9"/>
		<rect x="62.154" y="88" fill="#CE9189" width="6" height="7"/>
		<rect x="55.154" y="88" fill="#CE9189" width="11" height="7"/>
		<rect x="62.154" y="95" fill="#CE9189" width="6" height="6"/>
		<rect x="55.154" y="95" fill="#CE9189" width="11" height="6"/>
		<rect x="62.154" y="63" fill="#CE9189" width="6" height="8"/>
		<rect x="55.154" y="63" fill="#CE9189" width="13" height="25"/>
		<rect x="120.154" y="218" fill="#EB3D40" width="7" height="5"/>
		<rect x="174.154" y="210" fill="#EB3D40" width="8" height="4"/>
		<rect x="174.154" y="202" fill="#EB3D40" width="8" height="8"/>
		<rect x="102.154" y="218" fill="#EB3D40" width="25" height="12"/>
		<rect x="106.154" y="218" fill="#EB3D40" width="7" height="5"/>
		<rect x="115.154" y="218" fill="#EB3D40" width="5" height="5"/>
		<rect x="174.154" y="196" fill="#EB3D40" width="8" height="6"/>
		<rect x="174.154" y="189" fill="#EB3D40" width="15" height="25"/>
		<rect x="120.154" y="169" fill="#F7AC9F" width="7" height="46"/>
		<rect x="167.154" y="189" fill="#F7AC9F" width="7" height="7"/>
		<rect x="120.154" y="202" fill="#F7AC9F" width="7" height="8"/>
		<rect x="158.154" y="189" fill="#F7AC9F" width="9" height="7"/>
		<rect x="120.154" y="196" fill="#F7AC9F" width="7" height="6"/>
		<rect x="154.154" y="189" fill="#F7AC9F" width="5" height="7"/>
		<rect x="120.154" y="188" fill="#F7AC9F" width="7" height="8"/>
		<rect x="154.154" y="188" fill="#F7AC9F" width="5" height="8"/>
		<rect x="120.154" y="223" fill="#EB3D40" width="7" height="7"/>
		<rect x="182.154" y="210" fill="#EB3D40" width="7" height="4"/>
		<rect x="182.154" y="202" fill="#EB3D40" width="7" height="8"/>
		<rect x="102.154" y="223" fill="#EB3D40" width="4" height="7"/>
		<rect x="106.154" y="223" fill="#EB3D40" width="7" height="7"/>
		<rect x="115.154" y="223" fill="#EB3D40" width="5" height="7"/>
		<rect x="182.154" y="196" fill="#EB3D40" width="7" height="6"/>
		<rect x="182.154" y="189" fill="#EB3D40" width="7" height="7"/>
		<rect x="128.154" y="81" fill="#F7AC9F" width="7" height="8"/>
		<rect x="62.154" y="88" fill="#CE9189" width="32" height="20"/>
	</g>
</g>
<path fill="none" stroke="#856097" stroke-width="3" stroke-miterlimit="10" d="M228.809,122.408
	c5.824-5.279,14.824-4.837,20.103,0.987l0,0c5.278,5.825,4.836,14.825-0.988,20.104l-40.973,37.133
	c-5.824,5.278-14.825,4.837-20.103-0.988l0,0c-5.279-5.824-4.837-14.824,0.987-20.103L228.809,122.408z"/>
<g>
	<path opacity="0.2" fill="#393745" d="M99.154,34.9c0,8.892-7.208,16.1-16.1,16.1H56.254c-8.892,0-16.1-7.208-16.1-16.1V16.1
		c0-8.892,7.208-16.1,16.1-16.1h26.801c8.892,0,16.1,7.208,16.1,16.1V34.9z"/>
	<path fill="#856097" d="M95.154,37.9c0,8.892-7.208,16.1-16.1,16.1H52.254c-8.892,0-16.1-7.208-16.1-16.1V19.1
		c0-8.892,7.208-16.1,16.1-16.1h26.801c8.892,0,16.1,7.208,16.1,16.1V37.9z"/>
	<text transform="matrix(1 0 0 1 40.4873 44.8335)" fill="#F4D900" font-family="'PassionOne-Regular'" font-size="52.6094">50</text>
</g>
</svg>
