<?xml version="1.0" encoding="utf-8"?>
<!-- Generator: Adobe Illustrator 16.0.0, SVG Export Plug-In . SVG Version: 6.00 Build 0)  -->
<!DOCTYPE svg PUBLIC "-//W3C//DTD SVG 1.1//EN" "http://www.w3.org/Graphics/SVG/1.1/DTD/svg11.dtd">
<svg version="1.1" id="Capa_1" xmlns="http://www.w3.org/2000/svg" xmlns:xlink="http://www.w3.org/1999/xlink" x="0px" y="0px"
	 width="26.574px" height="26.573px" viewBox="0 0 26.574 26.573" enable-background="new 0 0 26.574 26.573" xml:space="preserve">
<g>
	<path fill="#FFFFFF" d="M26.574,4.428C26.574,2.102,24.473,0,22.145,0H4.429C2.101,0,0,2.102,0,4.428v17.717
		c0,2.326,2.101,4.429,4.429,4.429h8.858V16.535h-3.249v-4.43h3.249V10.38c0-2.976,2.235-5.655,4.983-5.655h3.579v4.429H18.27
		c-0.393,0-0.85,0.476-0.85,1.188v1.764h4.429v4.43H17.42v10.038h4.725c2.328,0,4.429-2.103,4.429-4.429V4.428z M26.574,4.428"/>
</g>
</svg>
