<?xml version="1.0" encoding="utf-8"?>
<!-- Generator: Adobe Illustrator 17.0.1, SVG Export Plug-In . SVG Version: 6.00 Build 0)  -->
<!DOCTYPE svg PUBLIC "-//W3C//DTD SVG 1.1//EN" "http://www.w3.org/Graphics/SVG/1.1/DTD/svg11.dtd">
<svg version="1.1" id="Capa_1" xmlns="http://www.w3.org/2000/svg" xmlns:xlink="http://www.w3.org/1999/xlink" x="0px" y="0px"
	 width="1293px" height="767px" viewBox="0 0 1293 767" enable-background="new 0 0 1293 767" xml:space="preserve">
<path fill="#FFFFFF" d="M1080.884,58.771c6.648-6.025,16.921-5.52,22.945,1.128l0,0c6.025,6.648,5.52,16.921-1.128,22.945
	l-46.765,42.383c-6.648,6.025-16.921,5.52-22.945-1.128l0,0c-6.025-6.648-5.52-16.921,1.128-22.945L1080.884,58.771z"/>
<path fill="#E2BF22" d="M797.485,44.983c3.88-3.516,9.875-3.221,13.392,0.658l0,0c3.516,3.88,3.221,9.875-0.658,13.392
	l-27.294,24.736c-3.88,3.516-9.875,3.221-13.392-0.658l0,0c-3.516-3.88-3.221-9.875,0.658-13.392L797.485,44.983z"/>
<path fill="#E2BF22" d="M328.31,114.828c5.065-4.59,12.891-4.205,17.481,0.859l0,0c4.59,5.065,4.205,12.891-0.859,17.481
	l-35.629,32.29c-5.065,4.59-12.891,4.205-17.481-0.859l0,0c-4.59-5.065-4.205-12.891,0.859-17.481L328.31,114.828z"/>
<path fill="#FFFFFF" d="M42.31,245.828c5.065-4.59,12.891-4.205,17.481,0.859l0,0c4.59,5.065,4.205,12.891-0.859,17.481
	l-35.629,32.29c-5.065,4.59-12.891,4.205-17.481-0.859l0,0c-4.59-5.065-4.205-12.891,0.859-17.481L42.31,245.828z"/>
<path fill="#FFFFFF" d="M1271.31,679.828c5.065-4.59,12.891-4.205,17.481,0.859l0,0c4.59,5.065,4.205,12.891-0.859,17.481
	l-35.629,32.29c-5.065,4.59-12.891,4.205-17.481-0.859l0,0c-4.59-5.065-4.205-12.891,0.859-17.481L1271.31,679.828z"/>
<path fill="#FFFFFF" d="M272.957,37.434c11.592-10.506,29.506-9.625,40.011,1.967l0,0c10.506,11.592,9.625,29.506-1.967,40.011
	l-81.548,73.906c-11.592,10.506-29.506,9.625-40.011-1.967l0,0c-10.506-11.592-9.625-29.506,1.967-40.011L272.957,37.434z"/>
<path fill="#E2BF22" d="M1153.957,576.434c11.592-10.506,29.506-9.625,40.011,1.967l0,0c10.506,11.592,9.625,29.506-1.967,40.011
	l-81.548,73.906c-11.592,10.506-29.506,9.625-40.011-1.967l0,0c-10.506-11.592-9.625-29.506,1.967-40.011L1153.957,576.434z"/>
<path fill="none" stroke="#805D90" stroke-width="3" stroke-miterlimit="10" d="M1155.748,634.786
	c6.18-5.601,15.731-5.132,21.332,1.049l0,0c5.601,6.18,5.132,15.731-1.049,21.332l-43.478,39.404
	c-6.18,5.601-15.731,5.132-21.332-1.049l0,0c-5.601-6.18-5.132-15.731,1.049-21.332L1155.748,634.786z"/>
<path fill="none" stroke="#FFFFFF" stroke-miterlimit="10" d="M1170.965,69.273c4.527-4.103,11.522-3.759,15.625,0.768l0,0
	c4.103,4.527,3.759,11.522-0.768,15.625l-31.846,28.861c-4.527,4.103-11.522,3.759-15.625-0.768l0,0
	c-4.103-4.527-3.759-11.522,0.768-15.625L1170.965,69.273z"/>
<path fill="none" stroke="#805D90" stroke-width="3" stroke-miterlimit="10" d="M237.749,47.267
	c5.387-4.882,13.711-4.473,18.593,0.914l0,0c4.882,5.387,4.473,13.711-0.914,18.593l-37.894,34.343
	c-5.387,4.882-13.711,4.473-18.593-0.914l0,0c-4.882-5.387-4.473-13.711,0.914-18.593L237.749,47.267z"/>
<circle fill="#E2BF22" cx="1092.463" cy="70.552" r="11.159"/>
<path fill="#FFFFFF" d="M847.933,761.114c-0.833,0.725-2.096,0.638-2.822-0.195l0,0c-0.725-0.833-0.638-2.096,0.195-2.822
	l68.946-60.083c0.833-0.725,2.096-0.638,2.822,0.195l0,0c0.725,0.833,0.638,2.096-0.195,2.822L847.933,761.114z"/>
<path opacity="0.2" fill="#393744" d="M967,736.999c0-10.493,8.507-19,19-19s19,8.507,19,19V767h31v-37.001
	c0-27.614-20.975-48.999-48.59-48.999h-2c-27.614,0-51.41,21.385-51.41,48.999V767h33V736.999z"/>
<path fill="#DB973E" d="M957,741.999c0-10.493,8.507-19,19-19s19,8.507,19,19V767h31v-32.001c0-27.614-21.975-49.999-49.59-49.999
	h-2c-27.614,0-50.41,22.385-50.41,49.999V767h33V741.999z"/>
<path fill="#F4EAE4" d="M995,741.999V767h11v-30.793c0-16.683-13.114-30.207-29.797-30.207h-0.585
	C958.934,706,945,719.524,945,736.207V767h12v-25.001c0-10.493,8.507-19,19-19S995,731.506,995,741.999z"/>
<g>
	<path opacity="0.2" fill="#393744" d="M411,19.999c0,10.493-8.507,19-19,19s-19-8.507-19-19V-1h-31v27.999
		C342,54.614,364.796,77,392.41,77h2C422.025,77,444,54.614,444,26.999V-1h-33V19.999z"/>
	<path fill="#DB973E" d="M402,23.999c0,10.493-8.507,19-19,19s-19-8.507-19-19V-1h-31v31.999C333,58.614,355.796,81,383.41,81h2
		C413.025,81,435,58.614,435,30.999V-1h-33V23.999z"/>
	<path fill="#F4EAE4" d="M364,23.999V-1h-11v30.792C353,46.475,366.934,60,383.618,60h0.585C400.886,60,414,46.475,414,29.792V-1
		h-12v24.999c0,10.493-8.507,19-19,19S364,34.493,364,23.999z"/>
</g>
</svg>
