<?xml version="1.0" encoding="utf-8"?>
<!-- Generator: Adobe Illustrator 17.0.1, SVG Export Plug-In . SVG Version: 6.00 Build 0)  -->
<!DOCTYPE svg PUBLIC "-//W3C//DTD SVG 1.1//EN" "http://www.w3.org/Graphics/SVG/1.1/DTD/svg11.dtd">
<svg version="1.1" id="Capa_1" xmlns="http://www.w3.org/2000/svg" xmlns:xlink="http://www.w3.org/1999/xlink" x="0px" y="0px"
	 width="1293px" height="767px" viewBox="0 0 1293 767" enable-background="new 0 0 1293 767" xml:space="preserve">
<g>
	<polygon opacity="0.2" fill="#393744" points="294.27,613 245.737,459.193 198.141,613 243,613 243,645 246,645 246,613 	"/>
	<g>
		<polygon fill="#5A9A68" points="285.066,619 188.937,619 236.533,465.193 		"/>
		<polygon fill="#B79D26" points="237.344,579.276 246.391,565 243.667,563.237 237,573.796 237,562.576 237.107,562.508 
			237,562.339 237,544.786 237.344,545.045 246.391,530.768 243.667,529.005 237,539.564 237,518 233,518 233,557.514 
			227.5,548.231 224.527,549.994 233,563.636 233,591.746 227.5,582.463 224.527,584.226 233,597.867 233,651 237,651 237,613.248 
			237.344,613.507 246.391,599.231 243.667,597.468 237,608.027 237,596.807 237.107,596.739 237,596.571 237,579.017 		"/>
	</g>
</g>
<polygon opacity="0.2" fill="#393744" points="1154.937,563 1069.613,200 985.937,563 1065,563 1065,637 1070,637 1070,563 "/>
<path fill="#E2BF22" d="M364.855,227.74c34.863-31.596,88.738-28.947,120.333,5.916l0,0c31.596,34.863,28.947,88.738-5.916,120.333
	l-245.254,222.27c-34.863,31.596-88.738,28.947-120.333-5.916l0,0c-31.596-34.863-28.947-88.738,5.916-120.333L364.855,227.74z"/>
<g>
	<polygon fill="#528D4B" points="1144.937,573 975.937,573 1059.613,210 	"/>
	<g>
		<rect x="1055" y="358" fill="#B79D26" width="5" height="289"/>
	</g>
	<g>
		
			<rect x="1065.258" y="381.183" transform="matrix(0.8438 0.5367 -0.5367 0.8438 381.1006 -510.7161)" fill="#B79D26" width="5" height="36.078"/>
	</g>
	<g>
		
			<rect x="1065.258" y="454.183" transform="matrix(0.8438 0.5367 -0.5367 0.8438 420.2814 -499.3104)" fill="#B79D26" width="5" height="36.078"/>
	</g>
	<g>
		
			<rect x="1065.258" y="527.183" transform="matrix(0.8438 0.5367 -0.5367 0.8438 459.4622 -487.9047)" fill="#B79D26" width="5" height="36.078"/>
	</g>
	<g>
		
			<rect x="1029.719" y="437.722" transform="matrix(0.5365 0.8439 -0.8439 0.5365 857.0826 -680.151)" fill="#B79D26" width="36.078" height="5"/>
	</g>
	<g>
		
			<rect x="1029.719" y="510.722" transform="matrix(0.5365 0.8439 -0.8439 0.5365 918.6853 -646.3186)" fill="#B79D26" width="36.078" height="5"/>
	</g>
</g>
<path fill="#E2BF22" d="M255.636,225.519c9.699-8.79,24.687-8.053,33.477,1.646l0,0c8.79,9.699,8.053,24.687-1.646,33.477
	l-68.231,61.837c-9.699,8.79-24.687,8.053-33.477-1.646l0,0c-8.79-9.699-8.053-24.687,1.646-33.477L255.636,225.519z"/>
<path fill="none" stroke="#FFFFFF" stroke-miterlimit="10" d="M186.618,250.223c7.557-6.849,19.236-6.275,26.086,1.282l0,0
	c6.849,7.557,6.275,19.236-1.282,26.086l-53.166,48.183c-7.557,6.849-19.236,6.275-26.086-1.282l0,0
	c-6.849-7.557-6.275-19.236,1.282-26.086L186.618,250.223z"/>
<path fill="none" stroke="#FFFFFF" stroke-miterlimit="10" d="M916.618-40.777c7.557-6.849,19.236-6.275,26.086,1.282l0,0
	c6.849,7.557,6.275,19.236-1.282,26.086l-53.166,48.183c-7.557,6.849-19.236,6.275-26.086-1.282l0,0
	c-6.849-7.557-6.275-19.236,1.282-26.086L916.618-40.777z"/>
<path fill="#FFFFFF" d="M1081.911,58.771c6.648-6.025,16.92-5.52,22.945,1.128l0,0c6.025,6.648,5.52,16.921-1.128,22.945
	l-46.765,42.383c-6.648,6.025-16.921,5.52-22.945-1.128l0,0c-6.025-6.648-5.52-16.921,1.128-22.945L1081.911,58.771z"/>
<path fill="#E2BF22" d="M853.512,3.983c3.88-3.516,9.875-3.221,13.392,0.658l0,0c3.516,3.88,3.221,9.875-0.658,13.392
	l-27.294,24.736c-3.88,3.516-9.875,3.221-13.392-0.658l0,0c-3.516-3.88-3.221-9.875,0.658-13.392L853.512,3.983z"/>
<path fill="#E2BF22" d="M1110.418,67.225c2.231-2.022,5.678-1.852,7.7,0.379l0,0c2.022,2.231,1.852,5.678-0.379,7.7l-15.694,14.223
	c-2.231,2.022-5.678,1.852-7.7-0.379l0,0c-2.022-2.231-1.852-5.678,0.379-7.7L1110.418,67.225z"/>
<path fill="#E2BF22" d="M503.337-7.172c5.065-4.59,12.891-4.205,17.481,0.859l0,0c4.59,5.065,4.205,12.891-0.859,17.481
	l-35.629,32.29c-5.065,4.59-12.891,4.205-17.481-0.859l0,0c-4.59-5.065-4.205-12.891,0.859-17.481L503.337-7.172z"/>
<path fill="#FFFFFF" d="M43.337,245.828c5.065-4.59,12.891-4.205,17.481,0.859l0,0c4.59,5.065,4.205,12.891-0.859,17.481
	l-35.629,32.29c-5.065,4.59-12.891,4.205-17.481-0.859l0,0c-4.59-5.065-4.205-12.891,0.859-17.481L43.337,245.828z"/>
<path fill="#FFFFFF" d="M1272.337,679.828c5.065-4.59,12.891-4.205,17.481,0.859l0,0c4.59,5.065,4.205,12.891-0.859,17.481
	l-35.629,32.29c-5.065,4.59-12.891,4.205-17.481-0.859l0,0c-4.59-5.065-4.205-12.891,0.859-17.481L1272.337,679.828z"/>
<path fill="#FFFFFF" d="M51.337,508.828c5.065-4.59,12.891-4.205,17.481,0.859l0,0c4.59,5.065,4.205,12.891-0.859,17.481
	l-35.629,32.29c-5.065,4.59-12.891,4.205-17.481-0.859l0,0c-4.59-5.065-4.205-12.891,0.859-17.481L51.337,508.828z"/>
<path fill="#FFFFFF" d="M233.983,37.434c11.592-10.506,29.506-9.625,40.011,1.967l0,0c10.506,11.592,9.625,29.506-1.967,40.011
	l-81.548,73.906c-11.592,10.506-29.506,9.625-40.011-1.967l0,0c-10.506-11.592-9.625-29.506,1.967-40.011L233.983,37.434z"/>
<path fill="#E2BF22" d="M1154.983,576.434c11.592-10.506,29.506-9.625,40.011,1.967l0,0c10.506,11.592,9.625,29.506-1.967,40.011
	l-81.548,73.906c-11.592,10.506-29.506,9.625-40.011-1.967l0,0c-10.506-11.592-9.625-29.506,1.967-40.011L1154.983,576.434z"/>
<path fill="none" stroke="#805D90" stroke-width="3" stroke-miterlimit="10" d="M1156.775,634.786
	c6.18-5.601,15.731-5.132,21.332,1.049l0,0c5.601,6.18,5.132,15.731-1.049,21.332l-43.478,39.404
	c-6.18,5.601-15.731,5.132-21.332-1.049l0,0c-5.601-6.18-5.132-15.731,1.049-21.332L1156.775,634.786z"/>
<path fill="none" stroke="#805D90" stroke-width="3" stroke-miterlimit="10" d="M97.775,484.786
	c6.18-5.601,15.731-5.132,21.332,1.049l0,0c5.601,6.18,5.132,15.731-1.049,21.332l-43.478,39.403
	c-6.18,5.601-15.731,5.132-21.332-1.049l0,0c-5.601-6.18-5.132-15.731,1.049-21.332L97.775,484.786z"/>
<path fill="none" stroke="#FFFFFF" stroke-miterlimit="10" d="M1171.992,69.273c4.527-4.103,11.522-3.759,15.625,0.768l0,0
	c4.103,4.527,3.759,11.522-0.768,15.625l-31.846,28.861c-4.527,4.103-11.522,3.759-15.625-0.768l0,0
	c-4.103-4.527-3.759-11.522,0.768-15.625L1171.992,69.273z"/>
<path fill="none" stroke="#805D90" stroke-width="3" stroke-miterlimit="10" d="M198.775,47.267
	c5.387-4.882,13.711-4.473,18.593,0.914l0,0c4.882,5.387,4.473,13.711-0.914,18.593l-37.894,34.343
	c-5.387,4.882-13.711,4.473-18.593-0.914l0,0c-4.882-5.387-4.473-13.711,0.914-18.593L198.775,47.267z"/>
<path fill="#E2BF22" d="M949.901,272.861l-5.076,4.503c-5.038,4.566-12.824,4.183-17.391-0.855l0,0
	c-4.566-5.038-4.183-12.824,0.855-17.391l70.769-62.772c5.038-4.566,12.824-4.183,17.391,0.855l0,0
	c4.566,5.038,4.183,12.824-0.855,17.391c0,0-23.745,22.263-33.699,32.217c-9.954,9.954,4.266,29.15,19.084,17.578
	c30.685-25.399,52.285-20.424,68.37-2.676l0,0c16.085,17.748,14.737,45.175-3.012,61.26L941.482,436.126
	c-17.748,16.085-45.175,14.737-61.26-3.012l0,0c-16.085-17.748-14.737-45.175,3.012-61.26l67.379-63.19"/>
<g>
	<polygon opacity="0.2" fill="#393744" points="261.871,702 179.671,441.502 99.06,702 175,702 175,757 180,757 180,702 	"/>
	<g>
		<polygon fill="#5A9A68" points="246.283,712 83.471,712 164.083,451.502 		"/>
		<polygon fill="#B79D26" points="165.52,645.539 180.811,621.359 176.244,618.373 165,636.257 165,617.253 165.181,617.138 
			165,616.853 165,587.123 165.52,587.562 180.811,563.382 176.244,560.396 165,578.279 165,542 159,542 159,608.681 
			149.235,592.959 144.425,595.944 159,619.049 159,666.658 149.235,650.936 144.425,653.922 159,677.026 159,767 165,767 
			165,703.076 165.52,703.515 180.811,679.335 176.244,676.349 165,694.233 165,675.231 165.181,675.115 165,674.83 165,645.1 		"/>
	</g>
</g>
<g>
	<path opacity="0.2" fill="#393744" d="M46,736.999c0-10.493,8.507-19,19-19s19,8.507,19,19V767h31v-37.001
		C115,702.385,94.051,681,66.437,681h-2C36.823,681,13,702.385,13,729.999V767h33V736.999z"/>
	<path fill="#DB973E" d="M36,741.999c0-10.493,8.507-19,19-19s19,8.507,19,19V767h31v-32.001C105,707.385,83.051,685,55.437,685h-2
		C25.823,685,3,707.385,3,734.999V767h33V741.999z"/>
</g>
<path fill="#F4EAE4" d="M74,741.999V767h11v-30.793C85,719.524,71.913,706,55.23,706h-0.585C37.961,706,24,719.524,24,736.207V767
	h12v-25.001c0-10.493,8.507-19,19-19S74,731.506,74,741.999z"/>
<g>
	<path opacity="0.2" fill="#393744" d="M384,19.999c0,10.493-8.507,19-19,19s-19-8.507-19-19V-1h-31v27.999
		C315,54.614,337.823,77,365.437,77h2C395.051,77,417,54.614,417,26.999V-1h-33V19.999z"/>
	<path fill="#DB973E" d="M375,23.999c0,10.493-8.507,19-19,19s-19-8.507-19-19V-1h-31v31.999C306,58.614,328.823,81,356.437,81h2
		C386.051,81,408,58.614,408,30.999V-1h-33V23.999z"/>
	<path fill="#F4EAE4" d="M337,23.999V-1h-11v30.792C326,46.475,339.961,60,356.644,60h0.585C373.913,60,387,46.475,387,29.792V-1
		h-12v24.999c0,10.493-8.507,19-19,19S337,34.493,337,23.999z"/>
</g>
</svg>
