<?xml version="1.0" encoding="utf-8"?>
<!-- Generator: Adobe Illustrator 16.0.0, SVG Export Plug-In . SVG Version: 6.00 Build 0)  -->
<!DOCTYPE svg PUBLIC "-//W3C//DTD SVG 1.1//EN" "http://www.w3.org/Graphics/SVG/1.1/DTD/svg11.dtd">
<svg version="1.1" id="Capa_1" xmlns="http://www.w3.org/2000/svg" xmlns:xlink="http://www.w3.org/1999/xlink" x="0px" y="0px"
	 width="1293px" height="767px" viewBox="0 0 1293 767" enable-background="new 0 0 1293 767" xml:space="preserve">
<path fill="#FFFFFF" d="M1080.884,58.771c6.648-6.025,16.921-5.52,22.945,1.128l0,0c6.025,6.648,5.52,16.921-1.128,22.945
	l-46.766,42.383c-6.647,6.025-16.921,5.52-22.944-1.128l0,0c-6.025-6.648-5.521-16.921,1.128-22.945L1080.884,58.771z"/>
<path fill="#E2BF22" d="M797.485,44.983c3.88-3.516,9.875-3.221,13.392,0.658l0,0c3.516,3.88,3.221,9.875-0.658,13.392
	l-27.294,24.736c-3.88,3.516-9.875,3.221-13.392-0.658l0,0c-3.517-3.88-3.222-9.875,0.658-13.392L797.485,44.983z"/>
<path fill="#E2BF22" d="M328.31,114.828c5.065-4.59,12.891-4.205,17.481,0.859l0,0c4.59,5.065,4.205,12.891-0.859,17.481
	l-35.629,32.29c-5.065,4.59-12.891,4.205-17.481-0.859l0,0c-4.59-5.065-4.205-12.891,0.859-17.481L328.31,114.828z"/>
<path fill="#FFFFFF" d="M42.31,245.828c5.065-4.59,12.891-4.205,17.481,0.859l0,0c4.59,5.065,4.205,12.891-0.859,17.481
	l-35.629,32.29c-5.065,4.59-12.891,4.205-17.481-0.859l0,0c-4.59-5.065-4.205-12.891,0.859-17.481L42.31,245.828z"/>
<path fill="#FFFFFF" d="M1271.31,679.828c5.065-4.59,12.892-4.205,17.481,0.859l0,0c4.59,5.064,4.205,12.891-0.859,17.48
	l-35.629,32.29c-5.064,4.59-12.891,4.205-17.48-0.859l0,0c-4.59-5.064-4.205-12.891,0.858-17.48L1271.31,679.828z"/>
<path fill="#FFFFFF" d="M272.957,37.434c11.592-10.506,29.506-9.625,40.011,1.967l0,0c10.506,11.592,9.625,29.506-1.967,40.011
	l-81.548,73.906c-11.592,10.506-29.506,9.625-40.011-1.967l0,0c-10.506-11.592-9.625-29.506,1.967-40.011L272.957,37.434z"/>
<path fill="#E2BF22" d="M1153.957,576.434c11.592-10.506,29.506-9.625,40.011,1.968l0,0c10.506,11.592,9.625,29.506-1.967,40.011
	l-81.548,73.906c-11.592,10.506-29.506,9.625-40.011-1.968l0,0c-10.506-11.592-9.625-29.506,1.967-40.011L1153.957,576.434z"/>
<path fill="none" stroke="#805D90" stroke-width="3" stroke-miterlimit="10" d="M1155.748,634.786
	c6.18-5.602,15.731-5.132,21.332,1.049l0,0c5.601,6.18,5.132,15.731-1.049,21.332l-43.479,39.404
	c-6.18,5.601-15.73,5.132-21.332-1.05l0,0c-5.601-6.18-5.132-15.73,1.05-21.332L1155.748,634.786z"/>
<path fill="none" stroke="#FFFFFF" stroke-miterlimit="10" d="M1170.965,69.273c4.527-4.103,11.522-3.759,15.625,0.768l0,0
	c4.104,4.527,3.759,11.522-0.768,15.625l-31.847,28.861c-4.526,4.103-11.521,3.759-15.625-0.768l0,0
	c-4.103-4.527-3.759-11.522,0.769-15.625L1170.965,69.273z"/>
<path fill="none" stroke="#805D90" stroke-width="3" stroke-miterlimit="10" d="M237.749,47.267
	c5.387-4.882,13.711-4.473,18.593,0.914l0,0c4.882,5.387,4.473,13.711-0.914,18.593l-37.894,34.343
	c-5.387,4.882-13.711,4.473-18.593-0.914l0,0c-4.882-5.387-4.473-13.711,0.914-18.593L237.749,47.267z"/>
<circle fill="#E2BF22" cx="1092.463" cy="70.552" r="11.159"/>
<path fill="#FFFFFF" d="M847.933,761.114c-0.833,0.725-2.096,0.638-2.821-0.195l0,0c-0.726-0.833-0.639-2.096,0.194-2.822
	l68.946-60.083c0.833-0.725,2.096-0.638,2.822,0.195l0,0c0.725,0.833,0.638,2.096-0.195,2.822L847.933,761.114z"/>
</svg>
