<?xml version="1.0" encoding="utf-8"?>
<!-- Generator: Adobe Illustrator 17.0.1, SVG Export Plug-In . SVG Version: 6.00 Build 0)  -->
<!DOCTYPE svg PUBLIC "-//W3C//DTD SVG 1.1//EN" "http://www.w3.org/Graphics/SVG/1.1/DTD/svg11.dtd">
<svg version="1.1" id="Capa_1" xmlns="http://www.w3.org/2000/svg" xmlns:xlink="http://www.w3.org/1999/xlink" x="0px" y="0px"
	 width="2705.65px" height="984px" viewBox="0 0 2705.65 984" enable-background="new 0 0 2705.65 984" xml:space="preserve">
<g>
	<path fill="#5A9A68" d="M553.687,419.607c-34.386,34.386-75.439,51.319-123.679,51.319H286.832V119.914h143.177
		c48.24,0,89.293,17.447,123.679,51.827c34.38,34.386,51.827,75.439,51.827,123.679S588.068,385.227,553.687,419.607z
		 M496.724,295.934c0-16.939-6.159-32.335-18.476-46.189c-11.803-13.854-28.228-20.526-48.24-20.526h-34.38V362.13h10.774
		c25.148,0.514,50.291,1.028,70.817-19.498C491.08,328.778,496.724,312.353,496.724,295.934z"/>
	<path fill="#5A9A68" d="M880.077,350.327h-149.85v11.803H838.51v108.797H620.923V119.914H838.51v109.305H730.228v11.803h149.85
		V350.327z"/>
	<path fill="#5A9A68" d="M1102.807,376.504c-6.673,23.092-19.504,43.618-37.465,62.094c-29.764,29.764-65.173,44.646-107.254,44.646
		c-41.567,0-76.976-14.882-106.74-44.646l77.49-77.49c8.209,8.209,17.961,12.317,29.25,12.317c11.803,0,21.555-4.108,29.764-12.317
		c7.695-8.209,11.803-17.961,11.803-29.25c0-14.374-2.051-43.11-55.935-52.862c-54.398-9.238-70.817-51.827-70.817-74.411
		c0-47.211,37.974-85.185,85.185-85.185h95.965v95.965c4.102,3.079,7.695,6.159,10.774,9.746
		c29.764,29.764,44.646,65.173,44.646,106.746C1109.474,347.248,1107.423,362.13,1102.807,376.504z"/>
	<path fill="#5A9A68" d="M1389.172,470.926l-18.476-30.278h-158.573l-17.447,30.278h-126.244l223.232-386.935l223.232,386.935
		H1389.172z M1308.089,331.343l-16.425-28.742l-16.419,28.742H1308.089z"/>
	<path fill="#5A9A68" d="M1774.074,349.819h-149.849v121.108h-109.305V119.4h217.587v109.305h-108.282v11.803h149.849V349.819z"/>
	<path fill="#5A9A68" d="M2233.895,427.817c-36.437,36.437-80.569,54.913-132.402,54.913s-95.965-18.476-132.911-54.913
		c-36.437-36.945-54.912-81.077-54.912-132.911s18.475-95.965,54.912-132.402c36.945-36.945,81.077-55.421,132.911-55.421
		s95.966,18.476,132.402,55.421c36.945,36.437,55.421,80.569,55.421,132.402S2270.84,390.871,2233.895,427.817z M2156.919,239.485
		c-15.396-15.396-33.872-23.097-55.427-23.097c-22.069,0-40.539,7.701-55.935,23.097c-15.396,15.39-23.091,33.866-23.091,55.421
		c0,22.069,7.695,40.539,23.091,55.935c15.396,15.396,33.866,23.092,55.935,23.092c21.555,0,40.031-7.695,55.427-23.092
		c15.905-15.396,23.606-33.866,23.606-55.935C2180.525,273.351,2172.823,254.876,2156.919,239.485z"/>
	<path fill="#5A9A68" d="M369.446,977.876L125.168,784.408V935.28H15.863V559.634l244.272,192.953V583.754h109.311V977.876z"/>
	<path fill="#5A9A68" d="M690.706,935.28l-18.476-30.278H513.657L496.21,935.28H369.966l223.232-386.935L816.429,935.28H690.706z
		 M609.622,795.697l-16.425-28.742l-16.419,28.742H609.622z"/>
	<path fill="#5A9A68" d="M1082.274,583.754L867.252,956.835L652.23,583.754h125.73l89.293,154.98l88.779-154.98H1082.274z"/>
	<path fill="#5A9A68" d="M1191.089,935.28h-108.797V583.754h108.797V935.28z"/>
	<path fill="#5A9A68" d="M1473.341,883.961c-34.386,34.386-75.439,51.319-123.679,51.319h-143.177V584.268h143.177
		c48.24,0,89.293,17.447,123.679,51.827c34.38,34.386,51.827,75.439,51.827,123.679S1507.721,849.581,1473.341,883.961z
		 M1416.377,760.288c0-16.939-6.159-32.335-18.476-46.189c-11.803-13.854-28.228-20.526-48.24-20.526h-34.38v132.911h10.775
		c25.148,0.514,50.291,1.028,70.817-19.498C1410.733,793.132,1416.377,776.707,1416.377,760.288z"/>
	<path fill="#5A9A68" d="M1799.731,814.681h-149.85v11.803h108.282V935.28h-217.587V584.268h217.587v109.305h-108.282v11.803h149.85
		V814.681z"/>
	<path fill="#5A9A68" d="M2168.716,977.876l-244.278-193.467V935.28h-109.305V559.634l244.272,192.953V583.754h109.311V977.876z
		 M2059.919,564.25l-4.107,3.594c-12.311,11.803-25.657,22.577-44.646,22.577c-12.317,0-23.091-5.644-33.866-10.26
		c-2.057-1.543-5.136-2.051-7.187-3.593c-5.644-2.565-11.289-5.13-16.933-6.673c-2.565-0.508-6.159-1.022-8.724-1.022
		c-4.622,0-9.238,0.514-13.86,4.102c-4.102,2.565-7.181,6.673-10.774,10.78l-0.514,0.514l-5.644,6.153l-17.447-32.329
		c10.774-15.905,27.713-29.764,48.754-29.764h4.102c1.543,0,2.565,0.514,4.108,0.514c9.746,1.543,18.476,6.159,27.199,10.266
		l0.508,0.514c8.729,4.102,16.939,8.209,26.691,10.26c2.051,0.514,3.588,0.514,5.13,0.514c12.317,0,22.577-8.724,28.736-16.933
		l2.057-2.571L2059.919,564.25z"/>
	<path fill="#5A9A68" d="M2504.858,892.171c-36.437,36.437-80.569,54.913-132.403,54.913c-51.833,0-95.965-18.476-132.91-54.913
		c-36.437-36.945-54.913-81.077-54.913-132.911c0-51.833,18.476-95.965,54.913-132.402c36.945-36.945,81.077-55.421,132.91-55.421
		c51.833,0,95.966,18.476,132.403,55.421c36.945,36.437,55.421,80.569,55.421,132.402
		C2560.279,811.093,2541.803,855.225,2504.858,892.171z M2427.882,703.839c-15.396-15.396-33.872-23.097-55.427-23.097
		c-22.069,0-40.539,7.701-55.935,23.097c-15.396,15.39-23.092,33.866-23.092,55.421c0,22.069,7.695,40.539,23.092,55.935
		c15.396,15.396,33.866,23.091,55.935,23.091c21.555,0,40.031-7.695,55.427-23.091c15.905-15.396,23.606-33.866,23.606-55.935
		C2451.488,737.705,2443.787,719.23,2427.882,703.839z"/>
	<rect x="1790.004" y="121.588" fill="#5A9A68" width="108.449" height="350.412"/>
	<polygon fill="#5A9A68" points="1955.235,79.641 1843.205,114.938 1837.067,94.987 1935.796,16.72 	"/>
</g>
</svg>
