<?xml version="1.0" encoding="utf-8"?>
<!-- Generator: Adobe Illustrator 17.0.1, SVG Export Plug-In . SVG Version: 6.00 Build 0)  -->
<!DOCTYPE svg PUBLIC "-//W3C//DTD SVG 1.1//EN" "http://www.w3.org/Graphics/SVG/1.1/DTD/svg11.dtd">
<svg version="1.1" id="Capa_1" xmlns="http://www.w3.org/2000/svg" xmlns:xlink="http://www.w3.org/1999/xlink" x="0px" y="0px"
	 width="422px" height="148px" viewBox="0 0 422 148" enable-background="new 0 0 422 148" xml:space="preserve">
<g>
	<path fill="#5A9A68" d="M90.449,55.454c-5.682,5.682-12.465,8.479-20.436,8.479H46.356V5.936h23.657
		c7.971,0,14.754,2.883,20.436,8.563c5.681,5.682,8.563,12.465,8.563,20.436S96.13,49.773,90.449,55.454z M81.037,35.02
		c0-2.799-1.018-5.343-3.053-7.632c-1.95-2.289-4.664-3.392-7.971-3.392h-5.681v21.961h1.78c4.155,0.085,8.31,0.17,11.701-3.222
		C80.104,40.446,81.037,37.732,81.037,35.02z"/>
	<path fill="#5A9A68" d="M144.379,44.007h-24.76v1.95h17.892v17.977h-35.952V5.936h35.952v18.061h-17.892v1.95h24.76V44.007z"/>
	<path fill="#5A9A68" d="M181.181,48.332c-1.103,3.815-3.223,7.207-6.19,10.26c-4.918,4.918-10.769,7.377-17.722,7.377
		c-6.868,0-12.719-2.459-17.637-7.377l12.804-12.804c1.356,1.356,2.968,2.035,4.833,2.035c1.95,0,3.562-0.679,4.918-2.035
		c1.271-1.356,1.95-2.968,1.95-4.833c0-2.375-0.339-7.123-9.242-8.734c-8.988-1.526-11.701-8.563-11.701-12.295
		c0-7.801,6.274-14.075,14.075-14.075h15.856v15.856c0.678,0.509,1.271,1.018,1.78,1.61c4.918,4.918,7.377,10.769,7.377,17.638
		C182.282,43.498,181.943,45.957,181.181,48.332z"/>
	<path fill="#5A9A68" d="M228.497,63.934l-3.053-5.003h-26.201l-2.883,5.003h-20.859L212.386,0l36.885,63.934H228.497z M215.1,40.87
		l-2.714-4.749l-2.713,4.749H215.1z"/>
	<path fill="#5A9A68" d="M292.095,43.923h-24.76v20.011h-18.061V5.851h35.952v18.061h-17.892v1.95h24.76V43.923z"/>
	<path fill="#5A9A68" d="M312.616,63.934H294.64V5.851h17.977V63.934z"/>
	<path fill="#5A9A68" d="M368.071,56.811c-6.021,6.021-13.313,9.073-21.877,9.073s-15.856-3.053-21.961-9.073
		c-6.021-6.104-9.073-13.396-9.073-21.961s3.053-15.856,9.073-21.877c6.104-6.104,13.396-9.157,21.961-9.157
		s15.856,3.053,21.877,9.157c6.104,6.021,9.157,13.313,9.157,21.877S374.176,50.706,368.071,56.811z M355.353,25.692
		c-2.544-2.544-5.597-3.816-9.158-3.816c-3.646,0-6.698,1.272-9.242,3.816c-2.544,2.543-3.815,5.596-3.815,9.157
		c0,3.646,1.271,6.698,3.815,9.242s5.596,3.815,9.242,3.815c3.562,0,6.614-1.271,9.158-3.815c2.628-2.544,3.9-5.596,3.9-9.242
		C359.253,31.288,357.98,28.235,355.353,25.692z"/>
	<path fill="#5A9A68" d="M60.007,147.697L19.645,115.73v24.929H1.584V78.591l40.361,31.882V82.576h18.062V147.697z"/>
	<path fill="#5A9A68" d="M113.089,140.659l-3.053-5.003H83.835l-2.883,5.003H60.093l36.885-63.934l36.885,63.934H113.089z
		 M99.691,117.596l-2.714-4.749l-2.713,4.749H99.691z"/>
	<path fill="#5A9A68" d="M177.788,82.576l-35.528,61.645l-35.528-61.645h20.774l14.754,25.607l14.669-25.607H177.788z"/>
	<path fill="#5A9A68" d="M195.768,140.659h-17.977V82.576h17.977V140.659z"/>
	<path fill="#5A9A68" d="M242.404,132.18c-5.682,5.682-12.465,8.479-20.436,8.479h-23.657V82.661h23.657
		c7.971,0,14.754,2.883,20.436,8.563c5.681,5.682,8.563,12.465,8.563,20.436S248.085,126.499,242.404,132.18z M232.992,111.745
		c0-2.799-1.018-5.343-3.053-7.632c-1.95-2.289-4.664-3.392-7.971-3.392h-5.681v21.961h1.78c4.155,0.085,8.31,0.17,11.701-3.222
		C232.06,117.172,232.992,114.458,232.992,111.745z"/>
	<path fill="#5A9A68" d="M296.334,120.732h-24.76v1.95h17.892v17.977h-35.952V82.661h35.952v18.061h-17.892v1.95h24.76V120.732z"/>
	<path fill="#5A9A68" d="M357.302,147.697l-40.362-31.967v24.929h-18.061V78.591l40.361,31.882V82.576h18.062V147.697z
		 M339.325,79.354l-0.679,0.594c-2.034,1.95-4.239,3.73-7.377,3.73c-2.035,0-3.815-0.933-5.596-1.695
		c-0.34-0.255-0.849-0.339-1.188-0.594c-0.933-0.424-1.865-0.848-2.798-1.103c-0.424-0.084-1.018-0.169-1.441-0.169
		c-0.764,0-1.526,0.085-2.29,0.678c-0.678,0.424-1.187,1.103-1.78,1.781l-0.085,0.085l-0.933,1.017l-2.883-5.342
		c1.78-2.628,4.579-4.918,8.056-4.918h0.678c0.255,0,0.424,0.085,0.679,0.085c1.61,0.255,3.053,1.018,4.494,1.696l0.084,0.085
		c1.442,0.678,2.799,1.356,4.41,1.695c0.339,0.085,0.593,0.085,0.848,0.085c2.035,0,3.73-1.441,4.748-2.798l0.34-0.425
		L339.325,79.354z"/>
	<path fill="#5A9A68" d="M412.843,133.536c-6.021,6.021-13.313,9.073-21.877,9.073s-15.856-3.053-21.961-9.073
		c-6.021-6.104-9.073-13.396-9.073-21.961s3.053-15.856,9.073-21.877c6.104-6.104,13.396-9.157,21.961-9.157
		s15.856,3.053,21.877,9.157c6.104,6.021,9.157,13.313,9.157,21.877S418.947,127.432,412.843,133.536z M400.124,102.418
		c-2.544-2.544-5.597-3.816-9.158-3.816c-3.646,0-6.698,1.272-9.242,3.816c-2.544,2.543-3.815,5.596-3.815,9.157
		c0,3.646,1.271,6.698,3.815,9.242s5.596,3.815,9.242,3.815c3.562,0,6.614-1.271,9.158-3.815c2.628-2.544,3.9-5.596,3.9-9.242
		C404.024,108.014,402.752,104.961,400.124,102.418z"/>
</g>
</svg>
