<?xml version="1.0" encoding="utf-8"?>
<!-- Generator: Adobe Illustrator 17.0.1, SVG Export Plug-In . SVG Version: 6.00 Build 0)  -->
<!DOCTYPE svg PUBLIC "-//W3C//DTD SVG 1.1//EN" "http://www.w3.org/Graphics/SVG/1.1/DTD/svg11.dtd">
<svg version="1.1" id="Capa_1" xmlns="http://www.w3.org/2000/svg" xmlns:xlink="http://www.w3.org/1999/xlink" x="0px" y="0px"
	 width="239px" height="143.5px" viewBox="0 -11.5 239 143.5" enable-background="new 0 -11.5 239 143.5" xml:space="preserve">
<g opacity="0.3">
	<path fill="#211915" d="M226.478,92.131c-6.582-4.942-15.34-4.899-21.803-0.546l-3.465-2.602l-1.552,2.067
		c-0.4-0.609-0.923-1.182-1.563-1.662c-1.084-0.814-2.35-1.281-3.472-1.281c-0.983,0-1.793,0.357-2.28,1.006
		c-0.544,0.725-0.626,1.709-0.23,2.771c0.367,0.985,1.113,1.936,2.099,2.677c0.638,0.479,1.338,0.82,2.035,1.034l-1.357,1.807
		l3.046,2.287c-3.399,7.809-1.161,17.204,5.947,22.541c8.312,6.24,20.108,4.561,26.348-3.751
		C236.469,110.168,234.79,98.371,226.478,92.131z M196.905,94.717c-0.694-0.146-1.435-0.461-2.094-0.956
		c-0.835-0.627-1.461-1.418-1.763-2.226c-0.272-0.731-0.239-1.378,0.093-1.821c0.293-0.391,0.819-0.606,1.48-0.606
		c0.91,0,1.957,0.394,2.872,1.081c0.659,0.494,1.18,1.091,1.521,1.718L196.905,94.717z"/>
	<path fill="#211915" d="M156.202,6.174l-1.513-1.18c0.585-0.427,1.139-0.961,1.625-1.584c1.957-2.509,2.167-5.506,0.48-6.823
		C156.3-3.796,155.674-4,154.984-4c-1.587,0-3.384,1.041-4.69,2.716c-0.484,0.621-0.862,1.289-1.134,1.966L147.9-0.3l-2.444,3.134
		c-9.975-4.732-22.24-2.108-29.311,6.961c-8.184,10.495-6.311,25.637,4.184,33.821c10.495,8.184,25.637,6.311,33.821-4.184
		c7.071-9.068,6.628-21.602-0.392-30.123L156.202,6.174z M149.99,1.33c0.238-0.682,0.598-1.366,1.092-1.999
		C152.186-2.085,153.718-3,154.984-3c0.472,0,0.874,0.127,1.194,0.376c1.204,0.939,0.905,3.421-0.653,5.419
		c-0.492,0.631-1.07,1.154-1.67,1.549L149.99,1.33z"/>
	<path fill="#211915" d="M132.999,83.618l-30.714-12.162c-1.607-0.636-3.325-1.199-5.106-1.675c-1.704-0.456-3.495-0.84-5.323-1.144
		c-1.773-0.294-3.612-0.517-5.468-0.664c-4.012-0.32-8.25-0.285-12.331,0.101c-1.959,0.186-3.892,0.469-5.781,0.813l-47.13-24.222
		c-5.173-2.658-11.519-0.619-14.176,4.551c-2.658,5.171-0.62,11.518,4.551,14.176L44.944,80.57
		c-2.102,2.657-3.331,5.631-3.566,8.674c-0.286,3.712,0.88,7.352,3.373,10.523c2.17,2.762,5.307,5.122,9.326,7.017l32.337,15.228
		c0.966,0.454,1.983,0.67,2.985,0.67c2.634,0,5.158-1.489,6.354-4.03c1.652-3.507,0.147-7.688-3.359-9.34L70.518,99.01l6.737-3.636
		c0.412,0.329,0.855,0.628,1.351,0.865l31.864,15.226c0.977,0.466,2.006,0.687,3.021,0.687c2.62,0,5.133-1.474,6.337-3.994
		c1.672-3.497,0.191-7.687-3.306-9.359l-24.193-11.56l4.946-2.669l30.557,12.1c3.605,1.429,7.682-0.336,9.11-3.941
		C138.367,89.125,136.603,85.046,132.999,83.618z"/>
</g>
<path fill="#805D90" d="M222.219,97.131c-6.582-4.942-15.34-4.899-21.803-0.546l-3.465-2.602l-1.552,2.067
	c-0.4-0.609-0.923-1.182-1.563-1.662c-1.084-0.814-2.35-1.281-3.472-1.281c-0.983,0-1.793,0.357-2.28,1.006
	c-0.544,0.725-0.626,1.709-0.23,2.771c0.367,0.985,1.113,1.936,2.099,2.677c0.638,0.479,1.338,0.82,2.035,1.034l-1.357,1.807
	l3.046,2.287c-3.399,7.809-1.161,17.204,5.947,22.541c8.312,6.24,20.108,4.561,26.348-3.751
	C232.21,115.168,230.531,103.371,222.219,97.131z M190.552,98.761c-0.835-0.627-1.461-1.418-1.763-2.226
	c-0.272-0.731-0.239-1.378,0.093-1.821c0.293-0.391,0.819-0.606,1.48-0.606c0.91,0,1.957,0.394,2.872,1.081
	c0.659,0.494,1.18,1.091,1.521,1.718l-2.109,2.81C191.952,99.571,191.211,99.256,190.552,98.761z"/>
<path fill="#E2BF22" d="M149.499,14.309l2.444-3.135l-1.513-1.18c0.585-0.427,1.139-0.961,1.625-1.584
	c1.957-2.509,2.167-5.506,0.48-6.823C152.041,1.204,151.415,1,150.725,1c-1.587,0-3.384,1.041-4.69,2.716
	c-0.484,0.621-0.862,1.289-1.134,1.966l-1.26-0.982l-2.444,3.134c-9.975-4.732-22.24-2.108-29.311,6.961
	c-8.184,10.495-6.311,25.637,4.184,33.821s25.637,6.311,33.821-4.184C156.962,35.364,156.519,22.83,149.499,14.309z M146.823,4.331
	C147.927,2.915,149.459,2,150.725,2c0.472,0,0.874,0.127,1.194,0.376c1.204,0.939,0.905,3.421-0.653,5.419
	c-0.492,0.631-1.07,1.154-1.67,1.549l-3.865-3.014C145.969,5.648,146.329,4.964,146.823,4.331z"/>
<g>
	<path fill="#5A9A68" d="M128.74,88.618L98.026,76.456c-1.607-0.636-3.325-1.199-5.106-1.675c-1.704-0.456-3.495-0.84-5.323-1.144
		c-1.773-0.294-3.612-0.517-5.468-0.664c-4.012-0.32-8.25-0.285-12.331,0.101c-1.959,0.186-3.892,0.469-5.781,0.813l-47.13-24.222
		c-5.173-2.658-11.519-0.619-14.176,4.551c-2.658,5.171-0.62,11.518,4.551,14.176L40.685,85.57
		c-2.102,2.657-3.331,5.631-3.566,8.674c-0.286,3.712,0.88,7.352,3.373,10.523c2.17,2.762,5.307,5.122,9.326,7.017l32.337,15.228
		c0.966,0.454,1.983,0.67,2.985,0.67c2.634,0,5.158-1.489,6.354-4.03c1.652-3.507,0.147-7.688-3.359-9.34L66.259,104.01l6.737-3.636
		c0.412,0.329,0.855,0.628,1.351,0.865l31.864,15.226c0.977,0.466,2.006,0.687,3.021,0.687c2.62,0,5.133-1.474,6.337-3.994
		c1.672-3.497,0.191-7.687-3.306-9.359L88.07,92.239l4.946-2.669l30.557,12.1c3.605,1.429,7.682-0.336,9.11-3.941
		C134.108,94.125,132.344,90.046,128.74,88.618z"/>
</g>
</svg>
