<?xml version="1.0" encoding="utf-8"?>
<!-- Generator: Adobe Illustrator 17.0.1, SVG Export Plug-In . SVG Version: 6.00 Build 0)  -->
<!DOCTYPE svg PUBLIC "-//W3C//DTD SVG 1.1//EN" "http://www.w3.org/Graphics/SVG/1.1/DTD/svg11.dtd">
<svg version="1.1" id="Capa_1" xmlns="http://www.w3.org/2000/svg" xmlns:xlink="http://www.w3.org/1999/xlink" x="0px" y="0px"
	 width="371px" height="297.667px" viewBox="0 0 371 297.667" enable-background="new 0 0 371 297.667" xml:space="preserve">
<path opacity="0.3" fill="#211915" d="M251,96.53c0,36.599-30.298,66.268-67,66.268s-67-29.669-67-66.268V0H9v120.944
	c0,96.313,77.382,174.389,173.966,174.389h6.995c96.584,0,176.039-78.076,176.039-174.389V0H251V96.53z"/>
<path opacity="0.3" fill="#211915" d="M114,93.53V6.333H77v107.4c0,58.187,45.34,105.6,103.691,105.6h2.048
	c58.351,0,107.261-47.412,107.261-105.6V6.333h-42V93.53c0,36.599-30.298,66.268-67,66.268S114,130.129,114,93.53z"/>
<g>
	<path fill="#DB973E" d="M242,87.53c0,36.599-30.298,66.268-67,66.268s-67-29.669-67-66.268V0.333H0v111.611
		c0,96.313,77.382,174.389,173.966,174.389h6.995c96.584,0,176.039-78.076,176.039-174.389V0.333H242V87.53z"/>
	<path fill="#F4EAE4" d="M108,87.53V0.333H71v107.4c0,58.187,45.34,105.6,103.691,105.6h2.048
		c58.351,0,107.261-47.412,107.261-105.6V0.333h-42V87.53c0,36.599-30.298,66.268-67,66.268S108,124.129,108,87.53z"/>
</g>
</svg>
