<?xml version="1.0" encoding="utf-8"?>
<!-- Generator: Adobe Illustrator 17.0.1, SVG Export Plug-In . SVG Version: 6.00 Build 0)  -->
<!DOCTYPE svg PUBLIC "-//W3C//DTD SVG 1.1//EN" "http://www.w3.org/Graphics/SVG/1.1/DTD/svg11.dtd">
<svg version="1.1" id="Capa_1" xmlns="http://www.w3.org/2000/svg" xmlns:xlink="http://www.w3.org/1999/xlink" x="0px" y="0px"
	 width="305.75px" height="383px" viewBox="-9.25 -10 305.75 383" enable-background="new -9.25 -10 305.75 383"
	 xml:space="preserve">
<path opacity="0.3" fill="#211915" enable-background="new    " d="M194.304,238c-36.599,0-66.268-30.298-66.268-67
	s29.669-67,66.268-67H290V-4H169.889C73.576-4-5,72.882-5,169.466v6.995C-5,273.045,73.576,353,169.889,353H290V238H194.304z"/>
<g>
	<path fill="#DB973E" d="M202.304,245c-36.599,0-66.268-30.298-66.268-67s29.669-67,66.268-67H289V3H177.889
		C81.576,3,3,79.882,3,176.466v6.995C3,280.045,81.576,360,177.889,360H289V245H202.304z"/>
	<path fill="#F4EAE4" d="M202.304,111H289V74H182.1C123.912,74,76,118.84,76,177.191v2.048C76,237.589,123.912,287,182.1,287H289
		v-42h-86.696c-36.599,0-66.268-30.298-66.268-67S165.705,111,202.304,111z"/>
</g>
</svg>
