<?xml version="1.0" encoding="utf-8"?>
<!-- Generator: Adobe Illustrator 17.0.1, SVG Export Plug-In . SVG Version: 6.00 Build 0)  -->
<!DOCTYPE svg PUBLIC "-//W3C//DTD SVG 1.1//EN" "http://www.w3.org/Graphics/SVG/1.1/DTD/svg11.dtd">
<svg version="1.1" id="Capa_1" xmlns="http://www.w3.org/2000/svg" xmlns:xlink="http://www.w3.org/1999/xlink" x="0px" y="0px"
	 width="379.581px" height="677.392px" viewBox="0 -7.392 379.581 677.392" enable-background="new 0 -7.392 379.581 677.392"
	 xml:space="preserve">
<path opacity="0.3" fill="#432A4D" d="M373,397c0,0-82.978,0-106.281,0S243,372.835,243,372.835c0-2.862,0-10.541,0-29.096
	c1.082-3.104,0.335-8.406-0.902-17.484c-4.131-30.308-14.512-58.638-28.342-85.572c-8.482-16.52-16.05-33.882-29.409-47.498
	c0,0,0,0-0.001,0c18.143-2.124,30.223-13.245,40.394-27.209c0,0,0.001,0,0.001-0.001c5.467-5.048-2.664-4.984-2.664-4.984h-71.465
	l0,0h-43.781c-4.322,0.006-8.496,0.516-11.197,4.356c-14.686,20.877-36.055,30.239-59.992,35.224
	c4.34,0.307,8.698,0.925,13.02,0.897c-4.323,0.028-8.682-0.59-13.023-0.897c0.001,0,0.002,0,0.003-0.001
	c-0.213-0.015-0.426-0.034-0.638-0.047l0,0.001c0,0,0,0,0,0c-0.002,0.042-0.005,0.084-0.008,0.126
	c-4.401-6.038-9.816-9.944-17.643-7.121c-4.99,1.8-7.858,5.82-8.045,11.113c-0.273,7.763,4.097,12.116,11.36,13.923
	c0.897,10.039,5.849,14.973,16.443,14.245c8.332-0.573,16.735-0.114,25.106-0.114c31.461,0.001,43.326,9.24,50.662,39.557
	c5.261,21.737,7.83,43.836,6.942,66.125c-0.06,1.512-0.005,2.82,0.178,3.957v87.959v0.001c0,0,0.075,6.789,2.052,16.241
	c-4.788,10.435-3.633,22.202,1.278,33.648c5.397,12.58,17.962,21.567,27.973,30.249c5.443,4.72,18.452,14.725,14.42,23.493
	c-4.726,10.278-17.281,16.999-25.341,24.45c-10.12,9.357-17.404,22.972-14.264,37.05c2.809,12.592,12.749,21.417,22.354,29.169
	c4.44,3.583,8.889,7.116,12.952,11.132c1.464,1.448,1.988,2.183,2.618,3.246c-0.016,0.171-0.01,0.805-0.361,1.818
	c-0.001-0.001-0.003-0.002-0.004-0.003c-0.008,0.026-0.012,0.048-0.017,0.07c-0.006,0.018-0.009,0.031-0.015,0.049
	c-0.739,2.022-1.038,3.912-1.01,5.67c-0.69,17.982,25.031,24.045,31.31,4.065c0.389-1.237,0.715-2.451,0.984-3.643
	c-0.093,0.038-0.188,0.071-0.281,0.108c7.474-25.315-20.246-39.461-35.138-54.592c-1.388-1.41-1.965-2.35-3.063-4.353
	c1.273,2.322,0.446-0.303,0.395-0.06c0.653-3.073,4.345-6.195,7.344-8.968c9.28-8.579,19.044-15.453,26.569-25.813
	c12.483-17.185,7.275-34.624-3.325-49.332c0.211,0.001,0.414,0.011,0.626,0.011c14.662,0,31.232,0,48.183,0
	c-0.021,0-0.04-0.001-0.06-0.001C300.046,504,373,504,373,504V397z M145.975,249.583c-0.049,0.034-0.09,0.07-0.14,0.103
	c0.039,0.074,0.076,0.149,0.115,0.223c-0.039-0.074-0.078-0.15-0.117-0.224c-1.929-2.89-3.916-5.712-5.975-8.449
	c2.059,2.737,4.047,5.559,5.976,8.449C145.884,249.652,145.926,249.616,145.975,249.583z M100.718,188.836
	c0.928-0.778,1.56-1.898,1.635-3.562C102.278,186.938,101.646,188.059,100.718,188.836z M93.621,207.126
	c-0.117-0.032-0.235-0.062-0.352-0.094C93.386,207.064,93.504,207.094,93.621,207.126c0.736,0.201,1.464,0.412,2.185,0.633
	C95.085,207.538,94.357,207.327,93.621,207.126z"/>
<path opacity="0.3" fill="#432A4D" d="M46.09,112.023c0.293,0.189,0.581,0.426,0.906,0.52c23.871,6.893,47.27,14.926,69.346,26.604
	c4.773,2.525,13.458,1.246,15.411,4.595c2.402,4.118-0.366,11.25-0.9,17.08c4.714-0.049,9.428-0.097,14.137-0.148
	c-0.284-16.72,9.66-27.85,21.062-38.036c16.615-14.845,28.887-32.212,32.018-54.805c0.659-4.756,2.721-5.936,7.142-6.921
	c18.562-4.137,33.989-13.04,42.84-30.857c2.345-4.72,3.818-9.699-2.084-12.577c-5.26-2.565-8.215,0.873-10.461,5.514
	c-5.621,11.616-15.329,18.439-27.127,23c-6.443,2.491-9.291,1.721-9.699-5.96c-0.712-13.397-4.896-26.004-11.14-37.85
	c-2.567-4.87-5.294-11.247-12.425-7.303c-6.51,3.6-2.946,8.737-0.463,13.516c11.482,22.097,13.621,45.237,6.531,69.019
	c-4.528,15.191-9.543,16.821-22.901,8.294c-10.343-6.602-17.09-16.243-22.242-27.156c-1.861-3.942-4.821-6.185-9.225-4.383
	c-4.914,2.011-5.458,5.986-3.479,10.392c1.566,3.486,3.326,6.913,5.303,10.184c8.242,13.636,19.532,23.941,35.306,29.421
	c-7.94,8.328-14.731,15.311-21.352,22.451c-3.59,3.871-8.943,4.123-12.521,2.977c-19.441-6.228-37.378-15.047-49.067-33.104
	c-6.117-9.449-11.066-19.351-14.155-30.168c-1.337-4.679-4.09-7.602-9.128-5.962c-4.829,1.573-5.777,5.281-4.356,10.105
	c2.177,7.392,5.123,14.427,8.364,21.398c1.651,3.551,6.713,7.527,3.706,10.795c-2.904,3.156-7.487-1.35-11.342-2.442
	c-0.661-0.187-1.236-0.661-1.888-0.898c-5.365-1.949-11.558-9.533-16.123-1.052C31.319,107.12,40.897,108.676,46.09,112.023z"/>
<g>
	<g>
		<path fill="#DB973E" d="M373,511c0,0-126.66,0-193.945,0S111,437.295,111,437.295v-93.639l123,0.383c0,48.556,0,35.796,0,35.796
			S234.416,404,257.719,404S373,404,373,404V511z"/>
		<path fill="#DB973E" d="M141.613,167.991h71.465c0,0,8.131-0.064,2.664,4.984c-14.65,5.973-28.438,14.364-44.748,15.689
			c-5.306,0.431-10.572,1.351-17.015,2.2c6.372,7.62,13.624,9.053,21.368,9.321c13.359,13.616,20.927,30.978,29.409,47.498
			c13.83,26.934,24.211,55.264,28.342,85.572c2.984,21.89,3.152,21.87-18.443,21.841c-18.835-0.026-37.67-0.058-56.504-0.088
			c-1.682-33.95-4.989-67.547-21.316-98.322c5.195-3.462,4.785-8.818,4.783-14.056C141.607,217.888,141.613,167.991,141.613,167.991
			z"/>
		<path fill="#F4EAE4" d="M136.833,256.685c16.328,30.775,29.437,70.195,31.119,104.145c-12.906-0.034-34.899-6.284-47.783-5.777
			c-7.534,0.297-9.631-2.541-9.347-9.674c0.888-22.289-1.681-44.388-6.942-66.125c-7.336-30.317-19.201-39.556-50.662-39.557
			c-8.371,0-16.774-0.459-25.106,0.114c-10.594,0.728-15.546-4.206-16.443-14.245c12.144-0.161,13.792-8.662,14.336-18.041
			c5.201,0.328,10.432,1.177,15.598,0.884c14.741-0.836,29.011,1.89,43.018,5.717C108.17,220.559,123.788,237.144,136.833,256.685z"
			/>
		<path fill="#432A4D" d="M121.853,167.822c0.534-5.83,3.302-12.962,0.9-17.08c-1.953-3.349-10.638-2.07-15.411-4.595
			c-22.076-11.678-45.475-19.711-69.346-26.604c-0.325-0.094-0.613-0.331-0.906-0.52c-5.193-3.347-14.771-4.903-10.006-13.757
			c4.565-8.481,10.758-0.897,16.123,1.052c0.652,0.237,1.227,0.711,1.888,0.898c3.855,1.092,8.438,5.598,11.342,2.442
			c3.007-3.268-2.055-7.244-3.706-10.795c-3.241-6.971-6.187-14.006-8.364-21.398c-1.421-4.824-0.473-8.532,4.356-10.105
			c5.038-1.64,7.791,1.283,9.128,5.962c3.089,10.817,8.038,20.719,14.155,30.168c11.689,18.057,29.626,26.876,49.067,33.104
			c3.578,1.146,8.931,0.894,12.521-2.977c6.621-7.14,13.412-14.123,21.352-22.451c-15.774-5.48-27.064-15.785-35.306-29.421
			c-1.977-3.271-3.737-6.698-5.303-10.184c-1.979-4.406-1.435-8.381,3.479-10.392c4.404-1.802,7.364,0.441,9.225,4.383
			c5.152,10.913,11.899,20.554,22.242,27.156c13.358,8.527,18.373,6.897,22.901-8.294c7.09-23.782,4.951-46.922-6.531-69.019
			c-2.483-4.779-6.047-9.916,0.463-13.516c7.131-3.944,9.858,2.433,12.425,7.303c6.244,11.846,10.428,24.453,11.14,37.85
			c0.408,7.681,3.256,8.451,9.699,5.96c11.798-4.561,21.506-11.384,27.127-23c2.246-4.641,5.201-8.079,10.461-5.514
			c5.902,2.878,4.429,7.857,2.084,12.577c-8.851,17.817-24.278,26.72-42.84,30.857c-4.421,0.985-6.483,2.165-7.142,6.921
			c-3.131,22.593-15.403,39.96-32.018,54.805c-11.402,10.186-21.346,21.316-21.062,38.036
			C131.281,167.725,126.567,167.773,121.853,167.822z"/>
		<path fill="#E0A546" d="M142.996,167.991c0,0-0.006,49.897,0.004,74.638c0.002,5.238-0.971,10.594-6.166,14.056
			c-13.047-19.54-28.665-36.126-52.213-42.559c-14.007-3.826-28.276-6.553-43.018-5.717c-5.166,0.293-10.397-0.557-15.598-0.885
			c0-0.001,0.028,0.176,0.028,0.176c24.185-4.953,45.791-14.298,60.602-35.353c2.701-3.84,6.875-4.35,11.197-4.356L142.996,167.991
			L142.996,167.991z M88.301,197.34c2.524-0.583,4.903-1.738,5.051-5.065c0.122-2.735-1.339-4.592-4.078-5.006
			c-3.189-0.483-5.44,1.003-5.895,4.185C82.917,194.685,84.927,196.451,88.301,197.34z"/>
		<path fill="#C33A47" d="M175.346,200.185c-7.744-0.267-14.996-1.701-21.368-9.321c6.443-0.849,11.71-1.769,17.015-2.2
			c16.31-1.325,30.098-9.716,44.748-15.689C205.57,186.94,193.489,198.061,175.346,200.185z"/>
		<path fill="#C33A47" d="M26.035,207.701c0,0-0.028-0.177-0.028-0.176c-0.544,9.38-2.193,17.881-14.336,18.042
			c-7.264-1.807-11.635-6.16-11.362-13.924c0.187-5.293,3.055-9.313,8.045-11.113C16.203,197.699,21.627,201.634,26.035,207.701z"/>
		<path fill="#432A4D" d="M88.301,197.34c-3.374-0.889-5.384-2.655-4.922-5.886c0.455-3.183,2.706-4.668,5.895-4.185
			c2.739,0.414,4.2,2.271,4.078,5.006C93.203,195.602,90.825,196.758,88.301,197.34z"/>
		<path fill="#F4EAE4" d="M157,437.295v-93.489l-46-0.149v93.639c0,0,0.77,73.705,68.055,73.705c14.662,0,31.232,0,48.183,0
			C159.953,511,157,437.295,157,437.295z"/>
	</g>
	<g>
		<path fill="#DB973E" d="M158.722,416.458c-12.806,8.557-27.061,15.482-38.102,26.416c-12.716,12.592-12.966,28.75-6.29,44.311
			c5.397,12.58,17.962,21.567,27.973,30.249c5.443,4.72,18.452,14.725,14.42,23.493c-4.726,10.278-17.281,16.999-25.341,24.45
			c-10.12,9.357-17.404,22.972-14.264,37.05c2.809,12.592,12.749,21.417,22.354,29.169c4.44,3.583,8.889,7.116,12.952,11.132
			c1.847,1.826,2.194,2.509,3.15,4.161c-0.962-1.663-0.154-1.1-0.929,1.019c-6.975,19.076,23.402,27.224,30.301,8.354
			c9.755-26.68-19.127-41.191-34.437-56.746c-1.388-1.41-1.965-2.35-3.063-4.353c1.273,2.322,0.446-0.303,0.395-0.06
			c0.653-3.073,4.345-6.195,7.344-8.968c9.28-8.579,19.044-15.453,26.569-25.813c19.1-26.295-3.214-53.184-22.896-69.976
			c-5.496-4.689-19.838-14.677-17.704-23.061c0.955-3.753,7.672-7.348,10.58-9.302c7.472-5.019,15.363-9.39,22.85-14.393
			C191.337,432.395,175.624,405.163,158.722,416.458L158.722,416.458z"/>
	</g>
	<path fill="#432A4D" d="M175.129,656.168c-7.745,0-14.849-3.147-20.452-8.379c-0.015,0.052-0.016,0.083-0.033,0.137
		c-6.975,22.19,23.402,31.667,30.301,9.717c0.389-1.237,0.715-2.451,0.984-3.643C182.543,655.38,178.919,656.168,175.129,656.168z"
		/>
</g>
</svg>
