<?xml version="1.0" encoding="utf-8"?>
<!-- Generator: Adobe Illustrator 17.0.1, SVG Export Plug-In . SVG Version: 6.00 Build 0)  -->
<!DOCTYPE svg PUBLIC "-//W3C//DTD SVG 1.1//EN" "http://www.w3.org/Graphics/SVG/1.1/DTD/svg11.dtd">
<svg version="1.1" id="Capa_1" xmlns="http://www.w3.org/2000/svg" xmlns:xlink="http://www.w3.org/1999/xlink" x="0px" y="0px"
	 width="381.08px" height="533.077px" viewBox="0 0 381.08 533.077" enable-background="new 0 0 381.08 533.077"
	 xml:space="preserve">
<path opacity="0.3" fill="#432A4D" d="M357.893,474.973c-27.427-8.841-56.809-6.925-84.284-15.658
	c-10.182-3.237-20.346-11.505-27.821-19.008c-0.842-0.845-1.335-1.25-1.625-1.444c0.035-0.162,0.068-0.323,0.114-0.511
	c-0.266,1.459,2.098-4.105,2.455-4.718c2.04-3.497,4.464-6.782,6.816-10.071c5.2-7.272,10.522-14.389,15.154-22.048
	c11.806-19.523,16.979-43.177,13.627-65.733c-2.456-16.523-11.385-29.502-23.473-39.783h4.775
	c56.077,0,101.537-45.423,101.537-101.5c0-0.167-0.005-0.333-0.006-0.5h0.006c0-28.126-11.073-53.081-29.024-71.152
	c60.252-43.452,28.454-100.602,22.51-110.149c0.002-0.034,0.007-0.067,0.009-0.1c-0.508-0.811-0.831-1.287-0.831-1.287
	s-0.01,0.024-0.029,0.068c-0.028-0.042-0.045-0.067-0.045-0.067s-5.115,12.451-19.893,21.664
	c-4.927,3.047-10.923,5.729-18.158,7.468c-2.829,0.68-5.4,1.526-7.77,2.492c-0.24,0.094-0.482,0.187-0.717,0.283
	c-0.085,0.036-0.17,0.073-0.255,0.109c-21.919,9.143-25.05,29.397-22.542,47.876c0.001,0.01,0.002,0.019,0.004,0.028
	c0.036,0.264,0.072,0.528,0.11,0.791c0.11,0.792,0.226,1.567,0.349,2.301c0.005-0.001,0.009-0.002,0.014-0.003
	c0.105,0.617,0.214,1.231,0.329,1.842C281.051,94.096,272.474,93,263.631,93H14v101v102h118.292h24.119
	c9.962,11.205,22.862,20.002,36.089,26.844c15.654,8.098,34.973,11.339,34.523,29.277c-0.402,16.023-12.427,29.506-22.08,42.786
	c-12.601,17.335-19.469,34.966-15.807,56.553c4.252,25.066,31.551,42.658,51.372,54.396c31.264,18.515,69.194,12.783,102.678,23.576
	v0c3.25,1.047,6.323,1.518,9.195,1.5C380.146,530.766,389.16,485.052,357.893,474.973z M243.883,437.965
	c0.054,0.289,0.097,0.56,0.126,0.804c-0.055-0.029-0.098-0.049-0.13-0.058C243.927,438.643,243.959,438.445,243.883,437.965z
	 M243.806,437.567c-0.006-0.026-0.01-0.049-0.016-0.076C243.796,437.517,243.8,437.541,243.806,437.567z M244.063,439.37
	C244.145,440.844,243.777,441.003,244.063,439.37L244.063,439.37z"/>
<g>
	<path fill="#DB973E" d="M249.631,83H0v203h249.631c56.077,0,101.537-45.423,101.537-101.5S305.708,83,249.631,83z"/>
	<g>
		<path fill="#B47744" d="M305.439,30.593c29.176-7.011,38.319-29.281,38.319-29.281s50.61,73.023-36.725,121.034
			c0,0-16.692,7.971-24.283-11.127C275.161,92.12,258.806,41.8,305.439,30.593z"/>
		<path fill="#A76C3E" d="M344.663,2.598c-0.508-0.811-0.831-1.287-0.831-1.287s-9.096,22.157-38.125,29.133
			c-33.75,8.11-33.476,38.117-30.821,53.881C313.025,75.582,341.93,42.695,344.663,2.598z"/>
	</g>
	<path fill="#E0A546" d="M249.631,83H0v101h351.168C351.168,127,305.708,83,249.631,83z"/>
	<path fill="#F4EAE4" d="M0,184v102h118.292c-8.326-38-37.286-65.754-74.011-73.924C49.488,203.707,53.364,195,55.587,184H0z"/>
	<g>
		<path fill="#E0A546" d="M148.498,180.08c-21.34,20.558-30.968,49.823-21.621,79.233c7.904,24.871,29.3,41.983,51.623,53.531
			c15.654,8.098,34.973,11.339,34.523,29.277c-0.402,16.023-12.427,29.506-22.08,42.786c-12.601,17.335-19.469,34.966-15.807,56.553
			c4.252,25.066,31.551,42.658,51.372,54.396c31.264,18.515,69.195,12.783,102.679,23.576
			c34.663,11.173,49.207-43.337,14.706-54.459c-27.427-8.841-56.809-6.925-84.284-15.658c-10.182-3.237-20.346-11.505-27.821-19.008
			c-3.573-3.587-1.011,0.604-2.205-3.636c1.322,4.695-0.643,5.69,1.222-0.184c-1.846,5.812,1.497-2.115,1.927-2.852
			c2.04-3.497,4.464-6.782,6.816-10.071c5.2-7.272,10.522-14.389,15.154-22.048c11.806-19.523,16.979-43.177,13.627-65.733
			c-3.124-21.018-16.718-36.304-33.971-47.592c-15.486-10.132-34.481-14.643-48.043-27.657
			c-15.134-14.522,0.583-29.515,11.574-40.818c16.651-17.123,21.951-23.494,36.967-42.604c22.35-28.446-22.35-60.955-38.279-39.887
			C173.662,157.532,166.177,163.049,148.498,180.08z"/>
	</g>
	<g>
		<path fill="#432A4D" d="M329.186,519.432c34.663,11.173,49.207-43.337,14.706-54.459"/>
	</g>
</g>
</svg>
