<?xml version="1.0" encoding="utf-8"?>
<!-- Generator: Adobe Illustrator 17.0.1, SVG Export Plug-In . SVG Version: 6.00 Build 0)  -->
<!DOCTYPE svg PUBLIC "-//W3C//DTD SVG 1.1//EN" "http://www.w3.org/Graphics/SVG/1.1/DTD/svg11.dtd">
<svg version="1.1" id="Capa_1" xmlns="http://www.w3.org/2000/svg" xmlns:xlink="http://www.w3.org/1999/xlink" x="0px" y="0px"
	 width="357px" height="286.333px" viewBox="0 0 357 286.333" enable-background="new 0 0 357 286.333" xml:space="preserve">
<g>
	<g>
		<path fill="#DB973E" d="M-158,186.333c0,0-117.66,0-184.945,0S-411,112.628-411,112.628V18.989l123,0.383
			c0,48.556,0,35.796,0,35.796s0.416,24.165,23.719,24.165c23.303,0,106.281,0,106.281,0V186.333z"/>
		<path fill="#DB973E" d="M-380.387-156.676h71.465c0,0,8.131-0.064,2.664,4.984c-14.65,5.973-28.438,14.364-44.748,15.689
			c-5.306,0.431-10.572,1.351-17.015,2.2c6.372,7.62,13.624,9.053,21.368,9.321c13.359,13.616,20.927,30.978,29.409,47.498
			c13.829,26.934,24.211,55.264,28.342,85.572c2.984,21.89,3.152,21.87-18.443,21.841c-18.835-0.026-37.67-0.058-56.504-0.088
			c-1.682-33.95-4.989-67.547-21.316-98.322c5.195-3.462,4.785-8.818,4.783-14.056
			C-380.393-106.779-380.387-156.676-380.387-156.676z"/>
		<path fill="#F4EAE4" d="M-385.167-67.982c16.328,30.774,29.437,70.195,31.119,104.145c-12.906-0.034-34.899-6.284-47.783-5.777
			c-7.534,0.297-9.631-2.541-9.347-9.674c0.888-22.289-1.681-44.388-6.942-66.125c-7.336-30.317-19.201-39.556-50.662-39.557
			c-8.371,0-16.774-0.459-25.106,0.114c-10.594,0.728-15.546-4.206-16.443-14.245c12.144-0.161,13.792-8.662,14.336-18.041
			c5.201,0.328,10.432,1.177,15.598,0.884c14.741-0.836,29.011,1.89,43.018,5.717C-413.831-104.108-398.212-87.522-385.167-67.982z"
			/>
		<path fill="#432A4D" d="M-400.147-156.845c0.534-5.83,3.302-12.962,0.9-17.08c-1.953-3.349-10.638-2.07-15.411-4.595
			c-22.076-11.678-45.475-19.711-69.346-26.604c-0.325-0.094-0.613-0.331-0.906-0.52c-5.193-3.347-14.771-4.903-10.006-13.757
			c4.565-8.481,10.758-0.897,16.123,1.052c0.652,0.237,1.227,0.711,1.888,0.898c3.855,1.092,8.438,5.598,11.342,2.442
			c3.007-3.268-2.055-7.244-3.706-10.795c-3.241-6.971-6.187-14.006-8.364-21.398c-1.421-4.824-0.473-8.532,4.356-10.105
			c5.038-1.64,7.792,1.283,9.128,5.962c3.089,10.817,8.038,20.719,14.155,30.168c11.689,18.057,29.626,26.876,49.067,33.104
			c3.578,1.146,8.931,0.894,12.521-2.977c6.621-7.14,13.412-14.123,21.352-22.451c-15.774-5.48-27.064-15.785-35.306-29.421
			c-1.977-3.271-3.737-6.698-5.303-10.184c-1.979-4.406-1.435-8.381,3.479-10.392c4.404-1.802,7.364,0.441,9.225,4.383
			c5.152,10.913,11.899,20.554,22.242,27.156c13.358,8.527,18.373,6.897,22.901-8.294c7.09-23.782,4.951-46.922-6.531-69.019
			c-2.483-4.779-6.047-9.916,0.463-13.516c7.131-3.944,9.858,2.433,12.425,7.303c6.244,11.846,10.428,24.453,11.14,37.85
			c0.408,7.681,3.256,8.451,9.699,5.96c11.798-4.561,21.506-11.384,27.127-23c2.246-4.641,5.201-8.079,10.461-5.514
			c5.902,2.878,4.429,7.857,2.084,12.577c-8.851,17.816-24.278,26.72-42.84,30.857c-4.421,0.985-6.483,2.165-7.142,6.921
			c-3.131,22.593-15.403,39.96-32.018,54.805c-11.402,10.186-21.346,21.316-21.062,38.036
			C-390.719-156.942-395.433-156.893-400.147-156.845z"/>
		<path fill="#E0A546" d="M-379.004-156.676c0,0-0.006,49.897,0.004,74.638c0.002,5.238-0.971,10.594-6.166,14.056
			c-13.047-19.54-28.665-36.126-52.213-42.559c-14.007-3.826-28.276-6.553-43.018-5.717c-5.166,0.293-10.397-0.557-15.598-0.885
			c0-0.001,0.028,0.176,0.028,0.176c24.185-4.953,45.791-14.298,60.602-35.353c2.701-3.84,6.875-4.35,11.197-4.356H-379.004z
			 M-433.699-127.326c2.524-0.583,4.903-1.738,5.051-5.065c0.122-2.735-1.339-4.592-4.078-5.006
			c-3.189-0.483-5.44,1.003-5.895,4.185C-439.083-129.981-437.073-128.215-433.699-127.326z"/>
		<path fill="#C33A47" d="M-346.654-124.482c-7.744-0.267-14.996-1.701-21.368-9.321c6.443-0.849,11.71-1.769,17.015-2.2
			c16.31-1.325,30.098-9.716,44.748-15.689C-316.43-137.727-328.511-126.606-346.654-124.482z"/>
		<path fill="#C33A47" d="M-495.965-116.966c0,0-0.028-0.177-0.028-0.176c-0.544,9.38-2.193,17.881-14.336,18.042
			c-7.264-1.807-11.635-6.16-11.362-13.924c0.187-5.293,3.055-9.313,8.045-11.113C-505.797-126.968-500.373-123.033-495.965-116.966
			z"/>
		<path fill="#432A4D" d="M-433.699-127.326c-3.374-0.889-5.384-2.655-4.922-5.886c0.455-3.183,2.706-4.668,5.895-4.185
			c2.739,0.414,4.2,2.271,4.078,5.006C-428.797-129.065-431.175-127.909-433.699-127.326z"/>
		<path fill="#F4EAE4" d="M-365,112.628V19.139l-46-0.149v93.639c0,0,0.77,73.705,68.055,73.705c14.662,0,31.232,0,48.183,0
			C-362.047,186.333-365,112.628-365,112.628z"/>
	</g>
	<g>
		<path fill="#DB973E" d="M-363.278,91.791c-12.806,8.557-27.061,15.482-38.102,26.416c-12.716,12.592-12.966,28.75-6.29,44.311
			c5.397,12.58,17.962,21.567,27.973,30.249c5.443,4.72,18.452,14.725,14.42,23.493c-4.726,10.278-17.281,16.999-25.341,24.45
			c-10.12,9.357-17.404,22.972-14.264,37.05c2.809,12.592,12.749,21.417,22.354,29.169c4.44,3.583,8.889,7.116,12.952,11.132
			c1.847,1.826,2.194,2.509,3.15,4.161c-0.962-1.663-0.154-1.1-0.929,1.019c-6.975,19.076,23.402,27.224,30.301,8.354
			c9.755-26.68-19.127-41.191-34.437-56.746c-1.388-1.41-1.965-2.35-3.063-4.353c1.273,2.322,0.446-0.303,0.395-0.06
			c0.653-3.073,4.345-6.195,7.344-8.968c9.28-8.579,19.044-15.453,26.569-25.813c19.1-26.295-3.214-53.184-22.896-69.976
			c-5.496-4.689-19.838-14.677-17.704-23.061c0.955-3.753,7.672-7.348,10.58-9.302c7.472-5.019,15.363-9.39,22.85-14.393
			C-330.663,107.728-346.376,80.497-363.278,91.791L-363.278,91.791z"/>
	</g>
	<path fill="#432A4D" d="M-346.871,331.502c-7.745,0-14.849-3.147-20.452-8.379c-0.015,0.052-0.016,0.083-0.033,0.137
		c-6.975,22.19,23.402,31.667,30.301,9.717c0.389-1.237,0.715-2.451,0.984-3.643C-339.457,330.714-343.081,331.502-346.871,331.502z
		"/>
</g>
<g>
	<path fill="#DB973E" d="M-150.369,318.333H-400v203h249.631c56.077,0,101.537-45.423,101.537-101.5
		S-94.292,318.333-150.369,318.333z"/>
	<g>
		<path fill="#B47744" d="M-94.561,265.927c29.176-7.011,38.319-29.281,38.319-29.281s50.61,73.023-36.725,121.034
			c0,0-16.692,7.971-24.283-11.127C-124.839,327.454-141.194,277.133-94.561,265.927z"/>
		<path fill="#A76C3E" d="M-55.337,237.932c-0.508-0.811-0.831-1.287-0.831-1.287s-9.097,22.157-38.125,29.133
			c-33.75,8.11-33.476,38.117-30.821,53.881C-86.975,310.915-58.07,278.029-55.337,237.932z"/>
	</g>
	<path fill="#E0A546" d="M-150.369,318.333H-400v101h351.168C-48.832,362.333-94.292,318.333-150.369,318.333z"/>
	<path fill="#F4EAE4" d="M-400,419.333v102h118.292c-8.326-38-37.286-65.754-74.011-73.924c5.208-8.369,9.084-17.076,11.306-28.076
		H-400z"/>
	<g>
		<path fill="#E0A546" d="M-251.502,415.414c-21.34,20.558-30.968,49.823-21.621,79.233c7.904,24.871,29.3,41.983,51.622,53.531
			c15.654,8.098,34.973,11.339,34.523,29.277c-0.402,16.023-12.427,29.506-22.08,42.786c-12.601,17.335-19.469,34.966-15.807,56.553
			c4.252,25.066,31.551,42.658,51.372,54.396c31.264,18.515,69.195,12.783,102.679,23.576
			c34.663,11.173,49.207-43.338,14.705-54.459c-27.427-8.841-56.809-6.925-84.284-15.658c-10.182-3.237-20.346-11.505-27.821-19.008
			c-3.573-3.587-1.011,0.604-2.205-3.636c1.322,4.695-0.643,5.69,1.222-0.184c-1.846,5.812,1.497-2.115,1.927-2.852
			c2.04-3.497,4.464-6.782,6.816-10.071c5.2-7.272,10.522-14.389,15.154-22.048c11.806-19.523,16.979-43.177,13.627-65.733
			c-3.124-21.018-16.718-36.304-33.971-47.592c-15.486-10.132-34.481-14.643-48.043-27.657
			c-15.134-14.522,0.583-29.515,11.574-40.818c16.651-17.123,21.951-23.494,36.967-42.604c22.35-28.446-22.35-60.955-38.279-39.887
			C-226.338,392.865-233.823,398.382-251.502,415.414z"/>
	</g>
	<g>
		<path fill="#432A4D" d="M-70.814,754.766c34.663,11.173,49.207-43.338,14.705-54.459"/>
	</g>
</g>
<g>
	<path fill="#DB973E" d="M115,199.137c0-36.599,30.298-66.268,67-66.268s67,29.669,67,66.268v87.196h108V174.723
		C357,78.409,279.618,0.333,183.034,0.333h-6.995C79.455,0.333,0,78.409,0,174.723v111.611h115V199.137z"/>
	<path fill="#F4EAE4" d="M249,199.137v87.196h37v-107.4c0-58.187-45.34-105.6-103.691-105.6h-2.048
		C121.911,73.333,73,120.746,73,178.933v107.4h42v-87.196c0-36.599,30.298-66.268,67-66.268S249,162.538,249,199.137z"/>
</g>
</svg>
