<?xml version="1.0" encoding="utf-8"?>
<!-- Generator: Adobe Illustrator 17.0.1, SVG Export Plug-In . SVG Version: 6.00 Build 0)  -->
<!DOCTYPE svg PUBLIC "-//W3C//DTD SVG 1.1//EN" "http://www.w3.org/Graphics/SVG/1.1/DTD/svg11.dtd">
<svg version="1.1" id="Capa_1" xmlns="http://www.w3.org/2000/svg" xmlns:xlink="http://www.w3.org/1999/xlink" x="0px" y="0px"
	 width="323.5px" height="554.5px" viewBox="0 -8.5 323.5 554.5" enable-background="new 0 -8.5 323.5 554.5" xml:space="preserve">
<path opacity="0.3" fill="#37283A" d="M319.504,288.706l-5.73-18.95c-0.581-1.92-2.104-3.291-3.91-3.773L281.857,135.96
	c-1.022-7.9-5.35-14.521-11.413-18.693c-23.136-20.62-46.152-29.278-60.045-32.864c4.767-4.608,6.954-10.194,6.485-16.817
	c-0.106-1.501,0.276-2.68,1.361-3.981c2.708-3.246,1.291-6.36-2.974-6.719c-3.246-0.274-6.521-0.207-9.784-0.292
	c-2.488-9.015-7.922-16.912-14.881-22.461c0.473,0.051,0.742,0.084,0.742,0.084c4.022-5.028-3.017-10.056-6.134-17.095
	c-3.954-8.927-9.239-16.975-23.084-19.105c-18.272-2.811-28.155-7.039-43.239,4.022c-9.889,7.251-16.302,12.326-20.125,14.972
	c-0.077-5.193-3.192-10.549-8.978-5.921c-10.056,8.044,4.022,13.072,4.022,13.072c0.175,0.022,0.338,0.019,0.503,0.019
	c0.669,1.198,1.778,2.323,3.462,2.997c4.035,1.614,16.146,1.006,23.185,11.061c1.006,5.028-2.011,11.061,2.011,17.094
	c0,0,0.018-0.012,0.051-0.034c-0.546,1.757-0.983,3.555-1.274,5.395c-0.348,2.206-0.614,4.424-0.919,6.637c0.001,0,0.001,0,0.002,0
	l-0.001,0.001c0.017-0.001,0.032,0,0.049-0.001V67.33c7.881-0.429,12.587,4.088,16.149,10.391
	c0.567-11.789,1.013-23.53,8.095-33.852c0.822-1.197,1.684-2.332,2.58-3.418c0.001-0.001,0.002-0.001,0.003-0.002
	c-0.897,1.087-1.76,2.222-2.583,3.421c-7.082,10.321-7.528,22.062-8.095,33.851c0.624,2.666,0.771,5.364,0.843,8.109
	c-0.001,0-0.001,0-0.002,0c-0.072-2.745-0.219-5.443-0.843-8.11c-3.562-6.302-8.268-10.82-16.148-10.39
	c0.03,5.255,0.117,10.512,0.155,15.769c-13.392,2.708-42.527,11.473-70.837,38.961c-6.675,5.136-10.959,13.116-10.959,22.313
	l-4.307,51.313c-3.09,0.13-5.557,2.668-5.557,5.791c0,2.79,1.97,5.119,4.595,5.675L29.532,260H27v2h2.364l-0.168,2H27v3h1.944
	l-0.084,1H27v2h1.692l-2.235,26.62c-0.519,1.783-0.876,3.927-1.032,6.489c-0.389,6.421-0.546,11.516-0.519,15.586
	C18.198,325.372,14,334.531,14,344.627v18.552c-3.787,0.775-6.628,4.008-6.628,8.036l0.005,0.03c0,0.025-0.004,0.05-0.004,0.075
	h0.016l8.369,52.556c0,4.632,3.755,8.124,8.386,8.124H79.49c4.632,0,8.386-3.493,8.386-8.124l8.371-52.564h0.016
	c0-0.026-0.004-0.052-0.004-0.078l0.003-0.019c0-4.249-3.164-7.609-7.262-8.136v-18.452c0-3.944-0.647-7.743-1.827-11.31
	c1.125-1.088,1.827-2.609,1.827-4.298V307.98c0-2.541-1.588-4.707-3.823-5.573l0.027-2.242c4.053,3.377,8.326,6.497,12.797,9.337
	V363h17v136.021c-0.825,0.592-1.398,1.23-1.671,1.896c-0.1,0.244-0.147,0.492-0.169,0.74c-0.003-0.066-0.015-0.146-0.013-0.201
	l-0.609,10.766c-0.121,0.118-0.255,0.234-0.364,0.354c-0.925,1.016-1.437,2.096-1.521,3.177c-0.086,1.099,0.271,2.201,1.084,3.236
	c0.826,1.051,2.121,2.031,3.896,2.867l29.156,13.73c0.972,0.458,2.003,0.859,3.078,1.204c1.08,0.347,2.203,0.636,3.355,0.867
	c1.155,0.232,2.336,0.406,3.527,0.522c1.194,0.116,2.396,0.174,3.593,0.174c1.457,0,2.901-0.086,4.305-0.256
	c1.401-0.17,2.759-0.424,4.046-0.759c1.281-0.334,2.49-0.748,3.599-1.241c1.102-0.489,2.103-1.055,2.978-1.693
	c1.576-1.148,2.589-2.423,3.079-3.737c0.482-1.291,0.46-2.62-0.026-3.906c-0.308-0.817-0.823-1.615-1.496-2.38l0.387-8.347
	c0.026-0.097,0.054-0.195,0.072-0.293c0.207-1.128-0.088-2.29-0.817-3.411c-0.118-0.182-0.265-0.362-0.406-0.542
	c0.003-0.001,0.006-0.002,0.009-0.002c-0.025-0.032-0.056-0.063-0.082-0.094c-0.109-0.134-0.226-0.267-0.347-0.399
	c-0.104-0.114-0.212-0.227-0.324-0.34c-0.122-0.122-0.246-0.244-0.379-0.365c-0.144-0.131-0.298-0.26-0.454-0.389
	c-0.122-0.101-0.239-0.203-0.368-0.302c-0.249-0.192-0.514-0.381-0.789-0.567c-0.05-0.034-0.092-0.069-0.143-0.103
	c-1.42-0.935-3.175-1.793-5.233-2.529l-25.843-9.213c-0.667-0.235-1.369-0.446-2.098-0.634c-0.004-0.001-0.01-0.002-0.014-0.003V363
	h18v-12.281c0,0.311,1.972,0.477,3.307,0.477c1.475,0,2.693-0.206,3.693-0.582V363h18v135.6c-0.092,0.055-0.195,0.108-0.282,0.164
	c-1.032,0.66-1.717,1.39-2.029,2.152c-0.098,0.24-0.146,0.484-0.169,0.728c-0.003-0.061-0.014-0.137-0.012-0.189l-0.609,10.766
	c-0.121,0.118-0.255,0.234-0.364,0.354c-0.925,1.016-1.437,2.096-1.521,3.177c-0.086,1.099,0.271,2.201,1.084,3.236
	c0.826,1.051,2.121,2.031,3.896,2.867l29.156,13.73c0.972,0.458,2.003,0.859,3.078,1.204c1.08,0.347,2.203,0.636,3.355,0.867
	c1.155,0.232,2.336,0.406,3.527,0.522c1.194,0.116,2.396,0.174,3.593,0.174c1.457,0,2.901-0.086,4.305-0.256
	c1.401-0.17,2.759-0.424,4.046-0.759c1.281-0.334,2.49-0.748,3.599-1.241c1.102-0.489,2.103-1.055,2.978-1.693
	c1.576-1.148,2.589-2.423,3.079-3.737c0.482-1.291,0.46-2.62-0.026-3.906c-0.308-0.817-0.823-1.615-1.496-2.38l0.388-8.353
	c0.025-0.096,0.053-0.191,0.071-0.287c0.207-1.128-0.088-2.29-0.817-3.411c-0.118-0.182-0.265-0.362-0.406-0.542
	c0.003-0.001,0.007-0.002,0.01-0.002c-0.027-0.034-0.061-0.068-0.089-0.102c-0.104-0.128-0.216-0.254-0.331-0.381
	c-0.11-0.121-0.225-0.241-0.345-0.361c-0.116-0.116-0.234-0.232-0.36-0.346c-0.153-0.14-0.317-0.277-0.484-0.415
	c-0.113-0.093-0.221-0.187-0.34-0.279c-0.271-0.209-0.557-0.415-0.859-0.617c-0.028-0.019-0.052-0.039-0.08-0.057
	c-1.42-0.935-3.175-1.793-5.233-2.529l-25.843-9.213c-0.468-0.165-0.972-0.303-1.472-0.445V363h17v-48.608
	c14.14-7.477,26.642-17.632,36.832-29.795l1.527,10.788c1.918,14.825,15.487,25.258,30.312,23.34l1.611-0.208
	c12.207-1.579,21.453-11.042,23.269-22.611c0.377-0.033,0.756-0.104,1.133-0.218l0.094-0.028
	C318.728,294.769,320.396,291.655,319.504,288.706z M113.754,503.534c-0.013-0.016-0.023-0.045-0.036-0.063
	c0.063,0.089,0.135,0.177,0.209,0.265C113.87,503.671,113.813,503.607,113.754,503.534z M170.106,520.546
	c-0.163,0.064-0.338,0.121-0.507,0.181c-0.003-0.001-0.006-0.003-0.009-0.004C169.759,520.663,169.942,520.611,170.106,520.546z
	 M179.115,503.534c-0.012-0.016-0.021-0.042-0.034-0.058c0.059,0.083,0.126,0.165,0.196,0.248
	C179.223,503.662,179.17,503.602,179.115,503.534z M235.484,520.54c-0.169,0.067-0.349,0.125-0.525,0.188
	c-0.003-0.001-0.007-0.003-0.01-0.004C235.125,520.66,235.315,520.607,235.484,520.54z M181.907,505.633
	c0.019,0.009,0.033,0.019,0.052,0.028l0.149,0.073c0,0.001,0.001,0.002,0.001,0.002l-0.155-0.075
	C181.938,505.651,181.924,505.643,181.907,505.633z M182.894,84.591c1.787-0.053,3.578-0.194,5.361-0.173
	c0.037,0.006,0.069,0.004,0.106,0.01c-1.699,0.025-3.536,0.145-5.384,0.177C182.949,84.601,182.922,84.595,182.894,84.591z
	 M148.767,56.789c7.459-0.078,14.924,0.149,22.376-0.088c3.755-0.119,7.044,3.089,9.469,3.233c-2.425-0.143-5.714-3.351-9.469-3.232
	c-7.452,0.236-14.917,0.01-22.376,0.088c-3.078,0.032-4.938,0.622-5.632,1.854C143.827,57.411,145.687,56.821,148.767,56.789z
	 M25.247,326.057c0.691,6.742,2.348,8.238,4.292,8.724c2.177,0.544,11.58,2.261,17.7,3.362c1.179,0.29,2.389,0.505,3.62,0.648
	c1.114,0.198,1.787,0.318,1.787,0.318l-0.005-0.16C53.2,338.98,53.76,339,54.326,339h1.741c8.283,0,15.75-3.398,21.036-8.888
	c0.482,2.605,2.648,4.617,5.329,4.861c1.013,3.047,1.568,6.289,1.568,9.655v15.045c-1.258-2.413-3.401-4.291-6-5.204V352h-1.299
	c0.137-0.396,0.22-0.838,0.22-1.317c0-1.652-0.909-2.947-2.07-2.947c-1.161,0-2.07,1.294-2.07,2.947c0,0.479,0.083,0.921,0.22,1.317
	H72v2.135c-2.797,0.645-5.173,2.38-6.67,4.729c-1.768-3.768-5.188-6.607-9.33-7.583V349h-1.047c0.115-0.409,0.18-0.858,0.18-1.333
	c0-1.945-1.056-3.469-2.404-3.469s-2.404,1.524-2.404,3.469c0,0.475,0.065,0.924,0.18,1.333H50v2.189
	c-5.188,1.078-9.3,5.068-10.571,10.182c-1.246-3.728-4.468-6.549-8.429-7.213V352h-0.554c0.137-0.396,0.22-0.838,0.22-1.317
	c0-1.652-0.909-2.947-2.07-2.947c-1.161,0-2.07,1.294-2.07,2.947c0,0.479,0.083,0.921,0.22,1.317H25v2.847
	c-2.813,1.192-5.009,3.547-6,6.459v-16.68C19,337.698,21.339,331.286,25.247,326.057z M27.532,350.683
	c0-1.145,0.561-1.942,1.064-1.942c0.503,0,1.064,0.797,1.064,1.942c0,0.53-0.123,0.981-0.303,1.317h-1.522
	C27.655,351.664,27.532,351.213,27.532,350.683z M51.331,347.666c0-1.312,0.653-2.463,1.398-2.463s1.398,1.151,1.398,2.463
	c0,0.483-0.09,0.944-0.239,1.334H51.57C51.421,348.61,51.331,348.149,51.331,347.666z M73.787,350.683
	c0-1.145,0.561-1.942,1.064-1.942c0.503,0,1.064,0.797,1.064,1.942c0,0.53-0.123,0.981-0.303,1.317H74.09
	C73.91,351.664,73.787,351.213,73.787,350.683z"/>
<g>
	<g>
		<g>
			<circle fill="#579265" cx="23.206" cy="370.781" r="10.785"/>
		</g>
		<g>
			<rect x="19" y="358" fill="#579265" width="6" height="4"/>
		</g>
		<g>
			<path fill="#579265" d="M22.596,359.63c-1.161,0-2.07-1.294-2.07-2.947s0.909-2.947,2.07-2.947s2.07,1.295,2.07,2.947
				S23.756,359.63,22.596,359.63z M22.596,354.741c-0.503,0-1.064,0.797-1.064,1.942c0,1.144,0.561,1.941,1.064,1.941
				s1.064-0.797,1.064-1.941C23.66,355.538,23.099,354.741,22.596,354.741z"/>
		</g>
	</g>
	<g>
		<g>
			<circle fill="#7A5988" cx="68.429" cy="370.635" r="10.785"/>
		</g>
		<g>
			<rect x="66" y="358" fill="#7A5988" width="6" height="4"/>
		</g>
		<g>
			<path fill="#7A5988" d="M68.851,359.63c-1.161,0-2.07-1.294-2.07-2.947s0.909-2.947,2.07-2.947s2.07,1.295,2.07,2.947
				S70.012,359.63,68.851,359.63z M68.851,354.741c-0.503,0-1.064,0.797-1.064,1.942c0,1.144,0.561,1.941,1.064,1.941
				s1.064-0.797,1.064-1.941C69.915,355.538,69.354,354.741,68.851,354.741z"/>
		</g>
	</g>
	<g>
		<g>
			<circle fill="#B74445" cx="46.823" cy="370.708" r="13.81"/>
		</g>
		<g>
			<rect x="44" y="355" fill="#B74445" width="6" height="4"/>
		</g>
		<g>
			<path fill="#B74445" d="M46.729,357.135c-1.348,0-2.404-1.524-2.404-3.468c0-1.945,1.056-3.469,2.404-3.469
				s2.404,1.524,2.404,3.469C49.133,355.611,48.077,357.135,46.729,357.135z M46.729,351.203c-0.745,0-1.398,1.151-1.398,2.463
				s0.654,2.463,1.398,2.463s1.398-1.151,1.398-2.463S47.474,351.203,46.729,351.203z"/>
		</g>
	</g>
	<g>
		<path fill="#D69F98" d="M83,335.019c0,3.303-2.678,5.981-5.981,5.981H76.98c-3.303,0-5.981-2.678-5.981-5.981V313.98
			c0-3.303,2.678-5.981,5.981-5.981h0.039c3.303,0,5.981,2.678,5.981,5.981V335.019z"/>
	</g>
	<g>
		<g>
			<path fill="#050206" d="M45.855,420H45.78C25.402,420,8,403.772,8,383.394v-32.767c0-20.377,17.085-36.956,37.462-36.956
				C65.915,313.671,83,330.25,83,350.627v32.767C83,403.772,66.233,420,45.855,420z M45.538,318.833
				C27.931,318.833,13,333.096,13,350.627v32.767C13,400.925,28.249,415,45.78,415h0.076C63.386,415,78,400.925,78,383.394v-32.767
				C78,333.096,63.069,318.833,45.538,318.833z"/>
		</g>
	</g>
	<g>
		<path fill="#CF968C" d="M313.504,294.706c0.892,2.949-0.776,6.063-3.726,6.955l-0.094,0.028c-2.949,0.892-6.063-0.776-6.955-3.726
			l-5.73-18.95c-0.892-2.949,0.776-6.063,3.726-6.955l0.094-0.028c2.949-0.892,6.063,0.776,6.955,3.726L313.504,294.706z"/>
	</g>
	<g>
		<g>
			<path fill="#D2978C" d="M253.359,301.386c1.918,14.825,15.487,25.258,30.312,23.34l1.611-0.208
				c14.825-1.918,25.293-15.46,23.375-30.285l-32.8-152.273c-1.918-14.825-15.473-25.147-30.298-23.229l-1.611,0.208
				c-14.825,1.918-11.05,20.071-9.132,34.896l4.184,46.12L253.359,301.386z"/>
		</g>
	</g>
	<g>
		<path fill="#D69F98" d="M120.5,518.357c-6.386,0-11.5-5.177-11.5-11.564V366.016c0-6.386,5.114-11.564,11.5-11.564
			s11.5,5.177,11.5,11.564v140.777C132,513.18,126.886,518.357,120.5,518.357z"/>
	</g>
	<g>
		<path fill="#D69F98" d="M186.5,518.357c-6.386,0-11.5-5.177-11.5-11.564V366.016c0-6.386,5.114-11.564,11.5-11.564
			s11.5,5.177,11.5,11.564v140.777C198,513.18,192.886,518.357,186.5,518.357z"/>
	</g>
	<g>
		<g>
			<path fill="none" stroke="#161316" stroke-miterlimit="10" d="M163.527,525.676"/>
		</g>
	</g>
	<g>
		<g>
			<g>
				<g>
					<path fill="#B5322A" d="M123.257,513.149c-1.169,0-2.344,0.055-3.504,0.165c-1.162,0.11-2.311,0.276-3.429,0.496
						c-1.121,0.221-2.212,0.498-3.252,0.83c-1.046,0.334-2.042,0.724-2.968,1.172c-1.706,0.823-3.019,1.763-3.93,2.764
						c-0.925,1.016-1.437,2.096-1.521,3.177c-0.086,1.099,0.271,2.201,1.084,3.236c0.826,1.051,2.121,2.031,3.896,2.867
						l29.156,13.73c0.972,0.458,2.003,0.859,3.078,1.204c1.08,0.347,2.203,0.636,3.355,0.867c1.155,0.232,2.336,0.406,3.527,0.522
						c1.194,0.116,2.396,0.174,3.593,0.174c1.457,0,2.901-0.086,4.305-0.256c1.401-0.17,2.759-0.424,4.046-0.759
						c1.281-0.334,2.49-0.748,3.599-1.241c1.102-0.489,2.103-1.055,2.978-1.693c1.576-1.148,2.589-2.423,3.079-3.737
						c0.482-1.291,0.46-2.62-0.026-3.906c-0.477-1.264-1.402-2.49-2.737-3.605c-1.314-1.098-3.03-2.094-5.118-2.92l-28.4-11.247
						c-0.789-0.313-1.622-0.584-2.485-0.815c-0.861-0.23-1.754-0.421-2.668-0.573c-0.912-0.152-1.847-0.265-2.794-0.34
						C125.176,513.186,124.218,513.149,123.257,513.149"/>
				</g>
			</g>
		</g>
		<g>
			<g>
				<path fill="#C98288" d="M169.238,521.739c-0.218,1.167-0.955,2.299-2.335,3.307c-0.178,0.129-0.354,0.254-0.547,0.376
					c-0.06,0.038-0.117,0.074-0.179,0.111c-0.123,0.074-0.247,0.147-0.377,0.219c-0.173,0.096-0.352,0.188-0.536,0.279
					c-0.085,0.042-0.166,0.085-0.253,0.126c-0.273,0.128-0.554,0.252-0.848,0.369c-0.347,0.138-0.711,0.265-1.083,0.387
					c-0.106,0.035-0.213,0.068-0.321,0.102c-0.239,0.074-0.484,0.144-0.733,0.212c-0.108,0.029-0.215,0.06-0.325,0.088
					c-0.357,0.091-0.72,0.177-1.094,0.255c-0.324,0.067-0.655,0.129-0.99,0.185c-0.095,0.016-0.193,0.029-0.289,0.044
					c-0.242,0.039-0.485,0.077-0.732,0.11c-0.219,0.029-0.442,0.053-0.665,0.078c-0.132,0.015-0.261,0.033-0.393,0.046
					c-0.357,0.036-0.719,0.067-1.086,0.092c-1.463,0.1-2.982,0.115-4.528,0.043c-0.456-0.021-0.915-0.058-1.373-0.095
					c-0.201-0.016-0.402-0.026-0.604-0.045c-0.612-0.057-1.224-0.126-1.834-0.209c-1.265-0.177-2.518-0.407-3.743-0.693
					c-1.216-0.285-2.4-0.623-3.534-1.015c-1.121-0.385-2.188-0.824-3.188-1.307l0,0l-27.054-13.143l0,0
					c-1.602-0.936-2.14-1.263-2.84-2.127c-0.388-0.479-0.631-1.56-0.607-2.079l-0.773,13.669c-0.024,0.519,0.194,1.048,0.528,1.566
					c0.527,0.822,1.552,1.624,3.037,2.344l0,0l27.072,13.144l0,0c1,0.483,2.076,0.923,3.197,1.307
					c1.134,0.392,2.322,0.73,3.538,1.016c1.225,0.286,2.481,0.516,3.745,0.693c0.611,0.083,1.224,0.152,1.835,0.209
					c0.202,0.019,0.403,0.029,0.604,0.045c0.357,0.028,0.714,0.06,1.07,0.08c0.101,0.005,0.202,0.01,0.303,0.015
					c1.546,0.072,3.065,0.057,4.528-0.043c0.366-0.025,0.729-0.056,1.087-0.092c0.108-0.011,0.213-0.025,0.32-0.037
					c0.247-0.027,0.495-0.054,0.738-0.086c0.003,0,0.006-0.001,0.009-0.001c0.238-0.032,0.47-0.069,0.703-0.106
					c0.102-0.016,0.207-0.03,0.309-0.047c0.335-0.057,0.665-0.118,0.99-0.185c0.374-0.078,0.737-0.164,1.094-0.255
					c0.11-0.028,0.217-0.059,0.325-0.088c0.249-0.067,0.493-0.138,0.733-0.212c0.061-0.019,0.127-0.035,0.188-0.054
					c0.046-0.015,0.088-0.033,0.134-0.048c0.372-0.122,0.737-0.249,1.084-0.387c0.293-0.117,0.575-0.24,0.848-0.368
					c0.087-0.041,0.169-0.084,0.253-0.126c0.184-0.09,0.364-0.183,0.537-0.279c0.039-0.022,0.083-0.041,0.122-0.063
					c0.089-0.05,0.171-0.103,0.257-0.155c0.061-0.037,0.124-0.073,0.184-0.111c0.193-0.122,0.381-0.246,0.559-0.375
					c1.38-1.009,2.14-2.14,2.358-3.306c0.022-0.122-0.007-0.246,0.004-0.368c0.005-0.054-0.038-0.11-0.035-0.165l0.621-13.375
					C169.245,521.385,169.271,521.563,169.238,521.739z"/>
			</g>
		</g>
		<g>
			<g>
				<path fill="#D59F98" d="M124.97,501.858c0.822,0.038,1.635,0.101,2.434,0.185c0.803,0.087,1.592,0.196,2.358,0.331
					c0.775,0.133,1.527,0.293,2.252,0.477c0.729,0.188,1.431,0.399,2.098,0.634l25.843,9.213c2.058,0.736,3.813,1.594,5.233,2.529
					c1.461,0.966,2.577,2.019,3.282,3.103c0.729,1.121,1.024,2.283,0.817,3.411c-0.218,1.167-0.978,2.297-2.358,3.306
					c-0.777,0.565-1.706,1.058-2.761,1.478c-1.068,0.426-2.262,0.775-3.556,1.044c-1.303,0.269-2.696,0.454-4.155,0.555
					c-1.463,0.1-2.982,0.115-4.528,0.044c-1.266-0.059-2.542-0.175-3.811-0.349c-1.265-0.177-2.518-0.407-3.743-0.693
					c-1.216-0.285-2.4-0.623-3.534-1.015c-1.121-0.385-2.188-0.824-3.188-1.307l-27.054-13.143c-1.485-0.72-2.475-1.521-3.002-2.343
					c-0.515-0.8-0.589-1.616-0.268-2.402c0.312-0.762,0.997-1.492,2.029-2.152c0.996-0.644,2.326-1.219,3.953-1.698
					c0.879-0.256,1.804-0.474,2.757-0.648c0.944-0.174,1.922-0.311,2.91-0.408c0.988-0.097,1.988-0.158,2.994-0.183
					C122.97,501.801,123.975,501.812,124.97,501.858z"/>
			</g>
		</g>
		<g>
			<g>
				<path fill="#B53029" d="M143,541.924c0,0,0-8.404,0-10.755s1.636-7.438,8.64-9.365c7.005-1.926-11.443-10.051-18.448-8.124
					c-7.005,1.926-8.193,7.014-8.193,9.365s0,10.755,0,10.755L143,541.924z"/>
			</g>
		</g>
		<g>
			<g>
				<path fill="#B53029" d="M168.073,517.786c-0.7-0.892-1.672-1.756-2.887-2.559c-1.419-0.935-3.174-1.793-5.233-2.529l-9.29-3.312
					c-5.109,1.212-12.846,3.078-17.267,4.294c-4.126,1.135-6.275,3.366-7.345,5.488l11.599,5.635c1,0.483,2.067,0.922,3.188,1.307
					c1.134,0.392,2.317,0.73,3.534,1.015c0.1,0.023,0.203,0.041,0.303,0.063c1.088-2.091,3.232-4.268,7.291-5.385
					C156.064,520.677,163.011,518.992,168.073,517.786z"/>
			</g>
		</g>
	</g>
	<g>
		<g>
			<g>
				<g>
					<path fill="#B5322A" d="M188.618,513.149c-1.169,0-2.344,0.055-3.504,0.165c-1.162,0.11-2.311,0.276-3.429,0.496
						c-1.121,0.221-2.212,0.498-3.252,0.83c-1.046,0.334-2.042,0.724-2.968,1.172c-1.706,0.823-3.019,1.763-3.93,2.764
						c-0.925,1.016-1.437,2.096-1.521,3.177c-0.086,1.099,0.271,2.201,1.084,3.236c0.826,1.051,2.121,2.031,3.896,2.867
						l29.156,13.73c0.972,0.458,2.003,0.859,3.078,1.204c1.08,0.347,2.203,0.636,3.355,0.867c1.155,0.232,2.336,0.406,3.527,0.522
						c1.194,0.116,2.396,0.174,3.593,0.174c1.457,0,2.901-0.086,4.305-0.256c1.401-0.17,2.759-0.424,4.046-0.759
						c1.281-0.334,2.49-0.748,3.599-1.241c1.102-0.489,2.103-1.055,2.978-1.693c1.576-1.148,2.589-2.423,3.079-3.737
						c0.482-1.291,0.46-2.62-0.026-3.906c-0.477-1.264-1.402-2.49-2.737-3.605c-1.314-1.098-3.03-2.094-5.118-2.92l-28.4-11.247
						c-0.789-0.313-1.622-0.584-2.485-0.815c-0.861-0.23-1.754-0.421-2.668-0.573c-0.912-0.152-1.847-0.265-2.794-0.34
						C190.537,513.186,189.579,513.149,188.618,513.149"/>
				</g>
			</g>
		</g>
		<g>
			<g>
				<path fill="#C98288" d="M234.599,521.739c-0.218,1.167-0.955,2.299-2.335,3.307c-0.178,0.129-0.354,0.254-0.547,0.376
					c-0.06,0.038-0.117,0.074-0.179,0.111c-0.123,0.074-0.247,0.147-0.377,0.219c-0.173,0.096-0.352,0.188-0.536,0.279
					c-0.085,0.042-0.166,0.085-0.253,0.126c-0.273,0.128-0.554,0.252-0.848,0.369c-0.347,0.138-0.711,0.265-1.083,0.387
					c-0.106,0.035-0.213,0.068-0.321,0.102c-0.239,0.074-0.484,0.144-0.733,0.212c-0.108,0.029-0.215,0.06-0.325,0.088
					c-0.357,0.091-0.72,0.177-1.094,0.255c-0.324,0.067-0.655,0.129-0.99,0.185c-0.095,0.016-0.193,0.029-0.289,0.044
					c-0.242,0.039-0.485,0.077-0.732,0.11c-0.219,0.029-0.442,0.053-0.665,0.078c-0.132,0.015-0.261,0.033-0.393,0.046
					c-0.357,0.036-0.719,0.067-1.086,0.092c-1.463,0.1-2.982,0.115-4.528,0.043c-0.456-0.021-0.915-0.058-1.373-0.095
					c-0.201-0.016-0.402-0.026-0.604-0.045c-0.612-0.057-1.224-0.126-1.834-0.209c-1.265-0.177-2.518-0.407-3.743-0.693
					c-1.216-0.285-2.4-0.623-3.534-1.015c-1.121-0.385-2.188-0.824-3.188-1.307l0,0l-27.054-13.143l0,0
					c-1.602-0.936-2.14-1.263-2.84-2.127c-0.388-0.479-0.631-1.56-0.607-2.079l-0.773,13.669c-0.024,0.519,0.194,1.048,0.528,1.566
					c0.527,0.822,1.552,1.624,3.037,2.344l0,0l27.072,13.144l0,0c1,0.483,2.076,0.923,3.197,1.307
					c1.134,0.392,2.322,0.73,3.538,1.016c1.225,0.286,2.481,0.516,3.745,0.693c0.611,0.083,1.224,0.152,1.835,0.209
					c0.202,0.019,0.403,0.029,0.604,0.045c0.357,0.028,0.714,0.06,1.07,0.08c0.101,0.005,0.202,0.01,0.303,0.015
					c1.546,0.072,3.065,0.057,4.528-0.043c0.366-0.025,0.729-0.056,1.087-0.092c0.108-0.011,0.213-0.025,0.32-0.037
					c0.247-0.027,0.495-0.054,0.738-0.086c0.003,0,0.006-0.001,0.009-0.001c0.238-0.032,0.47-0.069,0.703-0.106
					c0.102-0.016,0.207-0.03,0.309-0.047c0.335-0.057,0.665-0.118,0.99-0.185c0.374-0.078,0.737-0.164,1.094-0.255
					c0.11-0.028,0.217-0.059,0.325-0.088c0.249-0.067,0.493-0.138,0.733-0.212c0.061-0.019,0.127-0.035,0.188-0.054
					c0.046-0.015,0.088-0.033,0.134-0.048c0.372-0.122,0.737-0.249,1.084-0.387c0.293-0.117,0.575-0.24,0.848-0.368
					c0.087-0.041,0.169-0.084,0.253-0.126c0.184-0.09,0.364-0.183,0.537-0.279c0.039-0.022,0.083-0.041,0.122-0.063
					c0.089-0.05,0.171-0.103,0.257-0.155c0.061-0.037,0.124-0.073,0.184-0.111c0.193-0.122,0.381-0.246,0.559-0.375
					c1.38-1.009,2.14-2.14,2.358-3.306c0.022-0.122-0.007-0.246,0.004-0.368c0.005-0.054-0.038-0.11-0.035-0.165l0.621-13.375
					C234.605,521.385,234.631,521.563,234.599,521.739z"/>
			</g>
		</g>
		<g>
			<g>
				<path fill="#D59F98" d="M190.33,501.858c0.822,0.038,1.635,0.101,2.434,0.185c0.803,0.087,1.592,0.196,2.358,0.331
					c0.775,0.133,1.527,0.293,2.252,0.477c0.729,0.188,1.431,0.399,2.098,0.634l25.843,9.213c2.058,0.736,3.813,1.594,5.233,2.529
					c1.461,0.966,2.577,2.019,3.282,3.103c0.729,1.121,1.024,2.283,0.817,3.411c-0.218,1.167-0.978,2.297-2.358,3.306
					c-0.777,0.565-1.706,1.058-2.761,1.478c-1.068,0.426-2.262,0.775-3.556,1.044c-1.303,0.269-2.696,0.454-4.155,0.555
					c-1.463,0.1-2.982,0.115-4.528,0.044c-1.266-0.059-2.542-0.175-3.811-0.349c-1.265-0.177-2.518-0.407-3.743-0.693
					c-1.216-0.285-2.4-0.623-3.534-1.015c-1.121-0.385-2.188-0.824-3.188-1.307l-27.054-13.143c-1.485-0.72-2.475-1.521-3.002-2.343
					c-0.515-0.8-0.589-1.616-0.268-2.402c0.312-0.762,0.997-1.492,2.029-2.152c0.996-0.644,2.326-1.219,3.953-1.698
					c0.879-0.256,1.804-0.474,2.757-0.648c0.944-0.174,1.922-0.311,2.91-0.408s1.988-0.158,2.994-0.183
					C188.331,501.801,189.336,501.812,190.33,501.858z"/>
			</g>
		</g>
		<g>
			<g>
				<path fill="#B53029" d="M208,541.924c0,0,0-8.404,0-10.755s1.816-7.438,8.821-9.365c7.005-1.926-11.533-10.051-18.538-8.124
					c-7.005,1.926-8.283,7.014-8.283,9.365s0,10.755,0,10.755L208,541.924z"/>
			</g>
		</g>
		<g>
			<g>
				<path fill="#B53029" d="M233.434,517.786c-0.7-0.892-1.672-1.756-2.887-2.559c-1.419-0.935-3.174-1.793-5.233-2.529l-9.29-3.312
					c-5.109,1.212-12.846,3.078-17.267,4.294c-4.126,1.135-6.275,3.366-7.345,5.488l11.599,5.635c1,0.483,2.067,0.922,3.188,1.307
					c1.134,0.392,2.318,0.73,3.534,1.015c0.1,0.023,0.203,0.041,0.303,0.063c1.088-2.091,3.232-4.268,7.291-5.385
					C221.425,520.677,228.371,518.992,233.434,517.786z"/>
			</g>
		</g>
	</g>
	<g>
		<path fill="#B74445" d="M157,307v19.056c-1-0.377-2.219-0.582-3.693-0.582c-1.335,0-3.307,0.167-3.307,0.477V307H92v62h58v-12.281
			c0,0.311,1.972,0.477,3.307,0.477c1.475,0,2.693-0.206,3.693-0.582V369h58v-62H157z"/>
	</g>
	<g>
		<path fill="#D69F98" d="M122.605,87.935c0,0-40.325,2.822-78.921,40.621L56.45,153.51l67.852-51.618L122.605,87.935z"/>
	</g>
	<g>
		<path fill="#D2978C" d="M191.185,87.935c0,0,40.325,2.822,78.921,40.621L257.34,153.51l-67.852-51.618L191.185,87.935z"/>
	</g>
	<g>
		<circle fill="#CF968C" cx="157.714" cy="211.83" r="122.734"/>
	</g>
	<g>
		<path fill="#C98288" d="M131.028,83.721c0.567-11.789,1.013-23.53,8.095-33.852c5.643-8.224,13.018-13.821,22.468-16.811
			c0.98-0.31,1.902-0.807,2.851-1.217c-21.21-4.918-45.113,12.185-48.694,34.853c-0.348,2.206-0.614,4.424-0.919,6.637
			C122.741,72.879,127.459,77.404,131.028,83.721z"/>
	</g>
	<g>
		<path fill="#D69F98" d="M175.085,65.92c3.051-0.388,6.115-3.361,10.091-3.208c4.762,0.184,9.54-0.06,14.311-0.118
			c-4.601-16.669-19.26-29.533-35.044-30.752c-0.949,0.41-1.871,0.906-2.851,1.217c-9.451,2.991-16.825,8.587-22.468,16.811
			c-7.082,10.321-7.528,22.062-8.095,33.851c1.306,5.578,0.538,11.289,1.313,17.298c2.771-5.683,7.44-8.804,13.117-10.61
			c-4.379-4.682-6.758-10.104-6.264-16.635c0.088-1.163-0.011-2.297-0.695-3.419c-3.174-5.208-1.892-7.502,4.267-7.566
			c7.459-0.078,14.924,0.149,22.376-0.088C169.148,62.574,172.623,66.233,175.085,65.92z M182.502,78.347
			c-4.683-0.345-8.222,0.703-9.193,6.2c-0.333,1.885-2.037,3.527-3.115,5.28c3.964,1.353,8.033,0.543,12.061,0.591
			c3.543,0.566,5.918-0.995,7.45-4.092C189.459,80.433,188.408,79.269,182.502,78.347z"/>
	</g>
	<g>
		<path fill="#D69F98" d="M182.78,78h-14.17c0.116,0,0.178,1.145,0.178,1.724c0,4.121-3.096,7.131-7.152,7.784
			c1.119,1.739,3.067,2.492,5.289,2.492h15.856c3.474,0,6.22-1.979,6.22-5.453V84.36C189,80.886,186.254,78,182.78,78z"/>
	</g>
	<g>
		<g>
			<path fill="#D69F98" d="M79.082,316.28c0,16.025-12.991,28.72-29.015,28.72h-1.741c-16.025,0-29.015-12.695-29.015-28.72
				l13.927-165.906c0-16.025,12.991-28.374,29.015-28.374h1.741c5.008,0,36.862-19.189,36.862-19.189s-22.777,15.047-22.777,35.714
				c0,7.462,0.423,12.634,0.423,18.836l1.895,49.359L79.082,316.28z"/>
		</g>
		<g>
			<circle fill="#D69F98" cx="29.176" cy="207.478" r="5.803"/>
		</g>
		<g>
			<rect x="21" y="270" fill="#7C2E29" width="18" height="3"/>
		</g>
		<g>
			<rect x="21" y="274" fill="#7C2E29" width="18" height="2"/>
		</g>
		<g>
			<rect x="21" y="266" fill="#7C2E29" width="18" height="2"/>
		</g>
	</g>
	<g>
		<path fill="#D69F98" d="M46.647,345.109c0,0-19.817-3.505-23.108-4.328s-5.759-4.525-4.113-31.672
			c1.645-27.148,25.914-7.404,25.914-7.404L46.647,345.109z"/>
	</g>
	<g>
		<path fill="#FFFFFF" d="M114.83,73.332c7.91-0.452,12.628,4.073,16.197,10.389c1.306,5.578,0.538,11.289,1.313,17.298
			c2.771-5.683,7.44-8.804,13.117-10.61c4.761,2.881,9.699,4.807,15.469,3.687c3.485-0.676,6.198-2.81,9.267-4.269
			c3.964,1.354,9.039,0.543,13.067,0.591c4.536,4.227,10.657,5.063,16.789,2.269c1.489-0.678,2.796-1.458,4.225-2.269
			c7.137,2.028,12.899,5.636,14.597,13.216c0.501,2.238,2.604,2.747,4.48,3.207c25.473,6.257,37.346,20.128,41.108,45.299
			c-0.065,4.039-0.085,8.079-0.202,12.116c-0.746,25.615-21.92,46.52-47.59,46.704c-31.243,0.224-56.389-12.794-76.558-36.091
			c-10.87-12.556-17.685-27.288-22.282-43.127c-1.871-10.298-3.064-20.637-2.842-31.147c0.192-9.1-0.054-18.209-0.106-27.313
			L114.83,73.332z M176.352,100.49c-1.02-1.455-1.685-1.241-2.605,0.072c-2.277,3.25-5.569,5.163-9.341,6.449
			c5.999,6.584,15.462,6.55,21.315-0.055C181.881,105.758,178.637,103.749,176.352,100.49z"/>
	</g>
	<g>
		<path fill="#C08D86" d="M222,281.046v-4.022c4,0,5.782-1.855,5.782-3.519s-1.782-3.52-5.782-3.52v-4.022
			c6,0,9.804,3.313,9.804,7.542C231.804,277.733,228,281.046,222,281.046z"/>
	</g>
	<g>
		<path fill="#C08D86" d="M259,201.336v-2.011c2,0,3.598-0.29,4.39-0.566c-0.792-0.276-2.39-0.566-4.39-0.566v-2.011
			c1,0,6.91,0.186,6.91,2.577S260,201.336,259,201.336z"/>
	</g>
	<g>
		<path fill="#C08D86" d="M142,201.336v-2.011c2,0,3.597-0.29,4.39-0.566c-0.792-0.276-2.39-0.566-4.39-0.566v-2.011
			c1,0,6.909,0.186,6.909,2.577S143,201.336,142,201.336z"/>
	</g>
	<g>
		<path fill="#050206" d="M209.271,62.886c-3.246-0.274-6.521-0.207-9.784-0.292c-4.771,0.058-9.549,0.302-14.311,0.118
			c-3.976-0.153-7.04,2.82-10.091,3.208c-2.462,0.313-5.937-3.345-9.943-3.218c-7.452,0.236-14.917,0.01-22.376,0.088
			c-6.159,0.065-7.441,2.359-4.267,7.566c0.684,1.122,0.783,2.256,0.695,3.419c-0.494,6.531,1.885,11.953,6.264,16.635
			c4.761,2.881,9.699,4.806,15.469,3.687c3.485-0.676,7.912-2.989,9.267-4.269s1.479-1.926,1.479-5.337
			c0-5.486,5.327-6.023,9.327-6.1v9.087c0,0,1.496,3.182,1.453,3.181c4.554,3.871,11.637,4.833,17.56,2.134
			c1.489-0.678,2.938-1.56,4.367-2.371c4.781-4.612,6.974-10.204,6.504-16.836c-0.106-1.501,0.276-2.68,1.361-3.981
			C214.953,66.359,213.536,63.245,209.271,62.886z"/>
	</g>
	<g>
		<path fill="#D69F98" d="M182.628,78h-1.061l-2.784,0.932c0.119,0-0.202,0.206-0.202,0.797c0,4.213-1.896,7.45-6.043,8.118
			c1.144,1.778,1.867,2.152,4.138,2.152h5.952c3.551,0,6.372-2.034,6.372-5.586v-0.191C189,80.672,186.179,78,182.628,78z"/>
	</g>
	<g>
		<path fill="#B74445" d="M81.876,429.876c0,4.631-3.754,8.124-8.386,8.124H18.144c-4.631,0-8.386-3.492-8.386-8.124l-8.386-52.661
			c0-4.631,3.754-8.216,8.386-8.216h72.118c4.631,0,8.386,3.585,8.386,8.216L81.876,429.876z"/>
	</g>
	<g>
		<path fill="#9C2E2F" d="M1.373,377.32c0-4.631,3.754-8.32,8.386-8.32h72.118c4.631,0,8.386,3.68,8.386,8.312"/>
	</g>
	<path fill="#FFFFFF" d="M87.81,30.162c0,0-14.078-5.028-4.022-13.072S95.854,31.167,87.81,30.162z"/>
	<path fill="#B74445" d="M185.348,40.217c4.022-5.028-3.017-10.056-6.134-17.095c-3.954-8.927-9.239-16.975-23.084-19.105
		c-18.272-2.811-28.155-7.039-43.239,4.022S90.769,25.134,88.758,25.134s-2.011,6.033,3.017,8.044
		c4.035,1.614,16.146,1.006,23.185,11.061c1.006,5.028-2.011,11.061,2.011,17.094c0,0,18.1-12.067,31.172-18.1
		C161.215,37.201,185.348,40.217,185.348,40.217z"/>
	<g>
		<path fill="#FFFFFF" d="M169.881,43.216c0,0-1.746-9.205,6.922-9.959c0,0-19.595-10.174-21.856,7.913L169.881,43.216z"/>
	</g>
</g>
</svg>
