<?xml version="1.0" encoding="utf-8"?>
<!-- Generator: Adobe Illustrator 17.0.1, SVG Export Plug-In . SVG Version: 6.00 Build 0)  -->
<!DOCTYPE svg PUBLIC "-//W3C//DTD SVG 1.1//EN" "http://www.w3.org/Graphics/SVG/1.1/DTD/svg11.dtd">
<svg version="1.1" id="Capa_1" xmlns="http://www.w3.org/2000/svg" xmlns:xlink="http://www.w3.org/1999/xlink" x="0px" y="0px"
	 width="422px" height="502.5px" viewBox="0 -14.5 422 502.5" enable-background="new 0 -14.5 422 502.5" xml:space="preserve">
<path opacity="0.3" fill="#37283A" d="M203,28.5h-32v29h32V28.5z M225,57.5h32v-29h-32V57.5z M337,175.5h-8v-59h-19v-56h-16v-13h-16
	v35h-18v-3h16v-72h-30v-19h-43v16h22v3h-32v18h13v35h-53v19h-16v19h-16v57h-19v73h13v22h22v21h34v35h54v-21h13v21h56v-56h16v-22h19
	v-18h8V175.5z M153,151.5h-6v-13h6V151.5z M222,60.5v-35h38v35H222z M185,437.5h18v-126h-18V437.5z M401,111.5v-18h-85v18h17v35h36
	v40h16v19h35v-94H401z M137,477.5h66v-32h-66V477.5z M333,434.5h40v-67h-40V434.5z M289,311.5h-13v75h53v-19h-40V311.5z M115,151.5
	v-53H62v-41H46v-26H11v101h19v19H115z"/>
<g>
	<rect x="249" y="72" fill="#FFFFFF" width="16" height="19"/>
	<rect x="195" y="72" fill="#FFFFFF" width="19" height="19"/>
	<rect x="214" y="72" fill="#FFFFFF" width="13" height="19"/>
	<rect x="227" y="72" fill="#FFFFFF" width="22" height="19"/>
	<rect x="142" y="72" fill="#FFFFFF" width="42" height="40"/>
	<rect x="160" y="72" fill="#FFFFFF" width="14" height="19"/>
	<rect x="182" y="72" fill="#FFFFFF" width="13" height="19"/>
	<rect x="249" y="72" fill="#FFFFFF" width="16" height="19"/>
	<rect x="267" y="72" fill="#DEA49C" width="16" height="19"/>
	<rect x="275" y="72" fill="#DEA49C" width="24" height="22"/>
	<rect x="195" y="43" fill="#DEA49C" width="16" height="29"/>
	<rect x="249" y="40" fill="#DEA49C" width="16" height="32"/>
	<rect x="267" y="59" fill="#DEA49C" width="16" height="27"/>
	<rect x="195" y="37" fill="#DEA49C" width="16" height="16"/>
	<rect x="160" y="40" fill="#030104" width="32" height="29"/>
	<rect x="214" y="40" fill="#030104" width="32" height="29"/>
	<rect x="249" y="37" fill="#FFFFFF" width="16" height="16"/>
	<rect x="195" y="19" fill="#DEA49C" width="19" height="18"/>
	<rect x="214" y="19" fill="#DEA49C" width="13" height="18"/>
	<rect x="227" y="19" fill="#DEA49C" width="22" height="18"/>
	<rect x="182" y="19" fill="#DEA49C" width="13" height="18"/>
	<rect x="249" y="19" fill="#DEA49C" width="16" height="18"/>
	<rect x="249" y="37" fill="#DEA49C" width="16" height="16"/>
	<rect x="192" fill="#FFFFFF" width="22" height="16"/>
	<rect x="214" fill="#DEA49C" width="21" height="19"/>
	<rect x="192" y="163" fill="#DEA49C" width="22" height="21"/>
	<rect x="214" y="163" fill="#DEA49C" width="13" height="21"/>
	<rect x="227" y="163" fill="#DEA49C" width="22" height="21"/>
	<rect x="136" y="163" fill="#DEA49C" width="19" height="21"/>
	<rect x="160" y="163" fill="#DEA49C" width="14" height="21"/>
	<rect x="110" y="163" fill="#DEA49C" width="22" height="21"/>
	<rect x="289" y="158" fill="#DEA49C" width="22" height="26"/>
	<rect x="126" y="163" fill="#DEA49C" width="10" height="21"/>
	<rect x="174" y="163" fill="#DEA49C" width="18" height="21"/>
	<rect x="249" y="163" fill="#DEA49C" width="16" height="21"/>
	<rect x="267" y="163" fill="#DEA49C" width="16" height="21"/>
	<rect x="283" y="163" fill="#DEA49C" width="16" height="21"/>
	<rect x="227" y="150" fill="#DEA49C" width="91" height="13"/>
	<rect x="142" y="134" fill="#FFFFFF" width="85" height="29"/>
	<rect x="110" y="150" fill="#DEA49C" width="26" height="13"/>
	<rect x="249" y="150" fill="#DEA49C" width="16" height="13"/>
	<rect x="267" y="150" fill="#DEA49C" width="16" height="13"/>
	<rect x="283" y="150" fill="#DEA49C" width="16" height="13"/>
	<rect x="305" y="150" fill="#DEA49C" width="13" height="13"/>
	<rect x="195" y="128" fill="#FFFFFF" width="19" height="22"/>
	<rect x="214" y="128" fill="#FFFFFF" width="13" height="22"/>
	<rect x="227" y="128" fill="#FFFFFF" width="22" height="22"/>
	<rect x="142" y="128" fill="#FFFFFF" width="18" height="22"/>
	<rect x="160" y="128" fill="#FFFFFF" width="14" height="22"/>
	<rect x="110" y="128" fill="#DC9D91" width="16" height="22"/>
	<rect x="126" y="110" fill="#FFFFFF" width="120" height="40"/>
	<rect x="182" y="128" fill="#FFFFFF" width="13" height="22"/>
	<rect x="249" y="94" fill="#DEA49C" width="50" height="66"/>
	<rect x="267" y="128" fill="#DEA49C" width="16" height="22"/>
	<rect x="283" y="128" fill="#DEA49C" width="16" height="22"/>
	<rect x="297" y="128" fill="#DEA49C" width="21" height="27"/>
	<rect x="195" y="112" fill="#FFFFFF" width="19" height="16"/>
	<rect x="214" y="112" fill="#FFFFFF" width="13" height="16"/>
	<rect x="227" y="112" fill="#FFFFFF" width="22" height="16"/>
	<rect x="142" y="112" fill="#FFFFFF" width="18" height="16"/>
	<rect x="160" y="112" fill="#FFFFFF" width="14" height="16"/>
	<rect x="110" y="110" fill="#DC9D91" width="16" height="18"/>
	<rect x="126" y="112" fill="#FFFFFF" width="16" height="16"/>
	<rect x="182" y="112" fill="#FFFFFF" width="13" height="16"/>
	<rect x="267" y="112" fill="#DEA49C" width="16" height="16"/>
	<rect x="283" y="112" fill="#DEA49C" width="16" height="16"/>
	<rect x="305" y="105" fill="#C78E86" width="80" height="18"/>
	<rect x="195" y="91" fill="#FFFFFF" width="19" height="21"/>
	<rect x="214" y="91" fill="#FFFFFF" width="13" height="21"/>
	<rect x="227" y="91" fill="#FFFFFF" width="22" height="21"/>
	<rect x="142" y="91" fill="#FFFFFF" width="18" height="21"/>
	<rect x="160" y="91" fill="#FFFFFF" width="14" height="21"/>
	<rect x="126" y="91" fill="#FFFFFF" width="16" height="21"/>
	<rect x="182" y="91" fill="#FFFFFF" width="13" height="21"/>
	<rect x="267" y="91" fill="#DEA49C" width="16" height="21"/>
	<rect x="283" y="91" fill="#DEA49C" width="16" height="21"/>
	<rect x="192" y="262" fill="#DEA49C" width="22" height="21"/>
	<rect x="214" y="262" fill="#DEA49C" width="13" height="21"/>
	<rect x="227" y="262" fill="#DEA49C" width="22" height="21"/>
	<rect x="160" y="262" fill="#DEA49C" width="14" height="21"/>
	<rect x="174" y="262" fill="#DEA49C" width="18" height="21"/>
	<rect x="249" y="262" fill="#DEA49C" width="16" height="21"/>
	<rect x="126" y="163" fill="#DEA49C" width="157" height="120"/>
	<rect x="358" y="179" fill="#C78E86" width="16" height="19"/>
	<rect x="192" y="243" fill="#DEA49C" width="22" height="19"/>
	<rect x="214" y="243" fill="#DEA49C" width="13" height="19"/>
	<rect x="227" y="243" fill="#DEA49C" width="22" height="19"/>
	<rect x="136" y="243" fill="#DEA49C" width="19" height="19"/>
	<rect x="160" y="243" fill="#DEA49C" width="14" height="19"/>
	<rect x="104" y="243" fill="#DEA49C" width="190" height="19"/>
	<rect x="126" y="243" fill="#DEA49C" width="10" height="19"/>
	<rect x="136" y="262" fill="#DEA49C" width="19" height="21"/>
	<rect x="126" y="262" fill="#DEA49C" width="10" height="21"/>
	<rect x="174" y="243" fill="#DEA49C" width="18" height="19"/>
	<rect x="249" y="243" fill="#DEA49C" width="16" height="19"/>
	<rect x="267" y="243" fill="#DEA49C" width="16" height="19"/>
	<rect x="358" y="158" fill="#C78E86" width="51" height="40"/>
	<rect x="192" y="227" fill="#DEA49C" width="22" height="13"/>
	<rect x="214" y="227" fill="#DEA49C" width="13" height="13"/>
	<rect x="227" y="227" fill="#DEA49C" width="22" height="13"/>
	<rect x="136" y="227" fill="#DEA49C" width="19" height="13"/>
	<rect x="160" y="227" fill="#DEA49C" width="14" height="13"/>
	<rect x="104" y="227" fill="#DEA49C" width="19" height="13"/>
	<rect x="126" y="227" fill="#DEA49C" width="10" height="13"/>
	<rect x="174" y="227" fill="#DEA49C" width="18" height="13"/>
	<rect x="249" y="227" fill="#DEA49C" width="16" height="13"/>
	<rect x="267" y="227" fill="#DEA49C" width="16" height="13"/>
	<rect x="283" y="227" fill="#DEA49C" width="16" height="13"/>
	<rect x="283" y="243" fill="#DEA49C" width="16" height="19"/>
	<rect x="104" y="235" fill="#DEA49C" width="190" height="19"/>
	<rect x="283" y="235" fill="#DEA49C" width="16" height="19"/>
	<rect x="358" y="145" fill="#C78E86" width="16" height="13"/>
	<rect x="192" y="206" fill="#DEA49C" width="22" height="16"/>
	<rect x="214" y="206" fill="#DEA49C" width="13" height="16"/>
	<rect x="227" y="206" fill="#DEA49C" width="22" height="16"/>
	<rect x="136" y="206" fill="#DEA49C" width="19" height="16"/>
	<rect x="160" y="206" fill="#DEA49C" width="14" height="16"/>
	<rect x="104" y="206" fill="#DEA49C" width="19" height="16"/>
	<rect x="126" y="206" fill="#DEA49C" width="10" height="16"/>
	<rect x="174" y="206" fill="#DEA49C" width="18" height="16"/>
	<rect x="249" y="206" fill="#DEA49C" width="16" height="16"/>
	<rect x="267" y="206" fill="#DEA49C" width="16" height="16"/>
	<rect x="283" y="206" fill="#DEA49C" width="16" height="16"/>
	<rect x="358" y="123" fill="#C78E86" width="16" height="22"/>
	<rect x="192" y="184" fill="#DEA49C" width="22" height="22"/>
	<rect x="214" y="184" fill="#DEA49C" width="13" height="22"/>
	<rect x="227" y="184" fill="#DEA49C" width="22" height="22"/>
	<rect x="136" y="184" fill="#DEA49C" width="19" height="22"/>
	<rect x="160" y="184" fill="#DEA49C" width="14" height="22"/>
	<rect x="104" y="184" fill="#DEA49C" width="19" height="22"/>
	<rect x="126" y="184" fill="#DEA49C" width="10" height="22"/>
	<rect x="174" y="184" fill="#DEA49C" width="18" height="22"/>
	<rect x="249" y="184" fill="#DEA49C" width="16" height="22"/>
	<rect x="267" y="184" fill="#DEA49C" width="16" height="22"/>
	<rect x="283" y="184" fill="#DEA49C" width="16" height="22"/>
	<rect x="305" y="163" fill="#DEA49C" width="13" height="21"/>
	<rect x="305" y="227" fill="#DEA49C" width="13" height="13"/>
	<rect x="305" y="206" fill="#DEA49C" width="13" height="16"/>
	<rect x="313" y="187" fill="#DEA49C" width="13" height="35"/>
	<rect x="358" y="105" fill="#C78E86" width="16" height="18"/>
	<rect x="174" y="358" fill="#DEA49C" width="18" height="19"/>
	<rect x="265" y="358" fill="#DEA49C" width="13" height="19"/>
	<rect x="174" y="337" fill="#DEA49C" width="18" height="21"/>
	<rect x="265" y="337" fill="#DEA49C" width="13" height="21"/>
	<rect x="174" y="323" fill="#DEA49C" width="18" height="14"/>
	<rect x="265" y="323" fill="#DEA49C" width="13" height="70"/>
	<rect x="192" y="302" fill="#C44547" width="22" height="16"/>
	<rect x="227" y="283" fill="#C44547" width="56" height="35"/>
	<rect x="174" y="302" fill="#C44547" width="18" height="16"/>
	<rect x="249" y="302" fill="#C44547" width="16" height="16"/>
	<rect x="267" y="302" fill="#C44547" width="16" height="16"/>
	<rect x="192" y="283" fill="#C44547" width="22" height="14"/>
	<rect x="214" y="283" fill="#C44547" width="13" height="14"/>
	<rect x="227" y="283" fill="#C44547" width="22" height="14"/>
	<rect x="174" y="283" fill="#C44547" width="18" height="14"/>
	<rect x="160" y="302" fill="#C44547" width="14" height="16"/>
	<rect x="160" y="283" fill="#C44547" width="54" height="35"/>
	<rect x="249" y="283" fill="#C44547" width="16" height="14"/>
	<rect x="267" y="283" fill="#C44547" width="16" height="14"/>
	<rect x="337" y="145" fill="#C78E86" width="21" height="13"/>
	<rect x="322" y="110" fill="#C78E86" width="68" height="35"/>
	<rect x="337" y="123" fill="#C78E86" width="21" height="22"/>
	<rect x="318" y="105" fill="#C78E86" width="19" height="18"/>
	<rect x="337" y="105" fill="#C78E86" width="21" height="18"/>
	<rect x="374" y="179" fill="#C78E86" width="16" height="19"/>
	<rect x="396" y="179" fill="#C78E86" width="13" height="19"/>
	<rect x="374" y="158" fill="#C78E86" width="16" height="21"/>
	<rect x="396" y="158" fill="#C78E86" width="13" height="21"/>
	<rect x="374" y="145" fill="#C78E86" width="16" height="13"/>
	<rect x="396" y="145" fill="#C78E86" width="13" height="13"/>
	<rect x="374" y="123" fill="#C78E86" width="16" height="22"/>
	<rect x="322" y="123" fill="#C78E86" width="87" height="35"/>
	<rect x="374" y="105" fill="#C78E86" width="16" height="18"/>
	<rect x="91" y="227" fill="#DEA49C" width="227" height="13"/>
	<rect x="91" y="214" fill="#DEA49C" width="227" height="18"/>
	<rect x="91" y="176" fill="#DEA49C" width="227" height="16"/>
	<rect x="91" y="206" fill="#DEA49C" width="13" height="16"/>
	<rect x="91" y="167" fill="#DEA49C" width="224" height="53"/>
	<rect x="374" y="187" fill="#C78E86" width="35" height="30"/>
	<rect x="396" y="201" fill="#C78E86" width="13" height="16"/>
	<rect x="91" y="110" fill="#C78E86" width="13" height="18"/>
	<rect x="91" y="128" fill="#C78E86" width="13" height="16"/>
	<rect x="24" y="69" fill="#C78E86" width="27" height="22"/>
	<rect x="24" y="91" fill="#C78E86" width="27" height="24"/>
	<rect x="35" y="110" fill="#C78E86" width="16" height="18"/>
	<rect x="35" y="128" fill="#C78E86" width="16" height="16"/>
	<rect x="72" y="110" fill="#C78E86" width="19" height="18"/>
	<rect x="51" y="110" fill="#C78E86" width="21" height="18"/>
	<rect x="72" y="128" fill="#C78E86" width="19" height="16"/>
	<rect x="51" y="128" fill="#C78E86" width="21" height="16"/>
	<rect x="19" y="69" fill="#C78E86" width="16" height="17"/>
	<rect y="69" fill="#C78E86" width="13" height="17"/>
	<rect x="19" y="86" fill="#C78E86" width="16" height="24"/>
	<rect y="86" fill="#C78E86" width="13" height="24"/>
	<rect x="19" y="110" fill="#C78E86" width="16" height="18"/>
	<rect y="110" fill="#C78E86" width="29" height="18"/>
	<rect x="19" y="128" fill="#C78E86" width="16" height="16"/>
	<rect y="128" fill="#C78E86" width="29" height="16"/>
	<rect x="19" y="43" fill="#C78E86" width="16" height="21"/>
	<rect y="43" fill="#C78E86" width="35" height="67"/>
	<rect x="174" y="457" fill="#C44547" width="18" height="13"/>
	<rect x="322" y="436" fill="#C44547" width="21" height="10"/>
	<rect x="322" y="414" fill="#C44547" width="21" height="22"/>
	<rect x="126" y="457" fill="#C44547" width="66" height="32"/>
	<rect x="136" y="457" fill="#C44547" width="19" height="13"/>
	<rect x="160" y="457" fill="#C44547" width="14" height="13"/>
	<rect x="322" y="398" fill="#C44547" width="21" height="16"/>
	<rect x="322" y="379" fill="#C44547" width="40" height="67"/>
	<rect x="174" y="326" fill="#DEA49C" width="18" height="123"/>
	<rect x="299" y="379" fill="#DEA49C" width="19" height="19"/>
	<rect x="174" y="414" fill="#DEA49C" width="18" height="22"/>
	<rect x="275" y="379" fill="#DEA49C" width="24" height="19"/>
	<rect x="174" y="398" fill="#DEA49C" width="18" height="16"/>
	<rect x="265" y="379" fill="#DEA49C" width="13" height="19"/>
	<rect x="174" y="377" fill="#DEA49C" width="18" height="21"/>
	<rect x="265" y="377" fill="#DEA49C" width="13" height="21"/>
	<rect x="174" y="470" fill="#C44547" width="18" height="19"/>
	<rect x="343" y="436" fill="#C44547" width="19" height="10"/>
	<rect x="343" y="414" fill="#C44547" width="19" height="22"/>
	<rect x="126" y="470" fill="#C44547" width="10" height="19"/>
	<rect x="136" y="470" fill="#C44547" width="19" height="19"/>
	<rect x="160" y="470" fill="#C44547" width="14" height="19"/>
	<rect x="343" y="398" fill="#C44547" width="19" height="16"/>
	<rect x="343" y="379" fill="#C44547" width="19" height="19"/>
	<rect x="195" y="91" fill="#DEA49C" width="19" height="21"/>
	<rect x="19" y="110" fill="#C78E86" width="85" height="53"/>
</g>
</svg>
