<?xml version="1.0" encoding="utf-8"?>
<!-- Generator: Adobe Illustrator 17.0.1, SVG Export Plug-In . SVG Version: 6.00 Build 0)  -->
<!DOCTYPE svg PUBLIC "-//W3C//DTD SVG 1.1//EN" "http://www.w3.org/Graphics/SVG/1.1/DTD/svg11.dtd">
<svg version="1.1" id="Capa_1" xmlns="http://www.w3.org/2000/svg" xmlns:xlink="http://www.w3.org/1999/xlink" x="0px" y="0px"
	 width="482.055px" height="367.815px" viewBox="0 -4.815 482.055 367.815" enable-background="new 0 -4.815 482.055 367.815"
	 xml:space="preserve">
<path opacity="0.3" fill="#37283A" d="M381.536,206.207l-4.948,71.363l-6.308,11.372l69.682,15.135l39.783-9.365l-0.109-10.394
	l-4.86-76.534l-10.241-0.896l0.001-0.092l-6.125-1.637c-2.83-11.27-9.764-32.284-14.17-45.792
	c-0.495-7.479-2.41-13.354-6.741-15.564c0.567-2.355-0.433-4.79-2.354-5.549l-12.913-5.1c-1.307-0.516-2.703-0.118-3.731,0.891
	l-48.606-24.792c-18.996-21.872-37.773-31.079-50.212-34.948c4.32-4.464,6.284-9.819,5.838-16.118
	c-0.106-1.493,0.268-2.665,1.347-3.959c2.692-3.23,1.277-6.326-2.965-6.684c-3.228-0.272-6.485-0.206-9.73-0.291
	c-0.006,0-0.011,0-0.017,0c-1.268-1.68-2.954-3.026-4.917-3.859c-2.561-4.983-6.219-9.303-10.531-12.558
	c0.964,0.092,1.519,0.161,1.519,0.161c3.433-4.291-2.575-8.582-5.236-14.59C291.617,8.787,287.106,1.918,275.29,0.1
	c-15.595-2.399-24.03-6.008-36.904,3.433c-8.44,6.19-13.914,10.52-17.177,12.779c-0.065-4.433-2.725-9.005-7.663-5.055
	c-8.582,6.866,3.433,11.157,3.433,11.157c0.149,0.019,0.289,0.016,0.43,0.017c0.571,1.022,1.518,1.983,2.955,2.558
	c3.444,1.377,13.781,0.858,19.788,9.441c0.858,4.291-1.716,9.441,1.716,14.59c0,0,0.453-0.302,1.246-0.819
	c-0.611,1.773-1.079,3.603-1.376,5.48c-0.292,1.849-0.515,3.708-0.77,5.563c0.014-0.001,0.027,0,0.042-0.001
	c0.023,3.909,0.086,7.819,0.123,11.728c-22.374,2.047-45.281,2.817-52.075,1.029c-9.5-2.5-41,22.5-58,19.5
	c-18.078-3.19-27,13.5-42,22.5c-12,7-24,14-39,13s-26-12-41-7c14,25,30,26,54,39c8,4,16,15,26,15c5.24,0,24.341,3.489,41.905,2.796
	c12.374,0.952,25.073,1.973,36.93-1.219c2.105-0.585,4.154-1.311,6.168-2.114c-0.011,0.622-0.024,1.244-0.024,1.869
	c0,32.662,15.224,61.765,38.961,80.611l-6.764,46.082l-7.107,10.532l43.005,12.214l-0.13,6.18l-48.998-17.96
	c0.327-4.003-1.347-8.079-4.814-10.641c-1.969-1.454-4.233-2.206-6.506-2.32l0.494-0.662c0.66-0.886,0.478-2.139-0.408-2.799
	c-0.884-0.659-2.138-0.477-2.799,0.408l-35.266,47.3c-0.66,0.886-0.478,2.139,0.408,2.799c0.359,0.267,0.778,0.396,1.194,0.396
	c0.609,0,1.212-0.279,1.605-0.804l0.129-0.172c0.752,2.251,2.163,4.305,4.217,5.823c2.146,1.586,4.646,2.351,7.124,2.351
	c3.677,0,7.306-1.685,9.66-4.868l0.531-0.718l0.16,0.12l8.368-11.225l-0.207-0.154l3.23-4.37c0.782,0.524,1.629,0.974,2.552,1.313
	l66.839,24.5c1.341,0.492,2.738,0.733,4.129,0.733c2.384,0,4.748-0.71,6.77-2.091c3.2-2.186,5.147-5.782,5.229-9.657l0.351-16.703
	l1.549,0.44l40.353-6.273l0.636-10.034L308.625,305H320v-6.305l10.759,0.06l-3.992,37.04c-3.422,2.114-5.71,5.888-5.71,10.205
	c0,2.618,0.85,5.03,2.275,7h-1.275c-1.104,0-2,0.896-2,2s0.896,2,2,2h59c1.104,0,2-0.896,2-2s-0.896-2-2-2h-1.275
	c1.425-1.97,2.275-4.382,2.275-7c0-6.627-5.373-12-12-12h-19.964l4.897-45.44c0.349-3.234-0.688-6.466-2.855-8.892
	c-2.167-2.427-5.261-3.822-8.514-3.841L320,275.694v-6.926c35.293-16.303,59.787-52.007,59.787-93.437
	c0-4.752-0.329-9.427-0.953-14.008l26.477,16.38c-3.171,7.62-9.868,19.501-13.789,28.244L381.536,206.207z M439.333,148.483
	c-0.044-0.082-0.095-0.158-0.14-0.239c-0.104-0.186-0.204-0.374-0.313-0.556c0.166,0.062,0.331,0.118,0.498,0.194
	C439.269,147.833,439.26,148.047,439.333,148.483z M437.776,146.046c-0.028-0.038-0.058-0.074-0.086-0.112
	c-0.132-0.176-0.25-0.363-0.388-0.535c0.308,0.213,0.6,0.449,0.879,0.708C438.046,146.085,437.91,146.06,437.776,146.046z
	 M418.377,184.861l0.002,0.001c0.002,0,0.003,0,0.005,0.001c1.484,0.361,2.989,0.495,4.485,0.415l0.028-0.001
	c1.481-0.082,2.952-0.373,4.383-0.863c0.033-0.011,0.066-0.023,0.099-0.034c0.929-0.325,1.841-0.732,2.726-1.22
	c0.028-0.015,0.056-0.03,0.084-0.045c0.422-0.236,0.838-0.492,1.247-0.764c0.059-0.039,0.117-0.079,0.176-0.119
	c0.407-0.277,0.808-0.568,1.199-0.88c0.017-0.014,0.034-0.029,0.052-0.043c0.374-0.3,0.738-0.619,1.097-0.951
	c0.058-0.053,0.116-0.105,0.173-0.159c0.353-0.334,0.696-0.685,1.031-1.049c0.07-0.076,0.138-0.153,0.207-0.23
	c0.336-0.376,0.666-0.763,0.983-1.17c0.022-0.029,0.043-0.059,0.066-0.089c0.298-0.387,0.585-0.791,0.864-1.205
	c0.062-0.091,0.124-0.181,0.185-0.274c0.279-0.426,0.546-0.866,0.803-1.319c0.06-0.105,0.117-0.212,0.176-0.319
	c0.252-0.46,0.496-0.929,0.724-1.415c0.009-0.02,0.02-0.038,0.03-0.058l0.563-1.206c0.302-0.646,0.568-1.301,0.814-1.962
	c0.071-0.19,0.13-0.382,0.197-0.573c0.165-0.475,0.319-0.951,0.456-1.431c0.065-0.228,0.124-0.456,0.183-0.685
	c0.118-0.458,0.222-0.918,0.315-1.379c0.046-0.227,0.093-0.452,0.133-0.679c0.089-0.506,0.158-1.013,0.218-1.52
	c0.021-0.174,0.049-0.347,0.066-0.521c0.066-0.675,0.109-1.35,0.124-2.023c0.003-0.146-0.004-0.29-0.003-0.435
	c0.004-0.524-0.004-1.046-0.03-1.565c-0.009-0.181-0.022-0.361-0.035-0.541c0.169,0.544,0.343,1.1,0.522,1.673
	c0.721,13.813-3.304,33.193-5.715,44.544l-22.326,0.58c0.985-6.26,1.652-13.609,2.372-20.865
	C417.492,184.63,417.934,184.753,418.377,184.861z M455.181,204.295L455.181,204.295L455.181,204.295l-16.531,0.428
	c2.123-10.064,5.439-26.094,5.709-39.319c4.052,12.755,9.47,29.441,12.099,39.232L455.181,204.295z M253.972,66.979
	c-0.083-0.135-0.169-0.264-0.253-0.397C253.803,66.715,253.89,66.844,253.972,66.979z M252.753,65.156
	c-2.761-3.754-6.365-6.195-11.715-5.913C246.388,58.96,249.991,61.401,252.753,65.156z M253.375,66.045
	c-0.192-0.288-0.389-0.568-0.59-0.842C252.986,65.477,253.183,65.757,253.375,66.045z M406.561,178.477l6.934,4.29
	c0.719,0.459,1.456,0.846,2.202,1.178c-0.817,7.456-1.563,15.017-2.623,21.443l-19.864,0.516
	C397.039,197.409,403.435,185.971,406.561,178.477z"/>
<g>
	<path fill="#DEA49C" d="M182.19,308.35c-2.573-1.901-5.652-2.611-8.594-2.249l-33.162,41.685
		c-0.289,3.968,1.388,7.993,4.824,10.532c2.146,1.586,4.646,2.351,7.124,2.351c3.677,0,7.306-1.685,9.66-4.868l22.667-30.667
		C188.646,319.803,187.519,312.289,182.19,308.35z"/>
	<path fill="#DEA49C" d="M319.138,361h52.838c2.497-2.199,4.081-5.411,4.081-9c0-6.627-5.373-12-12-12h-37c-6.627,0-12,5.373-12,12
		C315.057,355.589,316.641,358.801,319.138,361z"/>
	<g>
		<path fill="#871F26" d="M121.904,182.564c13.329,0.987,27.152,2.468,39.988-0.987c8.886-2.468,16.785-7.405,25.178-10.367
			c17.279-6.912,35.051-10.367,53.318-14.317c10.367-1.975,18.266-7.899,20.241-19.254c4.443-25.178-22.216-50.95-44.925-50.95
			c-20.241,0.494-47.393,17.279-56.773,35.545c-6.912,13.329-12.342,28.241-26.165,35.152c-6.418,3.456-16.785,4.443-21.228,11.355"
			/>
	</g>
	<path fill="#DC9D91" d="M407.495,188.767c9.021,5.752,20.52,1.403,25.706-9.698l0.563-1.206
		c5.186-11.102,2.096-24.753-6.925-30.505l-98.182-50.08c-9.021-5.752-20.453-1.36-25.639,9.741l-0.563,1.206
		c-5.186,11.102,6.461,17.164,15.483,22.917l27.314,19.119L407.495,188.767z"/>
	
		<polyline fill="none" stroke="#DEA49C" stroke-width="23" stroke-linecap="round" stroke-linejoin="round" stroke-miterlimit="10" points="
		279.39,293 337.557,293.327 331.557,349 	"/>
	
		<polyline fill="none" stroke="#DEA49C" stroke-width="24" stroke-linecap="round" stroke-linejoin="round" stroke-miterlimit="10" points="
		249.015,288.833 247.646,354 180.807,329.5 	"/>
	<rect x="223" y="270" fill="#C44547" width="50" height="48"/>
	<rect x="268" y="274" fill="#C44547" width="46" height="37"/>
	<path fill="#DEA49C" d="M241.446,77.157c0,0-38.341,2.621-71.895,45.779l15.282,19.271l58.675-53.447L241.446,77.157z"/>
	<path fill="#DC9D91" d="M298.968,77.485c0,0,32.589,0.015,65.589,38.515l-10.139,16.448l-56.872-43.265L298.968,77.485z"/>
	<circle fill="#D99B90" cx="270.912" cy="181.332" r="102.875"/>
	<path fill="none" stroke="#C7918B" stroke-width="4" stroke-miterlimit="10" d="M324.83,228.391c3.608,0,6.532,2.075,6.532,4.636
		c0,2.56-2.924,4.636-6.532,4.636"/>
	<path fill="none" stroke="#C7918B" stroke-width="2" stroke-miterlimit="10" d="M355.223,169.059c2.733,0,4.948,0.59,4.948,1.317
		s-2.216,1.317-4.948,1.317"/>
	<path fill="none" stroke="#C7918B" stroke-width="2" stroke-miterlimit="10" d="M257.403,169.059c2.733,0,4.949,0.59,4.949,1.317
		s-2.216,1.317-4.949,1.317"/>
	<g>
		<path fill="#DEA49C" d="M199.156,93.849l51.024,84.86l-18.373,43.479c0,0-55.388-47.793-62.902-54.045
			C150.044,152.449,148.307,106.191,199.156,93.849z"/>
		<path fill="#D4878D" d="M284.919,191.102c2.453,1.268,3.414,4.284,2.147,6.737l0,0c-1.268,2.453-4.284,3.414-6.737,2.147
			l-15.991-8.263c-2.453-1.268-3.414-4.284-2.147-6.737l0,0c1.268-2.453,4.284-3.414,6.737-2.147L284.919,191.102z"/>
		<g>
			<path fill="#DEDDDD" d="M240.132,249.247c0.441,0.047,0.887-0.164,1.009-0.491c6.354-17.097-0.543-47.998,9.837-51.135
				c4.629-1.399,25.921-3.94,30.22-1.657c-1.598-0.849,6.139,50.318,4.901,54.935c-0.09,0.335,0.203,0.63,0.658,0.659
				c0.454,0.029,0.894-0.218,0.984-0.552c1.47-5.47-6.318-56.5-5.463-56.046c-4.764-2.53-26.587-0.021-31.796,1.554
				c-10.928,3.302-4.447,34.541-10.954,52.049c-0.123,0.331,0.141,0.637,0.588,0.684
				C240.121,249.245,240.127,249.246,240.132,249.247z"/>
			<polygon fill="#B8752D" points="261.543,337.989 301.896,331.716 302.532,321.682 303.174,247.52 292.315,245.836 
				283.88,242.795 			"/>
			<polygon fill="#D58D35" points="283.88,242.795 273.562,325.283 261.543,337.989 193.127,318.557 200.234,308.025 
				210.287,239.532 			"/>
			<polygon fill="#A36527" points="261.543,337.989 285.886,327.123 293.032,245.857 283.88,242.795 273.562,325.283 			"/>
			<path fill="#DA9547" d="M273.562,325.283c0,0-5.271-50.932-63.274-85.752l73.592,3.263L273.562,325.283z"/>
			<path fill="#E5E5E4" d="M220.273,246.518c-0.424,1.332-1.767,2.321-3.003,2.208c-1.236-0.112-1.892-1.283-1.469-2.614
				c0.423-1.332,1.766-2.321,3.001-2.209C220.037,244.016,220.695,245.187,220.273,246.518z"/>
			<path fill="#593889" d="M219.182,246.42c-0.217,0.683-0.906,1.19-1.539,1.133c-0.633-0.058-0.97-0.658-0.754-1.34
				c0.218-0.683,0.906-1.19,1.539-1.133C219.062,245.137,219.399,245.737,219.182,246.42z"/>
			<path fill="#E5E5E4" d="M267.857,248.89c-0.611,1.925-2.553,3.354-4.338,3.192s-2.736-1.854-2.124-3.778
				c0.611-1.925,2.554-3.354,4.338-3.192C267.517,245.273,268.468,246.965,267.857,248.89z"/>
			<path fill="#593889" d="M266.283,248.747c-0.313,0.987-1.31,1.719-2.224,1.636c-0.915-0.084-1.403-0.95-1.091-1.937
				c0.314-0.987,1.31-1.72,2.225-1.637C266.108,246.893,266.595,247.76,266.283,248.747z"/>
			<path fill="#DEDDDD" d="M217.838,246.891c0.441,0.047,0.887-0.164,1.009-0.491c6.354-17.097,18.522-45.983,28.903-49.12
				c4.629-1.399,26.204-6.829,30.503-4.546c13.657,7.251-11.517,44.883-14.447,55.808c-0.09,0.335,0.203,0.63,0.658,0.659
				c0.454,0.029,0.894-0.218,0.983-0.552c3.166-11.777,28.282-49.276,13.885-56.92c-4.764-2.53-26.869,2.868-32.078,4.442
				c-10.928,3.302-23.513,32.526-30.02,50.034c-0.123,0.331,0.141,0.637,0.588,0.684C217.827,246.89,217.832,246.89,217.838,246.891
				z"/>
			<polygon fill="#D58D35" points="285.886,327.123 301.896,331.716 261.543,337.989 			"/>
		</g>
		<circle fill="#DEA49C" cx="254.556" cy="206.762" r="28"/>
	</g>
	<path fill="#DC9D91" d="M429.146,144.254c2.01,0.794,3.032,3.425,2.283,5.877l-0.024,0.078c-0.749,2.452-2.986,3.796-4.996,3.002
		l-12.913-5.1c-2.01-0.794-3.032-3.425-2.283-5.877l0.024-0.078c0.749-2.452,2.986-3.796,4.996-3.002L429.146,144.254z"/>
	<g>
		<path fill="#DEDDDD" d="M406.024,220.086c0.443,0.016,0.873-0.233,0.97-0.579c5.069-18.089,3.39-58.713,13.511-62.692
			c4.513-1.775,8.415-4.979,12.872-2.933c-1.657-0.761,19.511,59.76,18.618,64.611c-0.065,0.351,0.249,0.635,0.705,0.632
			c0.455-0.003,0.875-0.289,0.94-0.64c1.061-5.747-20.148-66.124-19.261-65.717c-4.939-2.267-9.372,0.942-14.451,2.939
			c-10.655,4.19-9.366,45.192-14.557,63.716c-0.098,0.351,0.188,0.646,0.638,0.663C406.013,220.086,406.019,220.086,406.024,220.086
			z"/>
		<polygon fill="#B8752D" points="433.962,310.077 473.745,300.712 473.636,290.318 468.776,213.784 457.82,212.826 
			449.181,210.295 		"/>
		<polygon fill="#D58D35" points="449.181,210.295 445.007,296.11 433.962,310.077 364.28,294.942 370.588,283.57 375.536,212.207 
					"/>
		<polygon fill="#A36527" points="433.962,310.077 457.436,297.124 458.536,212.796 449.181,210.295 445.007,296.11 		"/>
		<path fill="#DA9547" d="M445.007,296.11c0,0-9.034-52.152-69.471-83.903l73.645-1.913L445.007,296.11z"/>
		<path fill="#E5E5E4" d="M386.013,218.697c-0.324,1.404-1.59,2.52-2.831,2.493c-1.241-0.027-1.982-1.187-1.659-2.59
			c0.323-1.404,1.589-2.52,2.83-2.493C385.593,216.133,386.336,217.293,386.013,218.697z"/>
		<path fill="#DA9547" d="M384.918,218.673c-0.166,0.72-0.815,1.292-1.451,1.278c-0.635-0.014-1.017-0.609-0.851-1.328
			c0.166-0.72,0.815-1.292,1.451-1.279C384.704,217.359,385.085,217.954,384.918,218.673z"/>
		<path fill="#E5E5E4" d="M433.651,217.73c-0.467,2.029-2.298,3.642-4.09,3.603s-2.866-1.716-2.399-3.745
			c0.467-2.029,2.298-3.643,4.09-3.604C433.044,214.024,434.118,215.701,433.651,217.73z"/>
		<path fill="#DA9547" d="M432.07,217.695c-0.239,1.04-1.179,1.867-2.097,1.847c-0.919-0.021-1.47-0.879-1.232-1.92
			c0.239-1.041,1.179-1.868,2.098-1.848C431.759,215.796,432.309,216.655,432.07,217.695z"/>
		<path fill="#DEDDDD" d="M383.612,219.256c0.443,0.016,0.873-0.233,0.97-0.579c2.275-8.117,12.546-25.507,16.371-35.141
			c4.699-11.837,10.727-24.647,16.306-26.841c4.513-1.775,8.482-7.978,12.939-5.932c14.159,6.499,1.497,55.421-0.615,66.899
			c-0.065,0.351,0.249,0.635,0.705,0.632c0.455-0.003,0.875-0.289,0.94-0.64c2.284-12.373,14.898-61.155-0.028-68.006
			c-4.939-2.267-9.439,3.941-14.519,5.938c-5.911,2.324-12.226,15.42-17.13,27.551c-3.936,9.736-14.282,27.207-16.593,35.454
			c-0.098,0.351,0.188,0.646,0.638,0.663C383.602,219.255,383.607,219.255,383.612,219.256z"/>
		<polygon fill="#D58D35" points="457.436,297.124 473.745,300.712 433.962,310.077 		"/>
	</g>
	<path fill="#D4878D" d="M431.046,151.093c-0.961,1.876-2.884,2.811-4.637,2.118l-5.418-2.14c-2.62-0.613-5.246-1.244-7.329-0.122
		c-5.845,3.149-10.15,12.018-12.057,18.574c-1.633,5.617-2.118,16.456,10.774,21.339c7.945,1.934,16.538-2.621,20.823-11.793
		l0.563-1.206C438.036,168.722,436.689,157.857,431.046,151.093z"/>
	<g>
		
			<line fill="none" stroke="#822F29" stroke-width="2" stroke-miterlimit="10" x1="191.171" y1="176.982" x2="197.787" y2="169.233"/>
		
			<line fill="none" stroke="#822F29" stroke-width="2" stroke-miterlimit="10" x1="193.453" y1="178.93" x2="200.068" y2="171.181"/>
		
			<line fill="none" stroke="#822F29" stroke-width="2" stroke-miterlimit="10" x1="188.889" y1="175.035" x2="195.505" y2="167.285"/>
	</g>
	<g>
		<path fill="#B74445" d="M243.843,116.411c-7.275-14.978-26.148-7.132-38.113-13.43c-11.965-6.298-29.478,0.777-36.471,8.05
			c-21.556,22.418-7.836,25.621-11.785,53.761C153.555,192.718,93.057,180,83.057,180s-18-11-26-15c-24-13-40-14-54-39
			c15-5,26,6,41,7s27-6,39-13c15-9,23.922-25.69,42-22.5c17,3,48.5-22,58-19.5s50.5,0,77.5-4c12-2-8.5-14,3.5-8
			c6,4,28.622,15.284,31.622,21.284c8,13-12.622,21.716-30.622,24.716c-7,1-13,1-18-5"/>
	</g>
	<g>
		<path fill="#D4878D" d="M248.544,73.952c0.476-9.882,0.849-19.723,6.786-28.374c4.73-6.893,10.911-11.584,18.833-14.091
			c0.822-0.26,1.594-0.676,2.39-1.02c-17.778-4.122-37.814,10.213-40.815,29.214c-0.292,1.849-0.515,3.708-0.77,5.563
			C241.598,64.865,245.553,68.658,248.544,73.952z"/>
		<path fill="#DEA49C" d="M285.472,59.031c2.557-0.325,5.126-2.817,8.458-2.689c3.991,0.154,7.996-0.05,11.995-0.099
			c-3.857-13.972-16.144-24.754-29.374-25.776c-0.796,0.344-1.568,0.76-2.39,1.02c-7.922,2.507-14.103,7.198-18.833,14.091
			c-5.936,8.651-6.31,18.492-6.786,28.374c1.095,4.676,0.451,9.463,1.101,14.499c2.322-4.763,6.236-7.379,10.995-8.893
			c-3.67-3.924-5.664-8.469-5.25-13.943c0.074-0.974-0.01-1.925-0.583-2.866c-2.66-4.365-1.586-6.288,3.577-6.342
			c6.252-0.066,12.509,0.125,18.755-0.074C280.496,56.227,283.409,59.294,285.472,59.031z"/>
		<path fill="#DEA49C" d="M306.524,81.557c0,0-10.773,1.456-14.591-1.789c0.036,0.001-0.933-2.667-0.933-2.667v-7.616
			c-4,0.064-8.102,0.514-8.102,5.113c0,2.859-0.403,3.4-1.539,4.473s-4.839,3.011-7.76,3.578c-4.837,0.938-8.972-0.676-12.963-3.09
			c-3.67-3.925-5.663-8.469-5.248-13.943c0.074-0.974-0.009-1.925-0.582-2.866c-2.66-4.365-1.585-6.288,3.577-6.342
			c6.252-0.066,12.509,0.125,18.755-0.074c3.358-0.107,6.271,2.96,8.334,2.697c2.557-0.325,5.126-2.817,8.458-2.689
			c3.991,0.154,7.996-0.05,11.995-0.099C305.926,56.243,308.35,71.462,306.524,81.557z"/>
		<path fill="#FFFFFF" d="M234.968,65.244c6.63-0.379,10.585,3.414,13.576,8.708c1.095,4.676,0.451,9.463,1.101,14.499
			c2.322-4.763,6.236-7.379,10.995-8.893c3.991,2.414,8.13,4.029,12.966,3.09c2.921-0.567,5.195-2.355,7.767-3.578
			c3.322,1.135,7.577,0.455,10.953,0.495c3.802,3.543,13.073,2.097,14.758-0.935c5.982,1.7,13.668,5.658,15.091,12.012
			c0.42,1.876,2.183,2.302,3.755,2.688c21.351,5.244,31.303,16.871,34.456,37.97c-0.055,3.385-0.071,6.772-0.17,10.156
			c-0.625,21.47-18.373,38.993-39.89,39.147c-26.188,0.188-47.265-10.724-64.17-30.251c-9.111-10.524-14.823-22.873-18.676-36.149
			c-1.568-8.631-2.568-17.298-2.382-26.107c0.161-7.627-0.045-15.262-0.089-22.894L234.968,65.244z M286.535,88.007
			c-0.855-1.22-1.412-1.04-2.183,0.061c-1.909,2.724-4.668,4.328-7.83,5.406c5.029,5.518,12.96,5.49,17.866-0.046
			C291.169,92.423,288.45,90.74,286.535,88.007z"/>
		<circle fill="#3E6EAF" cx="264.421" cy="57.508" r="3.822"/>
		<g>
			<circle fill="#FFFFFF" cx="264.421" cy="60.508" r="12.07"/>
			<circle fill="#38A5DA" cx="264.421" cy="60.508" r="6.337"/>
			<circle fill="#FFFFFF" cx="267.807" cy="54.865" r="1.609"/>
		</g>
		<circle fill="#3E6EAF" cx="298.528" cy="57.508" r="3.822"/>
		<g>
			<circle fill="#FFFFFF" cx="298.528" cy="60.508" r="12.07"/>
			<circle fill="#38A5DA" cx="298.528" cy="60.508" r="6.337"/>
			<circle fill="#FFFFFF" cx="301.914" cy="54.865" r="1.609"/>
		</g>
		<path fill="#D4878D" d="M297,74.5c0,3.038-2.462,5.5-5.5,5.5h-7c-3.038,0-5.5-2.462-5.5-5.5l0,0c0-3.038,2.462-5.5,5.5-5.5h7
			C294.538,69,297,71.462,297,74.5L297,74.5z"/>
		<g>
			<path fill="#DEA49C" d="M291.56,69h-14.092c0.115,0,0.177,0.926,0.177,1.501c0,4.098-3.079,7.231-7.112,7.881
				c1.113,1.729,3.05,2.618,5.259,2.618h15.768c3.455,0,6.44-2.461,6.44-5.915v-0.186C298,71.444,295.015,69,291.56,69z"/>
			<path fill="#030104" d="M317.904,53.543c-3.228-0.272-6.485-0.206-9.73-0.291c-4.745,0.058-9.497,0.3-14.232,0.117
				c-3.954-0.152-7.001,2.805-10.036,3.19c-2.448,0.311-5.904-3.327-9.888-3.2c-7.411,0.235-14.835,0.01-22.252,0.087
				c-6.125,0.064-7.4,2.346-4.243,7.525c0.68,1.116,0.779,2.244,0.692,3.4c-0.492,6.495,1.875,11.887,6.229,16.543
				c4.735,2.865,9.646,4.78,15.384,3.667c3.466-0.672,7.868-2.973,9.216-4.245c1.348-1.273,1.576-1.916,1.576-5.307
				c0-5.456,5.38-5.99,9.38-6.066v9.036c0,0,1.382,3.165,1.34,3.164c4.529,3.85,11.52,4.806,17.411,2.123
				c1.481-0.675,2.895-1.551,4.316-2.357c4.755-4.586,6.922-10.148,6.455-16.743c-0.106-1.493,0.268-2.665,1.347-3.959
				C323.561,56.997,322.146,53.901,317.904,53.543z"/>
			<path fill="#DEA49C" d="M291.408,69h-1.055l-2.769,0.714c0.118,0-0.201,0.098-0.201,0.686c0,4.19-1.886,7.602-6.01,8.266
				c1.138,1.768,1.857,2.334,4.115,2.334h5.919c3.532,0,6.592-2.516,6.592-6.047v-0.19C298,71.231,294.94,69,291.408,69z"/>
		</g>
		<path fill="#FFFFFF" d="M210.979,28.414c0,0-12.015-4.291-3.433-11.157C216.129,10.391,217.845,29.272,210.979,28.414z"/>
		<path fill="#B74445" d="M294.228,36.996c3.433-4.291-2.575-8.582-5.236-14.59c-3.375-7.619-7.886-14.488-19.702-16.306
			c-15.595-2.399-24.03-6.008-36.904,3.433s-18.881,14.59-20.597,14.59s-1.716,5.149,2.575,6.866
			c3.444,1.377,13.781,0.858,19.788,9.441c0.858,4.291-1.716,9.441,1.716,14.59c0,0,15.448-10.299,26.605-15.448
			C273.63,34.421,294.228,36.996,294.228,36.996z"/>
		<g>
			<path fill="#FFFFFF" d="M281.027,39.555c0,0-1.49-7.857,5.908-8.5c0,0-16.724-8.684-18.654,6.754L281.027,39.555z"/>
		</g>
	</g>
	<g>
		<rect x="350" y="340" fill="#C44547" width="14" height="23"/>
	</g>
	<g>
		<path fill="#C44547" d="M375.057,363h-59c-1.104,0-2-0.896-2-2s0.896-2,2-2h59c1.104,0,2,0.896,2,2S376.161,363,375.057,363z"/>
	</g>
	<g>
		
			<rect x="146.198" y="335.716" transform="matrix(-0.8017 -0.5977 0.5977 -0.8017 79.2814 711.7341)" fill="#C44547" width="23" height="14.001"/>
	</g>
	<g>
		<path fill="#C44547" d="M139.307,353.472c-0.416,0-0.835-0.129-1.194-0.396c-0.886-0.66-1.068-1.913-0.408-2.799l35.266-47.3
			c0.661-0.885,1.915-1.067,2.799-0.408c0.886,0.66,1.068,1.913,0.408,2.799l-35.266,47.3
			C140.519,353.193,139.916,353.472,139.307,353.472z"/>
	</g>
</g>
<g>
	<path fill="#262220" d="M216.576,281.222c-1.479,1.053-3.053,1.973-4.364,3.259c-0.521,0.511-0.586,0.017-0.592-0.385
		c-0.015-1.016,0.225-2.009,0.29-3.024c0.122-1.922,0.472-3.83,0.727-5.745c1.405-0.951,2.757-2.001,4.238-2.814
		c0.784-0.431,1.275-1.287,2.221-1.432c0.266,0.389,0.637,0.355,1.024,0.253c-0.013,0.086-0.026,0.172-0.039,0.258
		c-0.352,0.186-0.703,0.371-1.246,0.658c0.399,0.04,0.589,0.059,0.779,0.077c-0.128,0.132-0.39,0.319-0.362,0.387
		c0.122,0.296,0.399,0.038,0.605,0.095c-0.007,0.17-0.015,0.341-0.022,0.511l0.018-0.012c-0.294-0.026-0.576-0.018-0.766,0.26
		l0.019-0.016c-0.079,0.078-0.159,0.156-0.238,0.233c0.018,0.19,0.036,0.38,0.054,0.571c0,0-0.005,0.011-0.006,0.011
		c-0.105,0.067-0.209,0.134-0.313,0.202c-0.08,0.081-0.16,0.161-0.24,0.242c-0.033,0.016-0.071,0.026-0.098,0.049
		c-0.014,0.012-0.008,0.046-0.011,0.07c0.031-0.044,0.061-0.089,0.092-0.133c0.221,0.026,0.403-0.027,0.499-0.25
		c0.549,0.014,1.211-0.302,1.489,0.508l0.013-0.01c-0.302-0.058-0.581-0.045-0.76,0.259l0.011-0.011
		c-0.221,0.113-0.269,0.223,0.005,0.329c0.016,0.086,0.033,0.172,0.049,0.258c-0.166,0.266,0.017,0.409,0.195,0.553
		c0.207,0.216,0.462,0.119,0.703,0.109c-0.251,0.224-0.511,0.439-0.751,0.675c-0.127,0.125-0.318,0.312,0.001,0.414
		c0.108,0.035,0.273-0.109,0.412-0.171C219.325,279.029,217.957,280.132,216.576,281.222z M218.68,277.374
		c-0.139,0.262-0.606,0.157-0.654,0.583c0.457-0.16,0.991-0.216,1.166-0.651c0.17-0.423-0.182-0.101-0.301-0.114
		c-0.097-0.294-0.241-0.502-0.596-0.33C218.423,277.033,218.551,277.203,218.68,277.374z M219.256,276.469l0.045-0.063l-0.082-0.005
		L219.256,276.469z"/>
	<path fill="#262220" d="M230.059,275.825c-0.518-0.029-0.321,0.363-0.341,0.604c-0.148,1.825-0.3,3.65-0.417,5.477
		c-0.028,0.438-0.183,0.582-0.603,0.523c-1.785-0.248-1.777-0.244-1.592-2.034c0.319-3.081,0.651-6.16,0.916-9.245
		c0.051-0.596,0.284-0.694,0.757-0.639c1.612,0.186,3.237,0.303,4.832,0.587c1.227,0.219,2.06,2.037,1.947,3.353
		c-0.143,1.676-0.864,2.738-2.486,3.188c-2.061,0.572-2.579,0.263-3.044-1.839c0.357,0.029,0.697,0.03,1.065,0.155
		c0.843,0.287,2.005-0.543,2.197-1.463c0.168-0.803-0.566-1.768-1.455-1.914c-1.224-0.201-1.883,0.25-1.922,1.428
		C229.895,274.606,229.821,275.235,230.059,275.825z"/>
	<path fill="#262220" d="M261.508,281.819c-0.979-0.204-1.796,0.345-2.681,0.561c-0.491,0.12-0.728,0.555-0.779,0.971
		c-0.065,0.521,0.328,0.829,0.831,0.891c0.363,0.045,0.632,0.366,1.046,0.267c0.482-0.116,0.443,0.26,0.364,0.53
		c-0.086,0.293,0.017,0.87-0.434,0.788c-0.886-0.162-1.805,0.247-2.686-0.49c-1.24-1.037-1.575-1.482-1.172-3.001
		c0.306-1.156,1.369-1.376,2.316-1.655c0.842-0.248,1.72-0.37,2.577-0.569c0.445-0.103,0.94-0.235,0.9-0.825
		c-0.042-0.614-0.532-0.777-1.053-0.836c-0.765-0.086-1.516-0.32-2.299,0.027c-0.355,0.157-0.953,0.366-1.058-0.303
		c-0.078-0.499-0.08-1.08,0.709-1.191c1.662-0.235,3.3-0.342,4.844,0.493c0.82,0.443,1.162,1.007,1.097,2.072
		c-0.119,1.952-0.658,3.864-0.527,5.83c0.043,0.645-0.359,0.876-0.822,0.762c-0.577-0.142-1.591,0.21-1.563-0.868
		C261.144,284.144,261.363,283.021,261.508,281.819z"/>
	<path fill="#262220" d="M239.078,282.042c-0.263,1.654-0.263,1.654-2.048,1.31c-2.059-0.397-2.662-1.266-2.288-3.3
		c0.213-1.16,1.285-1.889,3.182-1.998c0.734-0.042,1.352-0.277,1.984-0.58c0.8-0.383,0.71-0.706,0.044-1.189
		c-0.952-0.692-1.962-0.127-2.932-0.259c-0.374-0.051-1.031,0.353-1.001-0.413c0.02-0.51,0.122-1.225,0.984-1.067
		c0.925,0.17,1.818-0.145,2.782-0.021c2.88,0.372,3.145,1.743,2.859,3.969c-0.17,1.324-0.46,2.641-0.441,3.976
		c0.015,1.122-0.562,1.21-1.471,1.246c-1.158,0.045-0.874-0.675-0.857-1.297c0.022-0.818,0.437-1.589,0.281-2.431
		c-0.051-0.273-0.067-0.72-0.415-0.552c-0.713,0.343-1.559,0.098-2.218,0.602c-0.377,0.288-0.983,0.411-0.768,1.08
		c0.189,0.587,0.536,1.012,1.257,0.93C238.336,282.011,238.666,282.042,239.078,282.042z"/>
	<path fill="#262220" d="M242.765,281.849c0.881,0.102,1.378,0.899,2.263,0.738c0.472-0.086,0.934-0.212,1.141-0.627
		c0.197-0.395-0.339-0.604-0.447-0.925c-0.401-1.192-1.825-1.615-2.097-2.914c-0.298-1.423,0.309-2.58,1.735-2.782
		c1.16-0.164,2.369-0.095,3.428,0.523c0.523,0.305,0.342,0.775,0.173,1.28c-0.249,0.746-0.583,0.147-0.8,0.078
		c-0.493-0.158-0.947-0.159-1.451-0.065c-0.812,0.152-0.945,0.684-0.46,1.13c0.761,0.7,1.091,1.699,1.894,2.36
		c0.826,0.679,0.701,1.767,0.361,2.502c-0.336,0.729-1.189,1.264-2.188,1.153c-0.24-0.026-0.491,0-0.731,0.037
		c-0.858,0.129-1.589-0.294-2.355-0.541C242.031,283.411,243.36,282.424,242.765,281.849z"/>
	<path fill="#262220" d="M255.994,278.572c-1.176-0.528-2.41-0.947-3.592-0.183c-0.769,0.497-1.044,2.486-0.742,3.395
		c0.684,2.063,2.397,1.497,3.867,1.565c-0.147,1.032-0.227,1.981-1.712,1.952c-1.787-0.034-3.492-0.802-4.021-2.007
		c-0.836-1.905-0.67-3.75,0.215-5.577c0.664-1.371,3.162-2.091,4.783-1.567C256.125,276.581,256.317,277.385,255.994,278.572z"/>
	<path fill="#262220" d="M266.192,274.73c1.49,0.011,1.399-0.004,1.158,1.428c-0.288,1.712-0.402,3.453-0.587,5.182
		c-0.163,1.525-0.255,3.062-0.504,4.573c-0.168,1.015-1.062,0.391-1.61,0.464c-0.322,0.043-0.762,0.011-0.656-0.777
		c0.457-3.413,0.801-6.845,1.06-10.279C265.142,274.149,265.906,275.006,266.192,274.73z"/>
	<path fill="#845F96" d="M219.097,271.082c-0.946,0.145-1.437,1.001-2.221,1.432c-1.481,0.813-2.832,1.863-4.238,2.814
		c0.157-1.615,0.314-3.23,0.473-4.845c0.04-0.409,0.357-0.414,0.641-0.382c1.69,0.189,3.379,0.391,5.068,0.599
		c0.112,0.014,0.212,0.115,0.318,0.176C219.124,270.945,219.111,271.014,219.097,271.082z"/>
	<path fill="#845F96" d="M216.576,281.222c1.381-1.091,2.748-2.193,3.632-3.759c0.036-0.053,0.038-0.108,0.002-0.163
		c0.303,0.135,0.571,0.184,0.642-0.258l-0.017,0.012c0.215,0.037,0.322-0.032,0.263-0.266l-0.019,0.008
		c0.627,0.152,0.721-0.666,1.251-0.688c0.113,1.749-0.406,3.437-0.506,5.165c-0.034,0.582-0.462,0.471-0.806,0.469
		C219.52,281.73,218.052,281.444,216.576,281.222z"/>
	<path fill="#71517E" d="M220.334,275.056c-0.278-0.81-0.939-0.494-1.489-0.508l0.011,0.016c0.052-0.055,0.073-0.12,0.061-0.195
		c0,0,0.005-0.011,0.005-0.012c0.315-0.104,0.542-0.322,0.978-0.228c0.608,0.132,0.809-0.256,0.449-0.814l-0.011,0.01
		c0.087-0.087,0.174-0.174,0.26-0.261l-0.012,0.012c0.16-0.093,0.319-0.187,0.479-0.28c0.06,0.059,0.12,0.119,0.181,0.178
		c-0.152,0.676,0.415,0.054,0.51,0.282c0.056,0.053,0.086,0.119,0.091,0.195c-0.097,0.064-0.251,0.112-0.278,0.199
		c-0.051,0.166,0.126,0.164,0.215,0.14c0.225-0.06,0.441-0.153,0.661-0.232c0.095,0.013,0.19,0.025,0.285,0.038
		c-0.041,0.175-0.081,0.35-0.122,0.526c-0.006,0.157-0.316,0.308-0.011,0.472c0.023,0.231,0.879,0.39,0.06,0.694
		c-0.607-0.069-0.975,0.427-1.471,0.62c-0.038-0.047-0.08-0.091-0.125-0.131c-0.08-0.263-0.606-0.24-0.429-0.67
		c0.212-0.009,0.368-0.102,0.451-0.303c0.042-0.052,0.274-0.042,0.058-0.178c-0.015,0.063-0.03,0.127-0.044,0.19
		c-0.24-0.075-0.397,0.033-0.511,0.233C220.502,275.052,220.418,275.054,220.334,275.056z"/>
	<path fill="#71517E" d="M220.082,271.593c0.013-0.086,0.026-0.172,0.039-0.258c0.076-0.075,0.151-0.151,0.227-0.226
		c0.178-0.065,0.356-0.13,0.534-0.194v0.053c0.248,0.805,0.641,0.098,0.967,0.093c0.135-0.025,0.309-0.012,0.239-0.24l-0.01,0.028
		c0.799-0.117,1.22,0.068,0.759,0.954c-0.003,0.098-0.005,0.197-0.008,0.295c0,0,0.017-0.022,0.017-0.021
		c-0.534,0.3-1.067,0.6-1.601,0.9c-0.06-0.059-0.12-0.119-0.181-0.178c0.125-0.125,0.379-0.312,0.353-0.365
		c-0.124-0.256-0.391-0.021-0.586-0.103c0.12-0.336,0.137-0.603-0.356-0.523c0.121-0.159,0.044-0.194-0.112-0.18
		C220.271,271.616,220.176,271.605,220.082,271.593z"/>
	<path fill="#37283A" d="M221.186,275.909c0.496-0.193,0.864-0.689,1.471-0.62c-0.01,0.092-0.021,0.185-0.032,0.277
		c-0.139-0.008-0.395-0.081-0.374,0.078c0.043,0.323,0.31,0.144,0.497,0.113c-0.139,0.117-0.278,0.234-0.418,0.351
		c-0.531,0.023-0.624,0.841-1.251,0.689c0.07-0.138,0.225-0.374,0.195-0.4c-0.284-0.249-0.452,0.22-0.726,0.145
		c-0.241,0.01-0.497,0.107-0.703-0.109c0.113-0.196,0.354-0.432,0.308-0.579c-0.058-0.189-0.327-0.014-0.503,0.026
		c-0.016-0.086-0.033-0.172-0.049-0.258c-0.002-0.11-0.003-0.219-0.005-0.329l-0.011,0.011c0.285,0.006,0.59,0.072,0.76-0.259
		l-0.013,0.01c0.084-0.002,0.168-0.004,0.252-0.006l0.047,0.06c-0.178,0.428,0.348,0.405,0.428,0.668
		c-0.049,0.052-0.147,0.143-0.141,0.15C221.011,276.041,221.106,276.03,221.186,275.909z"/>
	<path fill="#605959" d="M243.286,289.158c-0.665-1.162-0.068-2.02,0.066-3.019c0.312,0.9,0.169,2.81,1.778,0.631
		c0.014,0.926-0.233,1.46-0.98,1.402C243.471,288.12,243.48,288.581,243.286,289.158z"/>
	<path fill="#605959" d="M248.324,286.744c0.863-0.3,1.534,0.144,2.345,0.203c-1.671,0.086-1.35,1.334-1.434,2.345
		C248.388,288.546,250.252,287.114,248.324,286.744z"/>
	<path fill="#605959" d="M240.095,285.464c0.533,1.196-0.46,2.04-0.39,3.046C239.361,286.375,239.361,286.375,240.095,285.464z"/>
	<path fill="#605959" d="M253.574,290.188c-0.756-1.217-0.018-2.101-0.148-2.961c0.448,0.021,0.896,0.042,1.344,0.063
		C253.418,287.734,253.63,288.866,253.574,290.188z"/>
	<path fill="#605959" d="M265.899,288.54c0.157,0.95-2.656-0.824-0.717,1.381c-0.879,0.042-1.185-0.453-1.042-0.957
		C264.47,287.811,265.311,288.71,265.899,288.54z"/>
	<path fill="#37283A" d="M220.348,271.109c-0.076,0.075-0.151,0.151-0.227,0.226c-0.387,0.102-0.758,0.136-1.024-0.253
		c0.014-0.069,0.027-0.138,0.04-0.206c0.635-0.228,0.913-1.042,1.694-1.03C221.007,270.396,220.329,270.619,220.348,271.109z"/>
	<path fill="#37283A" d="M238.182,288.292c0.267-0.916,0.415-1.584,0.189-2.242c-0.065-0.188-0.112-0.289,0.108-0.303
		c0.101-0.007,0.301,0.092,0.299,0.138C238.755,286.627,239.295,287.493,238.182,288.292z"/>
	<path fill="#37283A" d="M257.222,287.75c-1.35,0.619-0.621,1.668-0.79,2.635C255.597,288.693,255.784,287.958,257.222,287.75z"/>
	<path fill="#605959" d="M260.506,288.158c-0.875-0.121-1.028,0.333-0.985,1.015c0.009,0.146-0.043,0.48-0.287,0.45
		c-0.253-0.03-0.257-0.215-0.229-0.522C259.142,287.552,259.251,287.441,260.506,288.158z"/>
	<path fill="#605959" d="M260.866,290.645c-1.59-0.622-0.419-1.414-0.15-2.288c0.797,0.819-0.696,1.628,0.136,2.309L260.866,290.645
		z"/>
	<path fill="#605959" d="M234.64,288.111c-0.583-1.042-0.45-1.762-0.145-2.491C234.846,286.313,234.745,287.04,234.64,288.111z"/>
	<path fill="#605959" d="M221.849,271.061c-0.326,0.004-0.719,0.712-0.967-0.093c0.366,0.092,0.566-0.107,0.713-0.403l-0.032,0.03
		c0.07-0.065,0.14-0.129,0.21-0.194c-0.066-0.028-0.133-0.057-0.199-0.085c0.002-0.086,0.003-0.171,0.005-0.257
		c0.044-0.271,0.236-0.402,0.468-0.497c0.069,0.063,0.138,0.125,0.207,0.188c-0.034,0.099-0.067,0.197-0.101,0.296
		c0.11-0.017,0.22-0.035,0.331-0.052c0.044,0.046,0.088,0.092,0.132,0.139c-0.179,0.239-0.358,0.477-0.537,0.716l0.01-0.028
		C222.009,270.901,221.929,270.981,221.849,271.061z"/>
	<path fill="#262220" d="M221.579,270.06c-0.002,0.086-0.003,0.171-0.005,0.257c-0.004,0.093-0.008,0.186-0.012,0.279l0.032-0.03
		c-0.347-0.107-0.437,0.312-0.713,0.35c-0.178,0.065-0.356,0.13-0.534,0.194c-0.019-0.49,0.659-0.713,0.483-1.263
		C221.292,269.177,221.268,270.205,221.579,270.06z"/>
	<path fill="#37283A" d="M221.246,272.975c0.534-0.3,1.067-0.6,1.601-0.9c-0.01,0.08-0.029,0.158-0.056,0.234
		c-0.345,0.316-0.69,0.632-1.034,0.947C221.661,273.029,221.094,273.652,221.246,272.975z"/>
	<path fill="#605959" d="M236.794,286.86c-0.146-0.621-0.116-1.092,0.556-1.449C237.368,286.024,237.319,286.488,236.794,286.86z"/>
	<path fill="#605959" d="M222.047,269.562c-0.021-0.87,0.574-0.38,0.961-0.386c-0.251,0.191-0.503,0.382-0.754,0.574
		C222.185,269.688,222.116,269.625,222.047,269.562z"/>
	<path fill="#845F96" d="M221.756,273.258c0.345-0.316,0.69-0.632,1.034-0.947c-0.047,0.202,0.545,0.193,0.165,0.504
		c-0.163,0.038-0.346,0.047-0.389,0.262l0.02-0.016c-0.167,0.01-0.27,0.085-0.266,0.266l0.016-0.018
		c-0.163,0.048-0.326,0.096-0.489,0.144C221.842,273.376,221.812,273.311,221.756,273.258z"/>
	<path fill="#605959" d="M251.998,287.217c0.125,0.48,0.477,0.778,0.238,1.235c-0.023,0.043-0.201,0.065-0.211,0.047
		C251.839,288.134,251.566,287.771,251.998,287.217z"/>
	<path fill="#605959" d="M223.086,273.334c0.109-0.398,0.432-0.418,0.784-0.429c-0.198,0.3-0.476,0.4-0.804,0.408
		C223.066,273.313,223.086,273.334,223.086,273.334z"/>
	<path fill="#605959" d="M236.692,287.917c-0.228-0.108-0.239-0.31-0.201-0.505c0.035-0.179,0.234-0.279,0.349-0.205
		c0.099,0.063,0.116,0.281,0.136,0.434C237,287.839,236.874,287.917,236.692,287.917z"/>
	<path fill="#605959" d="M223.076,273.587c0.142,0.029,0.284,0.057,0.427,0.086c-0.145,0.127-0.29,0.254-0.435,0.381l0.018,0.022
		c0.002-0.169,0.004-0.338,0.005-0.507L223.076,273.587z"/>
	<path fill="#605959" d="M222.597,274.595c-0.305-0.165,0.005-0.315,0.011-0.473c0.159-0.015,0.318-0.031,0.477-0.046l-0.018-0.022
		C222.911,274.235,222.754,274.415,222.597,274.595z"/>
	<path fill="#845F96" d="M222.73,273.597c-0.095-0.013-0.19-0.025-0.286-0.038c-0.036-0.083-0.072-0.166-0.107-0.25l-0.016,0.018
		c0.16-0.018,0.249-0.106,0.266-0.266l-0.02,0.016l0.113,0.004h0.113c0.097,0.084,0.195,0.169,0.292,0.253l-0.019-0.021
		c0.003,0.092,0.006,0.183,0.009,0.274l0.015-0.018C222.971,273.579,222.85,273.588,222.73,273.597z"/>
	<path fill="#71517E" d="M222.748,275.757c-0.187,0.031-0.454,0.21-0.497-0.113c-0.021-0.159,0.235-0.087,0.374-0.078
		C222.753,275.574,222.941,275.543,222.748,275.757z"/>
	<path fill="#71517E" d="M223.085,271.833c-0.012-0.28,0.15-0.303,0.357-0.229c0.033,0.012,0.039,0.1,0.057,0.154
		c-0.141,0.02-0.282,0.041-0.422,0.061C223.077,271.819,223.085,271.833,223.085,271.833z"/>
	<path fill="#605959" d="M222.484,269.994c0.124-0.188,0.292-0.252,0.496-0.149c0.039,0.02,0.042,0.112,0.062,0.17
		c-0.142,0.039-0.284,0.079-0.427,0.118C222.572,270.086,222.528,270.039,222.484,269.994z"/>
	<path fill="#37283A" d="M222.794,273.081h-0.113l-0.113-0.004c0.044-0.215,0.227-0.224,0.389-0.262
		C222.902,272.903,222.848,272.992,222.794,273.081z"/>
	<path fill="#37283A" d="M222.829,272.097c0.003-0.098,0.005-0.197,0.008-0.295c0.083,0.01,0.165,0.02,0.248,0.031l-0.008-0.014
		C222.995,271.911,222.912,272.004,222.829,272.097z"/>
	<polygon fill="#605959" points="260.851,290.666 260.855,290.736 260.864,290.646 	"/>
	<path fill="#37283A" d="M220.349,273.315c0.36,0.559,0.159,0.946-0.449,0.814c-0.436-0.094-0.663,0.124-0.978,0.228
		c-0.017-0.19-0.035-0.38-0.053-0.57c0.079-0.078,0.159-0.156,0.238-0.233l-0.019,0.016c0.27-0.042,0.586,0.049,0.766-0.26
		l-0.018,0.012C220.007,273.319,220.178,273.317,220.349,273.315z"/>
	<path fill="#37283A" d="M220.082,271.593c0.094,0.011,0.189,0.023,0.283,0.034c0.028,0.065,0.065,0.125,0.112,0.18
		c0.492-0.08,0.475,0.186,0.356,0.523l0.011-0.01c-0.168,0.005-0.257,0.089-0.259,0.259l0.012-0.012
		c-0.169,0.004-0.339,0.007-0.508,0.011c0.027-0.141,0.054-0.282,0.081-0.422c-0.185,0.058-0.37,0.115-0.555,0.173
		c-0.19-0.019-0.38-0.038-0.779-0.077C219.379,271.965,219.73,271.779,220.082,271.593z"/>
	<path fill="#71517E" d="M220.549,276.542c0.274,0.075,0.441-0.394,0.726-0.145c0.029,0.026-0.126,0.262-0.195,0.4l0.019-0.008
		c-0.088,0.089-0.175,0.177-0.263,0.266l0.017-0.012c-0.249-0.003-0.482,0.037-0.642,0.258c0.036,0.055,0.035,0.111-0.002,0.163
		c-0.137,0.059-0.302,0.202-0.41,0.167c-0.319-0.102-0.128-0.289-0.001-0.414C220.038,276.981,220.297,276.766,220.549,276.542z"/>
	<path fill="#71517E" d="M218.89,277.192c0.12,0.013,0.471-0.308,0.301,0.114c-0.175,0.435-0.709,0.491-1.166,0.651
		c0.047-0.426,0.515-0.322,0.653-0.584C218.749,277.313,218.82,277.252,218.89,277.192z"/>
	<path fill="#71517E" d="M220.089,272.578c0.169-0.004,0.339-0.007,0.508-0.011c-0.003,0.17-0.007,0.34-0.01,0.51
		c0,0,0.012-0.012,0.011-0.012c-0.198-0.025-0.3,0.048-0.26,0.261l0.011-0.01c-0.171,0.002-0.342,0.004-0.513,0.006
		c0.007-0.17,0.015-0.341,0.022-0.511l-0.016,0.015c0.178,0.006,0.27-0.074,0.257-0.257L220.089,272.578z"/>
	<path fill="#71517E" d="M219.615,272.328c0.185-0.058,0.37-0.115,0.555-0.173c-0.027,0.141-0.054,0.282-0.081,0.422l0.01-0.01
		c-0.163,0.008-0.263,0.08-0.257,0.257l0.016-0.015c-0.205-0.057-0.482,0.201-0.605-0.095
		C219.225,272.647,219.487,272.46,219.615,272.328z"/>
	<path fill="#71517E" d="M219.65,275.88c0.177-0.04,0.445-0.215,0.503-0.026c0.045,0.147-0.195,0.383-0.308,0.579
		C219.668,276.289,219.485,276.146,219.65,275.88z"/>
	<path fill="#37283A" d="M218.89,277.192c-0.07,0.06-0.141,0.121-0.211,0.182c-0.128-0.17-0.257-0.341-0.385-0.511
		C218.649,276.69,218.793,276.898,218.89,277.192z"/>
	<path fill="#71517E" d="M220.346,275.046c-0.17,0.331-0.475,0.265-0.76,0.259C219.766,275.001,220.044,274.988,220.346,275.046z"/>
	<path fill="#71517E" d="M219.853,273.309c-0.18,0.309-0.495,0.218-0.766,0.26C219.277,273.291,219.559,273.283,219.853,273.309z"/>
	<path fill="#71517E" d="M218.363,274.812c0.08-0.081,0.16-0.161,0.24-0.242c0.084-0.002,0.168-0.004,0.253-0.006l-0.011-0.016
		c-0.096,0.223-0.277,0.276-0.499,0.25L218.363,274.812z"/>
	<path fill="#37283A" d="M218.856,274.564c-0.084,0.002-0.168,0.004-0.253,0.006c0.104-0.067,0.208-0.135,0.313-0.202
		C218.929,274.444,218.908,274.509,218.856,274.564z"/>
	<polygon fill="#71517E" points="219.256,276.469 219.219,276.402 219.301,276.406 	"/>
	<path fill="#71517E" d="M219.106,273.554c-0.079,0.078-0.159,0.156-0.238,0.233C218.947,273.709,219.027,273.631,219.106,273.554z"
		/>
	<path fill="#71517E" d="M218.347,274.798c-0.031,0.044-0.061,0.089-0.092,0.133c0.003-0.024-0.003-0.058,0.011-0.07
		c0.027-0.023,0.064-0.034,0.098-0.049C218.363,274.812,218.347,274.798,218.347,274.798z"/>
	<path fill="#71517E" d="M219.597,275.294c0.002,0.11,0.003,0.219,0.005,0.329C219.328,275.517,219.376,275.406,219.597,275.294z"/>
	<path fill="#37283A" d="M220.21,277.3c0.16-0.221,0.392-0.26,0.642-0.258C220.781,277.484,220.513,277.436,220.21,277.3z"/>
	<path fill="#37283A" d="M220.835,277.055c0.088-0.089,0.175-0.177,0.263-0.266C221.157,277.023,221.05,277.092,220.835,277.055z"/>
	<path fill="#37283A" d="M220.587,273.077c0.003-0.17,0.007-0.34,0.01-0.51c0,0-0.012,0.012-0.011,0.012
		c0.169-0.004,0.263-0.082,0.259-0.259l-0.011,0.01c0.195,0.082,0.462-0.154,0.586,0.103c0.025,0.053-0.228,0.24-0.353,0.365
		C220.906,272.89,220.746,272.984,220.587,273.077z"/>
	<path fill="#37283A" d="M222.337,273.31c0.035,0.083,0.071,0.166,0.107,0.25c-0.219,0.08-0.435,0.172-0.66,0.232
		c-0.088,0.024-0.266,0.025-0.215-0.14c0.027-0.087,0.181-0.135,0.278-0.199C222.01,273.405,222.174,273.357,222.337,273.31z"/>
	<path fill="#FEFFFE" d="M222.73,273.597c0.12-0.009,0.241-0.018,0.361-0.027c-0.002,0.169-0.004,0.338-0.005,0.507
		c-0.159,0.015-0.318,0.03-0.477,0.046C222.649,273.947,222.69,273.772,222.73,273.597z"/>
	<path fill="#37283A" d="M221.083,274.805c-0.084,0.201-0.239,0.295-0.451,0.303c0.001,0.002-0.046-0.058-0.046-0.058
		c0.114-0.201,0.271-0.309,0.511-0.233L221.083,274.805z"/>
	<path fill="#37283A" d="M220.338,273.325c-0.04-0.213,0.062-0.285,0.26-0.261C220.511,273.152,220.425,273.238,220.338,273.325z"/>
	<path fill="#37283A" d="M221.097,274.817c0.015-0.063,0.03-0.127,0.044-0.19c0.216,0.136-0.016,0.126-0.058,0.178
		C221.083,274.805,221.097,274.817,221.097,274.817z"/>
	<path fill="#FEFFFE" d="M220.882,270.915c0.276-0.038,0.366-0.456,0.713-0.35c-0.147,0.295-0.347,0.495-0.713,0.403
		C220.882,270.968,220.882,270.915,220.882,270.915z"/>
	<path fill="#262220" d="M220.478,271.807c-0.047-0.055-0.085-0.114-0.112-0.18C220.522,271.612,220.598,271.648,220.478,271.807z"
		/>
	<path fill="#FEFFFE" d="M221.849,271.061c0.08-0.08,0.16-0.16,0.239-0.24C222.158,271.049,221.984,271.036,221.849,271.061z"/>
	<path fill="#71517E" d="M221.186,275.909c-0.081,0.121-0.175,0.132-0.267,0.019c-0.006-0.007,0.092-0.098,0.141-0.15
		C221.106,275.818,221.148,275.862,221.186,275.909z"/>
	<path fill="#FEFFFE" d="M221.563,270.596c0.004-0.093,0.008-0.186,0.012-0.279c0.066,0.028,0.133,0.057,0.199,0.085
		C221.703,270.466,221.633,270.531,221.563,270.596z"/>
	<path fill="#37283A" d="M222.586,273.061c-0.017,0.16-0.106,0.249-0.266,0.266C222.317,273.146,222.419,273.071,222.586,273.061z"
		/>
	<path fill="#71517E" d="M220.844,272.319c0.004,0.177-0.09,0.255-0.259,0.259C220.587,272.408,220.677,272.325,220.844,272.319z"/>
	<path fill="#37283A" d="M219.842,272.825c-0.006-0.177,0.094-0.249,0.257-0.257C220.111,272.752,220.02,272.832,219.842,272.825z"
		/>
</g>
<g>
	<path fill="#262220" d="M387.088,258.577c-1.479,1.053-3.053,1.973-4.364,3.259c-0.521,0.511-0.586,0.017-0.592-0.385
		c-0.015-1.016,0.225-2.009,0.29-3.024c0.122-1.922,0.472-3.83,0.727-5.745c1.405-0.951,2.757-2.001,4.238-2.814
		c0.784-0.431,1.275-1.287,2.221-1.432c0.266,0.389,0.637,0.355,1.024,0.253c-0.013,0.086-0.026,0.172-0.039,0.258
		c-0.352,0.186-0.703,0.371-1.246,0.658c0.399,0.04,0.589,0.059,0.779,0.077c-0.128,0.132-0.39,0.319-0.362,0.387
		c0.122,0.296,0.399,0.038,0.605,0.095c-0.007,0.17-0.015,0.341-0.022,0.511l0.018-0.012c-0.294-0.026-0.576-0.018-0.766,0.26
		l0.019-0.016c-0.079,0.078-0.159,0.156-0.238,0.233c0.018,0.19,0.036,0.38,0.054,0.571c0,0-0.005,0.011-0.006,0.011
		c-0.105,0.067-0.209,0.134-0.313,0.202c-0.08,0.081-0.16,0.161-0.24,0.242c-0.033,0.016-0.071,0.026-0.098,0.049
		c-0.014,0.012-0.008,0.046-0.011,0.07c0.031-0.044,0.061-0.089,0.092-0.133c0.221,0.026,0.403-0.027,0.499-0.25
		c0.549,0.014,1.211-0.302,1.489,0.508l0.013-0.01c-0.302-0.058-0.581-0.045-0.76,0.259l0.011-0.011
		c-0.221,0.113-0.269,0.223,0.005,0.329c0.016,0.086,0.033,0.172,0.049,0.258c-0.166,0.266,0.017,0.409,0.195,0.553
		c0.207,0.216,0.462,0.119,0.703,0.109c-0.251,0.224-0.511,0.439-0.751,0.675c-0.127,0.125-0.318,0.312,0.001,0.414
		c0.108,0.035,0.273-0.109,0.412-0.171C389.837,256.384,388.469,257.487,387.088,258.577z M389.191,254.728
		c-0.139,0.262-0.606,0.157-0.654,0.583c0.456-0.16,0.991-0.216,1.165-0.651c0.17-0.423-0.182-0.101-0.301-0.114
		c-0.097-0.294-0.241-0.502-0.596-0.33C388.934,254.387,389.063,254.558,389.191,254.728z M389.768,253.824l0.045-0.063
		l-0.082-0.005L389.768,253.824z"/>
	<path fill="#262220" d="M400.571,253.18c-0.518-0.029-0.321,0.363-0.341,0.604c-0.148,1.825-0.3,3.65-0.417,5.477
		c-0.028,0.438-0.183,0.582-0.603,0.523c-1.785-0.248-1.778-0.244-1.592-2.034c0.319-3.081,0.651-6.16,0.916-9.245
		c0.051-0.596,0.284-0.694,0.757-0.639c1.612,0.186,3.237,0.303,4.832,0.587c1.227,0.219,2.06,2.037,1.948,3.353
		c-0.143,1.676-0.864,2.738-2.486,3.188c-2.061,0.572-2.579,0.263-3.044-1.839c0.357,0.029,0.698,0.03,1.065,0.155
		c0.843,0.287,2.005-0.543,2.197-1.463c0.168-0.803-0.566-1.768-1.455-1.914c-1.224-0.201-1.883,0.25-1.922,1.428
		C400.406,251.961,400.333,252.59,400.571,253.18z"/>
	<path fill="#262220" d="M432.02,259.173c-0.979-0.204-1.796,0.345-2.681,0.561c-0.491,0.12-0.728,0.555-0.779,0.971
		c-0.065,0.521,0.328,0.829,0.831,0.891c0.363,0.045,0.632,0.366,1.046,0.267c0.482-0.116,0.443,0.26,0.364,0.53
		c-0.086,0.293,0.017,0.87-0.434,0.788c-0.886-0.162-1.805,0.247-2.686-0.49c-1.24-1.037-1.575-1.482-1.172-3.001
		c0.306-1.156,1.369-1.376,2.316-1.655c0.842-0.248,1.72-0.37,2.577-0.569c0.445-0.103,0.94-0.235,0.9-0.825
		c-0.042-0.614-0.532-0.777-1.053-0.836c-0.765-0.086-1.516-0.32-2.299,0.027c-0.355,0.157-0.953,0.366-1.058-0.303
		c-0.078-0.499-0.08-1.08,0.709-1.191c1.662-0.235,3.3-0.342,4.844,0.493c0.82,0.443,1.162,1.007,1.097,2.072
		c-0.119,1.952-0.658,3.864-0.527,5.83c0.043,0.645-0.359,0.876-0.822,0.762c-0.577-0.142-1.591,0.21-1.563-0.868
		C431.655,261.499,431.874,260.376,432.02,259.173z"/>
	<path fill="#262220" d="M409.59,259.396c-0.263,1.654-0.263,1.654-2.048,1.31c-2.059-0.397-2.662-1.266-2.288-3.3
		c0.213-1.16,1.285-1.889,3.182-1.998c0.734-0.042,1.352-0.277,1.984-0.58c0.8-0.383,0.71-0.706,0.044-1.189
		c-0.952-0.692-1.962-0.127-2.931-0.259c-0.374-0.051-1.031,0.353-1.001-0.413c0.02-0.51,0.122-1.225,0.984-1.067
		c0.925,0.17,1.818-0.145,2.782-0.021c2.88,0.372,3.145,1.743,2.859,3.969c-0.17,1.324-0.46,2.641-0.441,3.976
		c0.015,1.122-0.562,1.21-1.471,1.246c-1.158,0.045-0.874-0.675-0.857-1.297c0.022-0.818,0.437-1.589,0.281-2.431
		c-0.051-0.273-0.067-0.72-0.415-0.552c-0.713,0.343-1.559,0.098-2.218,0.602c-0.377,0.288-0.983,0.411-0.768,1.08
		c0.189,0.587,0.536,1.012,1.257,0.93C408.847,259.366,409.177,259.396,409.59,259.396z"/>
	<path fill="#262220" d="M413.276,259.203c0.881,0.102,1.378,0.899,2.263,0.738c0.472-0.086,0.934-0.212,1.141-0.627
		c0.197-0.395-0.339-0.604-0.447-0.925c-0.401-1.192-1.825-1.615-2.097-2.914c-0.298-1.423,0.309-2.58,1.735-2.782
		c1.16-0.164,2.369-0.095,3.428,0.523c0.523,0.305,0.342,0.775,0.173,1.28c-0.249,0.746-0.583,0.147-0.8,0.078
		c-0.492-0.158-0.947-0.159-1.451-0.065c-0.812,0.152-0.945,0.684-0.46,1.13c0.761,0.7,1.091,1.699,1.894,2.36
		c0.826,0.679,0.701,1.767,0.361,2.502c-0.336,0.729-1.189,1.263-2.188,1.153c-0.24-0.026-0.491,0-0.731,0.037
		c-0.858,0.129-1.589-0.294-2.355-0.541C412.543,260.765,413.871,259.779,413.276,259.203z"/>
	<path fill="#262220" d="M426.506,255.927c-1.176-0.528-2.41-0.947-3.592-0.183c-0.769,0.497-1.044,2.486-0.742,3.395
		c0.684,2.063,2.397,1.497,3.867,1.565c-0.147,1.032-0.227,1.981-1.712,1.952c-1.787-0.034-3.492-0.802-4.021-2.007
		c-0.836-1.905-0.67-3.75,0.215-5.577c0.664-1.371,3.162-2.091,4.783-1.567C426.637,253.936,426.828,254.74,426.506,255.927z"/>
	<path fill="#262220" d="M436.704,252.085c1.49,0.011,1.399-0.004,1.158,1.428c-0.288,1.712-0.402,3.453-0.587,5.182
		c-0.163,1.525-0.255,3.062-0.504,4.573c-0.168,1.015-1.062,0.391-1.61,0.464c-0.322,0.043-0.762,0.011-0.656-0.777
		c0.457-3.413,0.801-6.845,1.06-10.279C435.654,251.504,436.417,252.36,436.704,252.085z"/>
	<path fill="#845F96" d="M389.608,248.437c-0.946,0.145-1.437,1.001-2.221,1.432c-1.481,0.813-2.832,1.863-4.238,2.814
		c0.157-1.615,0.314-3.23,0.473-4.845c0.04-0.409,0.357-0.414,0.641-0.382c1.69,0.188,3.379,0.391,5.068,0.599
		c0.112,0.014,0.212,0.115,0.318,0.176C389.636,248.299,389.622,248.368,389.608,248.437z"/>
	<path fill="#845F96" d="M387.088,258.577c1.381-1.091,2.748-2.193,3.632-3.759c0.036-0.053,0.038-0.108,0.002-0.163
		c0.303,0.135,0.571,0.184,0.642-0.258l-0.017,0.012c0.215,0.037,0.322-0.032,0.263-0.266l-0.019,0.008
		c0.627,0.152,0.721-0.666,1.251-0.688c0.113,1.749-0.406,3.437-0.506,5.165c-0.034,0.582-0.462,0.471-0.806,0.469
		C390.032,259.084,388.563,258.798,387.088,258.577z"/>
	<path fill="#71517E" d="M390.845,252.41c-0.278-0.81-0.939-0.494-1.489-0.508l0.011,0.016c0.052-0.055,0.073-0.12,0.061-0.195
		c0,0,0.005-0.011,0.005-0.012c0.315-0.104,0.542-0.322,0.978-0.228c0.608,0.132,0.809-0.256,0.449-0.814l-0.011,0.01
		c0.087-0.087,0.174-0.174,0.26-0.261l-0.012,0.012c0.16-0.093,0.319-0.187,0.479-0.28c0.06,0.059,0.12,0.119,0.181,0.178
		c-0.152,0.676,0.415,0.054,0.51,0.282c0.056,0.053,0.086,0.119,0.091,0.195c-0.097,0.064-0.251,0.112-0.278,0.199
		c-0.051,0.166,0.126,0.164,0.215,0.14c0.225-0.06,0.441-0.153,0.661-0.232c0.095,0.013,0.19,0.025,0.285,0.038
		c-0.041,0.175-0.081,0.35-0.122,0.526c-0.006,0.157-0.316,0.308-0.011,0.472c0.023,0.231,0.879,0.39,0.06,0.694
		c-0.607-0.069-0.975,0.427-1.471,0.62c-0.038-0.047-0.08-0.091-0.125-0.131c-0.08-0.263-0.606-0.24-0.429-0.67
		c0.212-0.009,0.368-0.102,0.451-0.303c0.042-0.052,0.274-0.042,0.058-0.178c-0.015,0.063-0.03,0.127-0.044,0.19
		c-0.24-0.075-0.397,0.033-0.511,0.233C391.014,252.406,390.929,252.408,390.845,252.41z"/>
	<path fill="#71517E" d="M390.594,248.948c0.013-0.086,0.026-0.172,0.039-0.258c0.076-0.075,0.151-0.151,0.227-0.226
		c0.178-0.065,0.356-0.13,0.534-0.194v0.053c0.248,0.805,0.641,0.098,0.967,0.093c0.135-0.025,0.309-0.012,0.239-0.24l-0.01,0.028
		c0.799-0.117,1.22,0.068,0.759,0.954c-0.003,0.098-0.005,0.197-0.008,0.295c0,0,0.017-0.022,0.017-0.021
		c-0.534,0.3-1.067,0.6-1.601,0.9c-0.06-0.059-0.12-0.119-0.181-0.178c0.125-0.125,0.379-0.312,0.353-0.365
		c-0.124-0.256-0.391-0.021-0.586-0.103c0.12-0.336,0.137-0.603-0.356-0.523c0.121-0.159,0.044-0.194-0.112-0.18
		C390.782,248.97,390.688,248.959,390.594,248.948z"/>
	<path fill="#37283A" d="M391.698,253.263c0.496-0.193,0.864-0.689,1.471-0.62c-0.01,0.092-0.021,0.185-0.032,0.277
		c-0.139-0.008-0.395-0.081-0.374,0.078c0.043,0.323,0.31,0.144,0.497,0.113c-0.139,0.117-0.278,0.234-0.418,0.351
		c-0.531,0.023-0.624,0.841-1.251,0.689c0.07-0.138,0.225-0.374,0.195-0.4c-0.284-0.249-0.452,0.22-0.726,0.145
		c-0.241,0.01-0.496,0.107-0.703-0.109c0.113-0.196,0.354-0.432,0.308-0.579c-0.058-0.189-0.327-0.014-0.504,0.026
		c-0.016-0.086-0.033-0.172-0.049-0.258c-0.001-0.11-0.003-0.219-0.005-0.329l-0.011,0.011c0.285,0.006,0.59,0.072,0.76-0.259
		l-0.013,0.01c0.084-0.002,0.168-0.004,0.252-0.006l0.047,0.06c-0.178,0.428,0.348,0.405,0.428,0.668
		c-0.049,0.052-0.147,0.143-0.141,0.15C391.523,253.396,391.617,253.384,391.698,253.263z"/>
	<path fill="#605959" d="M413.798,266.513c-0.665-1.162-0.068-2.021,0.066-3.019c0.312,0.9,0.169,2.81,1.778,0.631
		c0.014,0.926-0.233,1.46-0.98,1.402C413.982,265.474,413.991,265.935,413.798,266.513z"/>
	<path fill="#605959" d="M418.836,264.098c0.863-0.3,1.534,0.144,2.345,0.203c-1.671,0.086-1.35,1.334-1.434,2.345
		C418.899,265.901,420.763,264.469,418.836,264.098z"/>
	<path fill="#605959" d="M410.607,262.819c0.533,1.195-0.46,2.04-0.39,3.046C409.872,263.729,409.872,263.729,410.607,262.819z"/>
	<path fill="#605959" d="M424.086,267.542c-0.756-1.217-0.018-2.101-0.148-2.961c0.448,0.021,0.896,0.042,1.344,0.063
		C423.93,265.089,424.142,266.221,424.086,267.542z"/>
	<path fill="#605959" d="M436.411,265.895c0.157,0.95-2.656-0.824-0.717,1.381c-0.879,0.042-1.185-0.453-1.042-0.957
		C434.982,265.165,435.822,266.065,436.411,265.895z"/>
	<path fill="#37283A" d="M390.86,248.464c-0.076,0.075-0.151,0.151-0.227,0.226c-0.387,0.102-0.758,0.136-1.024-0.253
		c0.014-0.069,0.027-0.138,0.04-0.206c0.635-0.228,0.913-1.042,1.694-1.03C391.519,247.751,390.84,247.974,390.86,248.464z"/>
	<path fill="#37283A" d="M408.693,265.647c0.267-0.916,0.415-1.584,0.189-2.242c-0.065-0.188-0.112-0.289,0.108-0.303
		c0.101-0.007,0.301,0.092,0.299,0.138C409.267,263.982,409.807,264.847,408.693,265.647z"/>
	<path fill="#37283A" d="M427.733,265.104c-1.35,0.619-0.621,1.668-0.79,2.635C426.108,266.048,426.296,265.313,427.733,265.104z"/>
	<path fill="#605959" d="M431.018,265.513c-0.875-0.121-1.028,0.333-0.985,1.015c0.009,0.146-0.043,0.48-0.287,0.45
		c-0.253-0.03-0.257-0.215-0.229-0.522C429.654,264.906,429.762,264.796,431.018,265.513z"/>
	<path fill="#605959" d="M431.377,267.999c-1.59-0.622-0.419-1.414-0.15-2.288c0.797,0.82-0.696,1.628,0.136,2.309L431.377,267.999z
		"/>
	<path fill="#605959" d="M405.151,265.466c-0.583-1.042-0.45-1.762-0.145-2.491C405.357,263.668,405.256,264.395,405.151,265.466z"
		/>
	<path fill="#605959" d="M392.36,248.416c-0.326,0.004-0.719,0.712-0.967-0.093c0.366,0.092,0.566-0.107,0.713-0.403l-0.032,0.03
		c0.07-0.065,0.14-0.129,0.21-0.194c-0.066-0.028-0.133-0.057-0.199-0.085c0.002-0.086,0.003-0.171,0.005-0.257
		c0.044-0.271,0.236-0.402,0.468-0.497c0.069,0.063,0.138,0.125,0.207,0.188c-0.034,0.099-0.067,0.197-0.101,0.296
		c0.11-0.017,0.22-0.035,0.331-0.052c0.044,0.046,0.088,0.092,0.132,0.139c-0.179,0.239-0.358,0.477-0.537,0.716l0.01-0.028
		C392.52,248.255,392.44,248.335,392.36,248.416z"/>
	<path fill="#262220" d="M392.091,247.414c-0.002,0.086-0.003,0.171-0.005,0.257c-0.004,0.093-0.008,0.186-0.012,0.279l0.032-0.03
		c-0.347-0.107-0.436,0.312-0.713,0.35c-0.178,0.065-0.356,0.13-0.534,0.194c-0.019-0.49,0.659-0.713,0.483-1.263
		C391.803,246.532,391.78,247.56,392.091,247.414z"/>
	<path fill="#37283A" d="M391.758,250.33c0.534-0.3,1.067-0.6,1.601-0.9c-0.01,0.08-0.029,0.158-0.056,0.234
		c-0.345,0.316-0.69,0.632-1.034,0.947C392.172,250.384,391.606,251.006,391.758,250.33z"/>
	<path fill="#605959" d="M407.305,264.214c-0.146-0.621-0.116-1.092,0.556-1.449C407.88,263.379,407.831,263.842,407.305,264.214z"
		/>
	<path fill="#605959" d="M392.558,246.917c-0.021-0.87,0.574-0.38,0.961-0.386c-0.251,0.191-0.503,0.382-0.754,0.574
		C392.696,247.042,392.627,246.98,392.558,246.917z"/>
	<path fill="#845F96" d="M392.268,250.612c0.345-0.316,0.69-0.632,1.034-0.947c-0.047,0.202,0.545,0.193,0.165,0.504
		c-0.163,0.038-0.346,0.047-0.389,0.262l0.02-0.016c-0.167,0.01-0.27,0.085-0.266,0.266l0.016-0.018
		c-0.163,0.048-0.326,0.096-0.489,0.144C392.354,250.731,392.324,250.666,392.268,250.612z"/>
	<path fill="#605959" d="M422.51,264.571c0.125,0.48,0.477,0.778,0.238,1.235c-0.023,0.043-0.201,0.065-0.211,0.047
		C422.351,265.489,422.078,265.125,422.51,264.571z"/>
	<path fill="#605959" d="M393.597,250.689c0.109-0.398,0.432-0.418,0.784-0.429c-0.198,0.3-0.476,0.4-0.804,0.408
		C393.578,250.667,393.597,250.689,393.597,250.689z"/>
	<path fill="#605959" d="M407.203,265.271c-0.228-0.108-0.239-0.31-0.201-0.505c0.035-0.179,0.234-0.279,0.349-0.205
		c0.099,0.063,0.116,0.281,0.136,0.434C407.512,265.194,407.385,265.272,407.203,265.271z"/>
	<path fill="#605959" d="M393.587,250.942c0.142,0.029,0.284,0.057,0.427,0.086c-0.145,0.127-0.29,0.254-0.435,0.381l0.018,0.022
		c0.002-0.169,0.004-0.338,0.005-0.507L393.587,250.942z"/>
	<path fill="#605959" d="M393.109,251.95c-0.305-0.165,0.005-0.315,0.011-0.473c0.159-0.015,0.318-0.031,0.477-0.046l-0.018-0.022
		C393.422,251.589,393.266,251.769,393.109,251.95z"/>
	<path fill="#845F96" d="M393.242,250.952c-0.095-0.013-0.19-0.025-0.286-0.038c-0.036-0.083-0.072-0.166-0.107-0.249l-0.016,0.018
		c0.16-0.018,0.249-0.106,0.266-0.266l-0.02,0.016l0.113,0.004h0.113c0.097,0.084,0.195,0.169,0.292,0.253l-0.019-0.021
		c0.003,0.092,0.006,0.183,0.009,0.274l0.015-0.018C393.482,250.933,393.362,250.943,393.242,250.952z"/>
	<path fill="#71517E" d="M393.26,253.112c-0.187,0.031-0.454,0.21-0.497-0.113c-0.021-0.159,0.235-0.087,0.374-0.078
		C393.264,252.928,393.453,252.897,393.26,253.112z"/>
	<path fill="#71517E" d="M393.597,249.188c-0.012-0.28,0.15-0.303,0.357-0.229c0.033,0.012,0.039,0.1,0.057,0.154
		c-0.141,0.02-0.282,0.041-0.422,0.061C393.589,249.173,393.597,249.188,393.597,249.188z"/>
	<path fill="#605959" d="M392.995,247.348c0.124-0.188,0.292-0.252,0.496-0.149c0.039,0.02,0.042,0.112,0.062,0.17
		c-0.142,0.039-0.284,0.079-0.427,0.118C393.084,247.44,393.04,247.394,392.995,247.348z"/>
	<path fill="#37283A" d="M393.305,250.435h-0.113l-0.113-0.004c0.044-0.215,0.227-0.224,0.389-0.262
		C393.414,250.258,393.359,250.346,393.305,250.435z"/>
	<path fill="#37283A" d="M393.341,249.452c0.003-0.098,0.005-0.197,0.008-0.295c0.083,0.01,0.165,0.02,0.248,0.031l-0.008-0.014
		C393.506,249.266,393.424,249.359,393.341,249.452z"/>
	<polygon fill="#605959" points="431.363,268.02 431.366,268.09 431.376,268.001 	"/>
	<path fill="#37283A" d="M390.86,250.67c0.36,0.559,0.159,0.946-0.449,0.814c-0.436-0.094-0.663,0.124-0.978,0.228
		c-0.017-0.19-0.035-0.38-0.053-0.57c0.079-0.078,0.159-0.156,0.238-0.233l-0.019,0.016c0.27-0.042,0.586,0.049,0.766-0.26
		l-0.018,0.012C390.518,250.674,390.689,250.672,390.86,250.67z"/>
	<path fill="#37283A" d="M390.594,248.948c0.094,0.011,0.189,0.023,0.283,0.034c0.028,0.065,0.065,0.125,0.112,0.18
		c0.492-0.08,0.475,0.186,0.356,0.523l0.011-0.01c-0.168,0.005-0.257,0.089-0.259,0.259l0.012-0.012
		c-0.169,0.004-0.339,0.007-0.508,0.011c0.027-0.141,0.054-0.282,0.081-0.422c-0.185,0.058-0.37,0.115-0.555,0.173
		c-0.19-0.019-0.38-0.038-0.779-0.077C389.89,249.319,390.242,249.134,390.594,248.948z"/>
	<path fill="#71517E" d="M391.06,253.897c0.274,0.075,0.441-0.394,0.726-0.145c0.029,0.026-0.126,0.262-0.195,0.4l0.019-0.008
		c-0.088,0.089-0.175,0.177-0.263,0.266l0.017-0.012c-0.249-0.003-0.482,0.037-0.642,0.258c0.036,0.055,0.035,0.111-0.002,0.163
		c-0.137,0.059-0.302,0.202-0.41,0.167c-0.319-0.102-0.128-0.289-0.001-0.414C390.549,254.336,390.809,254.12,391.06,253.897z"/>
	<path fill="#71517E" d="M389.402,254.546c0.12,0.013,0.471-0.308,0.301,0.114c-0.175,0.435-0.709,0.491-1.165,0.651
		c0.047-0.426,0.515-0.322,0.653-0.584C389.261,254.667,389.331,254.607,389.402,254.546z"/>
	<path fill="#71517E" d="M390.6,249.932c0.169-0.004,0.339-0.007,0.508-0.011c-0.003,0.17-0.007,0.34-0.01,0.51l0.012-0.012
		c-0.198-0.025-0.3,0.048-0.26,0.261l0.011-0.01c-0.171,0.002-0.342,0.004-0.513,0.006c0.007-0.17,0.015-0.341,0.022-0.511
		l-0.016,0.015c0.178,0.006,0.27-0.074,0.257-0.257L390.6,249.932z"/>
	<path fill="#71517E" d="M390.126,249.683c0.185-0.058,0.37-0.115,0.555-0.173c-0.027,0.141-0.054,0.282-0.081,0.422l0.01-0.01
		c-0.163,0.008-0.263,0.08-0.257,0.257l0.016-0.015c-0.205-0.057-0.482,0.201-0.605-0.095
		C389.737,250.002,389.998,249.815,390.126,249.683z"/>
	<path fill="#71517E" d="M390.162,253.235c0.177-0.04,0.445-0.215,0.504-0.026c0.046,0.147-0.195,0.383-0.308,0.579
		C390.179,253.643,389.996,253.501,390.162,253.235z"/>
	<path fill="#37283A" d="M389.402,254.546c-0.07,0.06-0.141,0.121-0.211,0.182c-0.128-0.17-0.257-0.341-0.385-0.511
		C389.161,254.045,389.305,254.253,389.402,254.546z"/>
	<path fill="#71517E" d="M390.858,252.4c-0.17,0.331-0.475,0.265-0.76,0.259C390.277,252.355,390.556,252.343,390.858,252.4z"/>
	<path fill="#71517E" d="M390.365,250.664c-0.18,0.309-0.495,0.218-0.766,0.26C389.789,250.645,390.071,250.638,390.365,250.664z"/>
	<path fill="#71517E" d="M388.875,252.167c0.08-0.081,0.16-0.161,0.24-0.242c0.084-0.002,0.168-0.004,0.253-0.006l-0.011-0.016
		c-0.096,0.223-0.277,0.276-0.499,0.25L388.875,252.167z"/>
	<path fill="#37283A" d="M389.368,251.919c-0.084,0.002-0.168,0.004-0.253,0.006c0.104-0.067,0.208-0.135,0.313-0.202
		C389.44,251.799,389.42,251.864,389.368,251.919z"/>
	<polygon fill="#71517E" points="389.768,253.824 389.731,253.756 389.812,253.761 	"/>
	<path fill="#71517E" d="M389.618,250.908c-0.079,0.078-0.159,0.156-0.238,0.233C389.459,251.064,389.538,250.986,389.618,250.908z"
		/>
	<path fill="#71517E" d="M388.858,252.152c-0.031,0.044-0.061,0.089-0.092,0.133c0.003-0.024-0.003-0.058,0.011-0.07
		c0.027-0.023,0.064-0.034,0.098-0.049C388.875,252.167,388.858,252.152,388.858,252.152z"/>
	<path fill="#71517E" d="M390.109,252.648c0.002,0.11,0.003,0.219,0.005,0.329C389.84,252.871,389.887,252.761,390.109,252.648z"/>
	<path fill="#37283A" d="M390.721,254.655c0.16-0.221,0.392-0.26,0.642-0.258C391.292,254.839,391.024,254.79,390.721,254.655z"/>
	<path fill="#37283A" d="M391.346,254.409c0.088-0.089,0.175-0.177,0.263-0.266C391.669,254.378,391.561,254.447,391.346,254.409z"
		/>
	<path fill="#37283A" d="M391.098,250.432c0.003-0.17,0.007-0.34,0.01-0.51c0,0-0.012,0.012-0.011,0.012
		c0.169-0.004,0.263-0.082,0.259-0.259l-0.011,0.01c0.195,0.082,0.462-0.154,0.586,0.103c0.025,0.053-0.228,0.24-0.353,0.365
		C391.417,250.245,391.258,250.338,391.098,250.432z"/>
	<path fill="#37283A" d="M392.848,250.664c0.035,0.083,0.071,0.166,0.107,0.249c-0.219,0.08-0.435,0.172-0.66,0.232
		c-0.088,0.024-0.266,0.025-0.215-0.14c0.027-0.087,0.181-0.135,0.278-0.199C392.522,250.76,392.685,250.712,392.848,250.664z"/>
	<path fill="#FEFFFE" d="M393.242,250.952c0.12-0.009,0.241-0.018,0.361-0.027c-0.002,0.169-0.004,0.338-0.005,0.507
		c-0.159,0.015-0.318,0.03-0.477,0.046C393.161,251.302,393.201,251.127,393.242,250.952z"/>
	<path fill="#37283A" d="M391.595,252.159c-0.084,0.201-0.239,0.295-0.451,0.303c0.001,0.002-0.046-0.058-0.046-0.058
		c0.114-0.201,0.271-0.309,0.511-0.233L391.595,252.159z"/>
	<path fill="#37283A" d="M390.849,250.68c-0.04-0.213,0.062-0.285,0.26-0.261C391.023,250.506,390.936,250.593,390.849,250.68z"/>
	<path fill="#37283A" d="M391.608,252.171c0.015-0.063,0.03-0.127,0.044-0.19c0.216,0.136-0.016,0.126-0.058,0.178
		C391.595,252.159,391.608,252.171,391.608,252.171z"/>
	<path fill="#FEFFFE" d="M391.394,248.27c0.276-0.038,0.366-0.456,0.713-0.35c-0.147,0.295-0.347,0.495-0.713,0.403
		C391.394,248.322,391.394,248.27,391.394,248.27z"/>
	<path fill="#262220" d="M390.989,249.161c-0.047-0.055-0.085-0.114-0.112-0.18C391.033,248.967,391.11,249.003,390.989,249.161z"/>
	<path fill="#FEFFFE" d="M392.36,248.416c0.08-0.08,0.16-0.16,0.239-0.24C392.669,248.404,392.495,248.39,392.36,248.416z"/>
	<path fill="#71517E" d="M391.698,253.263c-0.081,0.121-0.175,0.132-0.267,0.019c-0.006-0.007,0.092-0.098,0.141-0.15
		C391.618,253.173,391.66,253.216,391.698,253.263z"/>
	<path fill="#FEFFFE" d="M392.074,247.95c0.004-0.093,0.008-0.186,0.012-0.279c0.066,0.028,0.133,0.057,0.199,0.085
		C392.214,247.821,392.144,247.886,392.074,247.95z"/>
	<path fill="#37283A" d="M393.098,250.416c-0.017,0.16-0.106,0.249-0.266,0.266C392.828,250.501,392.931,250.426,393.098,250.416z"
		/>
	<path fill="#71517E" d="M391.356,249.674c0.004,0.177-0.09,0.255-0.259,0.259C391.099,249.763,391.188,249.679,391.356,249.674z"/>
	<path fill="#37283A" d="M390.353,250.18c-0.006-0.177,0.094-0.249,0.257-0.257C390.623,250.106,390.531,250.186,390.353,250.18z"/>
</g>
</svg>
