<?xml version="1.0" encoding="utf-8"?>
<!-- Generator: Adobe Illustrator 17.0.1, SVG Export Plug-In . SVG Version: 6.00 Build 0)  -->
<!DOCTYPE svg PUBLIC "-//W3C//DTD SVG 1.1//EN" "http://www.w3.org/Graphics/SVG/1.1/DTD/svg11.dtd">
<svg version="1.1" id="Capa_1" xmlns="http://www.w3.org/2000/svg" xmlns:xlink="http://www.w3.org/1999/xlink" x="0px" y="0px"
	 width="421px" height="377px" viewBox="0 -6 421 377" enable-background="new 0 -6 421 377" xml:space="preserve">
<path opacity="0.3" fill="#211915" d="M402.682,139.694c-3.954-21.223-14.85-33.204-36.994-38.828
	c-1.557-1.006-3.141-1.976-4.749-2.907c-0.026-0.084-0.063-0.155-0.084-0.246c-1.076-4.801-5.379-8.366-10.11-10.747
	c0.011-0.006,0.022-0.013,0.034-0.019c5.27-5.083,7.663-11.246,7.145-18.556c-0.117-1.655,0.293-2.954,1.489-4.388
	c2.983-3.577,1.411-7.009-3.29-7.405c-3.578-0.302-7.187-0.229-10.783-0.322c-0.006,0-0.012,0-0.018,0
	c-1.405-1.862-3.274-3.353-5.449-4.277c-2.838-5.523-6.892-10.311-11.671-13.919c1.067,0.102,1.681,0.178,1.681,0.178
	c3.805-4.756-2.853-9.511-5.802-16.17c-3.74-8.444-8.739-16.057-21.835-18.071c-17.283-2.659-26.632-6.658-40.899,3.805
	c-9.355,6.86-15.421,11.66-19.038,14.163c-0.072-4.913-3.02-9.981-8.492-5.603c-9.511,7.609,3.805,12.365,3.805,12.365
	c0.166,0.021,0.321,0.018,0.477,0.019c0.633,1.133,1.682,2.198,3.274,2.834c3.816,1.527,15.272,0.951,21.93,10.463
	c0.951,4.756-1.902,10.463,1.902,16.169c0,0,0.503-0.335,1.383-0.909c-0.677,1.966-1.197,3.994-1.526,6.075
	c-0.324,2.049-0.571,4.109-0.853,6.164l-0.002,0.002c0.017-0.001,0.032,0,0.048-0.001v-0.001c7.318-0.398,11.689,3.798,14.998,9.651
	v0.001c0.016,0.066,0.025,0.133,0.04,0.199l0,0c-0.015-0.066-0.025-0.133-0.04-0.199c-3.307-5.855-7.679-10.05-14.998-9.652
	c0.022,3.803,0.078,7.607,0.12,11.41c-24.933,2.293-50.538,3.162-58.111,1.169c-10.547-2.775-45.516,24.978-64.388,21.648
	c-20.07-3.542-29.974,14.987-46.626,24.978c-13.321,7.771-26.643,15.542-43.295,14.432c-16.652-1.11-28.863-13.322-45.515-7.771
	c15.542,27.753,33.304,28.863,59.947,43.295c8.881,4.44,17.763,16.652,28.864,16.652c11.101,0,69.067,14.118,73.418-16.884
	c0.986-7.026,1.857-12.85,2.881-17.88l-4.422,52.633c-3.317,0.165-5.957,2.898-5.957,6.255c0,2.998,2.105,5.501,4.918,6.121
	l-9.308,110.777c0,17.317,14.039,30.356,31.356,30.356h1.881c17.318,0,31.356-13.039,31.356-30.356l0.719-59.759
	c20.738,21.233,49.678,34.42,81.703,34.42c63.074,0,114.205-51.131,114.205-114.205C418,176.03,412.421,156.506,402.682,139.694z"/>
<g>
	<circle fill="#D99B90" cx="297.464" cy="201.101" r="114.205"/>
	<path fill="none" stroke="#C7918B" stroke-width="4" stroke-miterlimit="10" d="M357.32,253.343c4.005,0,7.251,2.304,7.251,5.146
		s-3.247,5.146-7.251,5.146"/>
	<path fill="none" stroke="#C7918B" stroke-width="2" stroke-miterlimit="10" d="M391.061,187.475c3.034,0,5.494,0.655,5.494,1.462
		s-2.46,1.462-5.494,1.462"/>
	<path fill="none" stroke="#C7918B" stroke-width="2" stroke-miterlimit="10" d="M282.467,187.475c3.034,0,5.493,0.655,5.493,1.462
		s-2.46,1.462-5.493,1.462"/>
	<path fill="#DEA49C" d="M262.076,94.561c0,0-43.578,3.05-85.287,43.898l13.796,26.966c0,0,25.754-55.781,73.325-55.781
		S262.076,94.561,262.076,94.561z"/>
	<g>
		<path fill="#DEA49C" d="M215.042,340.644c0,17.317-14.038,30.356-31.356,30.356h-1.881c-17.317,0-31.356-13.039-31.356-30.356
			L165.5,161.509c0-17.317,14.038-30.509,31.356-30.509h1.881c5.412,0,39.835-20.551,39.835-20.551s-24.614,16.354-24.614,38.688
			c0,8.064,0.457,13.7,0.457,20.402l2.048,53.024L215.042,340.644z"/>
		<circle fill="#DEA49C" cx="161.11" cy="223.746" r="6.271"/>
		<line fill="none" stroke="#822F29" stroke-width="2" stroke-miterlimit="10" x1="153" y1="291" x2="169" y2="291"/>
		<line fill="none" stroke="#822F29" stroke-width="2" stroke-miterlimit="10" x1="153" y1="298" x2="169" y2="298"/>
		<line fill="none" stroke="#822F29" stroke-width="2" stroke-miterlimit="10" x1="153" y1="289" x2="169" y2="289"/>
	</g>
	<g>
		<path fill="#B74445" d="M267.414,129.029c-8.076-16.628,1.456-19.038-11.828-26.029c-13.283-6.991-54.324,15.305-63.122,22.236
			c-23.671,18.65-25.742,26.263-30.126,57.502c-4.351,31.002-62.317,16.884-73.418,16.884S68.937,187.41,60.056,182.97
			c-26.643-14.432-44.405-15.542-59.947-43.295c16.652-5.551,28.863,6.661,45.515,7.771s29.974-6.661,43.295-14.432
			c16.652-9.991,26.556-28.52,46.626-24.978c18.872,3.33,53.841-24.423,64.388-21.648c10.546,2.775,56.062,0,86.035-4.441
			c13.322-2.22-9.436-15.542,3.885-8.881c6.661,4.441,31.775,16.967,35.105,23.628c8.881,14.432-14.013,24.108-33.995,27.439
			c-7.771,1.11-14.432,1.11-19.982-5.551"/>
	</g>
	<g>
		<path fill="#D4878D" d="M272.923,83.46c0.527-10.951,0.941-21.858,7.52-31.446c5.242-7.64,12.092-12.839,20.872-15.617
			c0.911-0.288,1.767-0.749,2.649-1.13c-19.703-4.568-41.907,11.319-45.233,32.376c-0.324,2.049-0.571,4.11-0.853,6.165
			C265.225,73.389,269.607,77.593,272.923,83.46z"/>
		<path fill="#DEA49C" d="M313.849,66.924c2.834-0.36,5.681-3.123,9.374-2.98c4.423,0.171,8.862-0.055,13.294-0.11
			c-4.274-15.484-17.891-27.434-32.554-28.567c-0.882,0.381-1.738,0.842-2.649,1.13c-8.779,2.778-15.629,7.977-20.872,15.617
			c-6.579,9.587-6.993,20.494-7.52,31.446c1.213,5.182,0.499,10.487,1.22,16.069c2.574-5.279,6.911-8.178,12.185-9.856
			c-4.067-4.349-6.278-9.386-5.819-15.453c0.082-1.08-0.011-2.133-0.646-3.176c-2.948-4.838-1.758-6.969,3.964-7.029
			c6.929-0.073,13.863,0.138,20.786-0.082C308.334,63.817,311.562,67.215,313.849,66.924z"/>
		<path fill="#DEA49C" d="M337.18,91.888c0,0-11.927,1.614-16.158-1.983C321.061,89.906,320,86.95,320,86.95v-8.44
			c-4,0.071-8.992,0.57-8.992,5.666c0,3.168-0.453,3.769-1.712,4.957c-1.259,1.189-5.366,3.337-8.603,3.965
			c-5.36,1.04-9.945-0.749-14.368-3.425c-4.067-4.349-6.276-9.386-5.817-15.453c0.082-1.08-0.01-2.133-0.645-3.176
			c-2.948-4.838-1.757-6.969,3.964-7.029c6.928-0.073,13.864,0.138,20.786-0.082c3.721-0.118,6.949,3.28,9.236,2.989
			c2.834-0.36,5.681-3.123,9.374-2.98c4.423,0.171,8.862-0.055,13.294-0.11C336.517,63.834,339.203,80.701,337.18,91.888z"/>
		<path fill="#FFFFFF" d="M257.876,73.809c7.348-0.42,11.731,3.783,15.046,9.651c1.213,5.182,0.499,10.487,1.22,16.069
			c2.574-5.279,6.911-8.178,12.185-9.856c4.423,2.676,9.01,4.465,14.37,3.425c3.237-0.628,5.758-2.61,8.608-3.966
			c3.682,1.257,8.397,0.505,12.138,0.549c4.214,3.927,14.489,2.324,16.356-1.036c6.63,1.884,15.147,6.271,16.725,13.312
			c0.466,2.079,2.419,2.551,4.162,2.979c23.663,5.812,34.692,18.698,38.187,42.08c-0.061,3.752-0.079,7.505-0.188,11.255
			c-0.693,23.795-20.362,43.214-44.208,43.385c-29.023,0.208-52.382-11.885-71.117-33.526
			c-10.097-11.663-16.428-25.349-20.698-40.062c-1.738-9.566-2.846-19.171-2.64-28.933c0.179-8.453-0.05-16.914-0.098-25.372
			L257.876,73.809z M315.026,99.037c-0.948-1.352-1.565-1.153-2.42,0.067c-2.115,3.019-5.173,4.796-8.677,5.991
			c5.573,6.116,14.363,6.084,19.8-0.051C320.162,103.931,317.149,102.065,315.026,99.037z"/>
		<circle fill="#3E6EAF" cx="290.519" cy="65.236" r="4.236"/>
		<g>
			<circle fill="#FFFFFF" cx="290.519" cy="68.561" r="13.377"/>
			<circle fill="#38A5DA" cx="290.519" cy="68.561" r="7.023"/>
			<circle fill="#FFFFFF" cx="294.271" cy="62.307" r="1.784"/>
		</g>
		<circle fill="#3E6EAF" cx="328.318" cy="65.236" r="4.236"/>
		<g>
			<circle fill="#FFFFFF" cx="328.318" cy="68.561" r="13.377"/>
			<circle fill="#38A5DA" cx="328.318" cy="68.561" r="7.023"/>
			<circle fill="#FFFFFF" cx="332.071" cy="62.307" r="1.784"/>
		</g>
		<path fill="#D4878D" d="M327,83.037c0,3.293-2.67,5.963-5.963,5.963h-8.074C309.67,89,307,86.33,307,83.037v-0.074
			c0-3.293,2.67-5.963,5.963-5.963h8.074c3.293,0,5.963,2.67,5.963,5.963L327,83.037L327,83.037z"/>
		<g>
			<path fill="#DEA49C" d="M320.595,77h-15.617c0.128,0,0.196,1.512,0.196,2.149c0,4.542-3.412,7.621-7.882,8.341
				c1.233,1.916,3.38,2.509,5.829,2.509h17.475c3.829,0,7.405-1.456,7.405-5.284v-0.206C328,80.681,324.424,77,320.595,77z"/>
			<path fill="#030104" d="M349.792,60.842c-3.578-0.302-7.187-0.229-10.783-0.322c-5.258,0.064-10.525,0.332-15.773,0.13
				c-4.382-0.169-7.759,3.108-11.122,3.536c-2.713,0.345-6.543-3.687-10.958-3.547c-8.213,0.261-16.441,0.011-24.661,0.097
				c-6.788,0.071-8.201,2.6-4.703,8.339c0.754,1.237,0.863,2.487,0.766,3.768c-0.545,7.198,2.078,13.174,6.903,18.334
				c5.247,3.175,10.69,5.297,17.05,4.064c3.841-0.745,8.72-3.294,10.213-4.705c1.494-1.411,1.813-2.123,1.813-5.882
				c0-6.047,6.463-6.638,10.463-6.723v10.015c0,0,1.465,3.507,1.419,3.506c5.02,4.267,12.734,5.326,19.262,2.352
				c1.642-0.748,3.192-1.719,4.767-2.613c5.27-5.083,7.663-11.246,7.145-18.556c-0.117-1.655,0.293-2.954,1.489-4.388
				C356.065,64.67,354.493,61.238,349.792,60.842z"/>
			<path fill="#DEA49C" d="M320.427,77h-1.169l-3.068,1.277c0.131,0-0.223,0.352-0.223,1.004c0,4.643-2.09,7.911-6.66,8.647
				c1.261,1.959,2.058,2.072,4.561,2.072h6.56c3.914,0,7.573-1.517,7.573-5.431v-0.211C328,80.444,324.341,77,320.427,77z"/>
		</g>
		<path fill="#FFFFFF" d="M231.291,32.992c0,0-13.316-4.756-3.805-12.365S238.9,33.943,231.291,32.992z"/>
		<path fill="#B74445" d="M323.552,42.503c3.805-4.756-2.853-9.511-5.802-16.17c-3.74-8.444-8.739-16.057-21.835-18.071
			c-17.283-2.659-26.632-6.658-40.899,3.805c-14.267,10.463-20.925,16.169-22.827,16.169s-1.902,5.707,2.853,7.609
			c3.816,1.527,15.272,0.951,21.93,10.463c0.951,4.756-1.902,10.463,1.902,16.169c0,0,17.121-11.414,29.485-17.121
			C300.724,39.65,323.552,42.503,323.552,42.503z"/>
		<g>
			<path fill="#FFFFFF" d="M308.922,45.34c0,0-1.651-8.707,6.547-9.42c0,0-18.535-9.624-20.674,7.485L308.922,45.34z"/>
		</g>
	</g>
</g>
<g>
	<polygon opacity="0.2" fill="#393744" enable-background="new    " points="984.122,251 954.616,157.493 925.68,251 953,251 
		953,271 954,271 954,251 	"/>
	<g>
		<polygon fill="#5A9A68" points="978.526,255 920.085,255 949.02,161.493 		"/>
		<polygon fill="#B79D26" points="949.862,231.139 955.187,222.459 953.792,221.388 950,227.807 950,220.986 950.065,220.944 
			950,220.842 950,210.17 949.862,210.328 955.187,201.648 953.792,200.576 950,206.996 950,194 947,194 947,217.909 
			943.593,212.265 941.817,213.336 947,221.63 947,238.719 943.593,233.076 941.817,234.148 947,242.441 947,275 950,275 
			950,251.792 949.862,251.949 955.187,243.27 953.792,242.198 950,248.618 950,241.797 950.065,241.755 950,241.653 950,230.981 		
			"/>
	</g>
</g>
<g>
	<polygon opacity="0.2" fill="#393744" enable-background="new    " points="937.507,260 919.228,202.073 901.302,260 918,260 
		918,273 919,273 919,260 	"/>
	<g>
		<polygon fill="#5A9A68" points="934.04,263 897.836,263 915.761,205.072 		"/>
		<polygon fill="#B79D26" points="916.098,247.73 919.49,242.353 918.487,241.689 916,245.666 916,241.44 916.04,241.414 
			916,241.351 916,234.74 916.098,234.838 919.49,229.461 918.487,228.797 916,232.773 916,225 914,225 914,239.534 
			912.144,236.038 910.917,236.702 914,241.839 914,252.426 912.144,248.93 910.917,249.594 914,254.732 914,275 916,275 
			916,260.525 916.098,260.622 919.49,255.245 918.487,254.581 916,258.558 916,254.333 916.04,254.307 916,254.243 916,247.632 		
			"/>
	</g>
</g>
</svg>
